<?xml version="1.0" encoding="UTF-8"?>
<!DOCTYPE svg PUBLIC "-//W3C//DTD SVG 1.1//EN" "http://www.w3.org/Graphics/SVG/1.1/DTD/svg11.dtd">
<svg xmlns="http://www.w3.org/2000/svg" version="1.1" width="921px" height="327px" style="shape-rendering:geometricPrecision; text-rendering:geometricPrecision; image-rendering:optimizeQuality; fill-rule:evenodd; clip-rule:evenodd" xmlns:xlink="http://www.w3.org/1999/xlink">
<g><path style="opacity:0.058" fill="#010202" d="M 15.5,9.5 C 15.4142,10.4959 15.7476,11.3292 16.5,12C 15.8357,58.2643 15.1691,104.431 14.5,150.5C 14.1679,103.33 14.5012,56.3304 15.5,9.5 Z"/></g>
<g><path style="opacity:1" fill="#92143f" d="M 270.5,35.5 C 270.666,52.6771 271.333,69.6771 272.5,86.5C 272.5,86.8333 272.5,87.1667 272.5,87.5C 271.833,89.1667 271.167,90.8333 270.5,92.5C 270.813,88.9581 270.479,85.6248 269.5,82.5C 269.533,79.164 268.866,75.9973 267.5,73C 268.488,60.9136 268.822,48.747 268.5,36.5C 265.606,36.0423 263.106,36.709 261,38.5C 259.559,37.13 257.892,36.13 256,35.5C 254.256,36.6492 254.089,37.9825 255.5,39.5C 259.66,39.4982 262.16,41.4982 263,45.5C 263.795,52.2177 263.628,58.8843 262.5,65.5C 261.833,66.1667 261.167,66.8333 260.5,67.5C 255.869,68.6616 251.202,68.8283 246.5,68C 245.944,67.6174 245.611,67.1174 245.5,66.5C 249.848,66.9093 254.181,67.0759 258.5,67C 259.636,65.8549 260.636,64.6883 261.5,63.5C 262.809,57.6292 262.809,51.6292 261.5,45.5C 260.5,44.6667 259.5,43.8333 258.5,43C 253.803,42.7199 249.137,42.2199 244.5,41.5C 242.303,41.8481 240.47,42.8481 239,44.5C 238.333,50.5 238.333,56.5 239,62.5C 239.671,63.2524 240.504,63.5858 241.5,63.5C 241.973,64.9063 242.973,65.573 244.5,65.5C 241.531,68.1354 239.031,67.4688 237,63.5C 235.976,55.2878 236.476,47.2878 238.5,39.5C 242.406,38.6425 246.24,38.6425 250,39.5C 254.481,38.3662 254.648,36.8662 250.5,35C 244.814,34.3864 239.148,34.0531 233.5,34C 232.636,35.8477 232.636,38.0144 233.5,40.5C 230.678,42.8374 228.845,45.8374 228,49.5C 224.473,52.6232 220.307,54.2898 215.5,54.5C 192.524,52.0019 169.524,49.6685 146.5,47.5C 145.167,47.1667 143.833,46.8333 142.5,46.5C 142.624,45.8933 142.957,45.56 143.5,45.5C 167.656,47.9992 191.823,50.3325 216,52.5C 220.516,52.0748 224.183,50.0748 227,46.5C 228.851,41.3453 230.018,36.0119 230.5,30.5C 231.167,30.1667 231.833,29.8333 232.5,29.5C 245.23,31.9179 257.896,33.9179 270.5,35.5 Z M 261.5,63.5 C 260.636,64.6883 259.636,65.8549 258.5,67C 254.181,67.0759 249.848,66.9093 245.5,66.5C 245.5,65.8333 245.167,65.5 244.5,65.5C 242.973,65.573 241.973,64.9063 241.5,63.5C 240.382,57.916 240.215,52.2493 241,46.5C 242.473,44.9929 244.307,44.3262 246.5,44.5C 250.173,44.9533 253.84,45.4533 257.5,46C 258.931,46.4652 260.097,47.2986 261,48.5C 261.499,53.4889 261.666,58.4889 261.5,63.5 Z"/></g>
<g><path style="opacity:1" fill="#862142" d="M 103.5,40.5 C 100.392,42.171 96.892,43.171 93,43.5C 92.5,43 92,42.5 91.5,42C 85.207,40.9774 78.8737,40.3107 72.5,40C 68.735,38.9515 65.0683,37.6181 61.5,36C 56.7866,28.5655 54.7866,20.3988 55.5,11.5C 43.4858,10.0365 31.4858,8.36985 19.5,6.5C 18.5,6.5 17.5,6.5 16.5,6.5C 18.0478,5.20574 20.0478,4.53907 22.5,4.5C 33.5021,6.33369 44.5021,8.16702 55.5,10C 56.6667,10.5 57.5,11.3333 58,12.5C 56.0934,28.9053 63.26,37.7386 79.5,39C 87.5052,39.5003 95.5052,40.0003 103.5,40.5 Z"/></g>
<g><path style="opacity:0.008" fill="#130b0e" d="M 270.5,35.5 C 271.29,36.6085 271.79,37.9419 272,39.5C 272.5,55.1631 272.667,70.8298 272.5,86.5C 271.333,69.6771 270.666,52.6771 270.5,35.5 Z"/></g>
<g><path style="opacity:0.965" fill="#d60759" d="M 590.5,43.5 C 597.167,43.5 603.833,43.5 610.5,43.5C 610.167,63.178 610.5,82.8446 611.5,102.5C 619.017,94.8174 626.35,86.9841 633.5,79C 642.518,78.168 651.518,78.3347 660.5,79.5C 650.38,91.1211 639.714,102.288 628.5,113C 640.985,124.318 652.985,136.151 664.5,148.5C 655.518,149.665 646.518,149.832 637.5,149C 628.667,140.167 619.833,131.333 611,122.5C 610.5,131.494 610.334,140.494 610.5,149.5C 603.833,149.5 597.167,149.5 590.5,149.5C 590.5,114.167 590.5,78.8333 590.5,43.5 Z"/></g>
<g><path style="opacity:0.98" fill="#d60759" d="M 666.5,44.5 C 673.5,44.5 680.5,44.5 687.5,44.5C 687.333,56.5046 687.5,68.5046 688,80.5C 712.827,72.4173 729.827,80.4173 739,104.5C 742.644,121.119 737.81,134.619 724.5,145C 709.749,152.508 695.249,152.008 681,143.5C 680.505,145.473 680.338,147.473 680.5,149.5C 675.833,149.5 671.167,149.5 666.5,149.5C 666.5,114.5 666.5,79.5 666.5,44.5 Z M 698.5,96.5 C 711.343,95.2613 718.343,101.095 719.5,114C 716.689,130.572 707.689,135.239 692.5,128C 690.57,125.742 689.07,123.242 688,120.5C 685.081,109.351 688.581,101.351 698.5,96.5 Z"/></g>
<g><path style="opacity:0.965" fill="#d60759" d="M 402.5,45.5 C 409.422,45.1878 416.256,45.5212 423,46.5C 423.333,71.1667 423.667,95.8333 424,120.5C 425.729,126.789 429.895,129.789 436.5,129.5C 437.191,136.265 435.857,142.598 432.5,148.5C 413.713,149.554 403.88,140.554 403,121.5C 402.5,96.1689 402.333,70.8355 402.5,45.5 Z"/></g>
<g><path style="opacity:1" fill="#a5012f" d="M 19.5,6.5 C 31.4858,8.36985 43.4858,10.0365 55.5,11.5C 54.7866,20.3988 56.7866,28.5655 61.5,36C 65.0683,37.6181 68.735,38.9515 72.5,40C 78.8737,40.3107 85.207,40.9774 91.5,42C 92,42.5 92.5,43 93,43.5C 96.892,43.171 100.392,42.171 103.5,40.5C 116.865,42.7444 130.198,44.4111 143.5,45.5C 142.957,45.56 142.624,45.8933 142.5,46.5C 143.833,46.8333 145.167,47.1667 146.5,47.5C 169.524,49.6685 192.524,52.0019 215.5,54.5C 220.307,54.2898 224.473,52.6232 228,49.5C 228.845,45.8374 230.678,42.8374 233.5,40.5C 232.636,38.0144 232.636,35.8477 233.5,34C 239.148,34.0531 244.814,34.3864 250.5,35C 254.648,36.8662 254.481,38.3662 250,39.5C 246.24,38.6425 242.406,38.6425 238.5,39.5C 236.476,47.2878 235.976,55.2878 237,63.5C 239.031,67.4688 241.531,68.1354 244.5,65.5C 245.167,65.5 245.5,65.8333 245.5,66.5C 245.611,67.1174 245.944,67.6174 246.5,68C 251.202,68.8283 255.869,68.6616 260.5,67.5C 261.167,66.8333 261.833,66.1667 262.5,65.5C 263.628,58.8843 263.795,52.2177 263,45.5C 262.16,41.4982 259.66,39.4982 255.5,39.5C 254.089,37.9825 254.256,36.6492 256,35.5C 257.892,36.13 259.559,37.13 261,38.5C 263.106,36.709 265.606,36.0423 268.5,36.5C 268.822,48.747 268.488,60.9136 267.5,73C 268.866,75.9973 269.533,79.164 269.5,82.5C 236.045,65.0595 200.378,57.8928 162.5,61C 154.911,62.3106 147.577,64.1439 140.5,66.5C 139.041,66.4326 137.708,66.7659 136.5,67.5C 135.486,66.2353 133.986,65.5687 132,65.5C 110.217,63.0158 88.3837,61.5158 66.5,61C 64.6854,61.7568 63.0188,62.5902 61.5,63.5C 59.9826,63.5106 58.8159,64.1772 58,65.5C 55.9853,69.1644 54.4853,72.9977 53.5,77C 53.6158,78.2682 53.9491,79.6015 54.5,81C 52.141,81.2078 49.9743,81.3744 48,81.5C 47.3333,80.8333 46.6667,80.1667 46,79.5C 38.7911,80.1992 31.2911,80.6992 23.5,81C 21.9337,83.9304 21.1004,87.0971 21,90.5C 20.6667,89.1667 20.3333,87.8333 20,86.5C 19.6174,87.056 19.1174,87.3893 18.5,87.5C 18.1759,60.4259 18.5093,33.4259 19.5,6.5 Z M 261.5,63.5 C 260.636,64.6883 259.636,65.8549 258.5,67C 254.181,67.0759 249.848,66.9093 245.5,66.5C 245.5,65.8333 245.167,65.5 244.5,65.5C 242.973,65.573 241.973,64.9063 241.5,63.5C 240.382,57.916 240.215,52.2493 241,46.5C 242.473,44.9929 244.307,44.3262 246.5,44.5C 250.173,44.9533 253.84,45.4533 257.5,46C 258.931,46.4652 260.097,47.2986 261,48.5C 261.499,53.4889 261.666,58.4889 261.5,63.5 Z M 46.5,44.5 C 45.3734,45.1217 44.3734,45.955 43.5,47C 38.4698,47.414 33.4698,47.0807 28.5,46C 27.2899,44.9609 26.2899,43.7942 25.5,42.5C 25.3337,35.825 25.5004,29.1583 26,22.5C 27.3528,21.2958 29.0194,20.6292 31,20.5C 34.5229,20.8371 38.0229,21.3371 41.5,22C 43.286,22.7845 44.786,23.9512 46,25.5C 46.4995,31.8246 46.6662,38.1579 46.5,44.5 Z"/></g>
<g><path style="opacity:0.369" fill="#150c0d" d="M 261.5,63.5 C 261.666,58.4889 261.499,53.4889 261,48.5C 260.097,47.2986 258.931,46.4652 257.5,46C 253.84,45.4533 250.173,44.9533 246.5,44.5C 244.307,44.3262 242.473,44.9929 241,46.5C 240.215,52.2493 240.382,57.916 241.5,63.5C 240.504,63.5858 239.671,63.2524 239,62.5C 238.333,56.5 238.333,50.5 239,44.5C 240.47,42.8481 242.303,41.8481 244.5,41.5C 249.137,42.2199 253.803,42.7199 258.5,43C 259.5,43.8333 260.5,44.6667 261.5,45.5C 262.809,51.6292 262.809,57.6292 261.5,63.5 Z"/></g>
<g><path style="opacity:0.307" fill="#1a0d0f" d="M 46.5,44.5 C 46.6662,38.1579 46.4995,31.8246 46,25.5C 44.786,23.9512 43.286,22.7845 41.5,22C 38.0229,21.3371 34.5229,20.8371 31,20.5C 29.0194,20.6292 27.3528,21.2958 26,22.5C 25.5004,29.1583 25.3337,35.825 25.5,42.5C 24.1778,39.2319 23.5112,35.5652 23.5,31.5C 21.0674,18.9028 26.0674,14.4028 38.5,18C 40.2852,19.1628 42.2852,19.8295 44.5,20C 45.2106,21.2547 46.044,22.4214 47,23.5C 47.8213,30.6791 47.6546,37.6791 46.5,44.5 Z"/></g>
<g><path style="opacity:0.963" fill="#d60759" d="M 322.5,49.5 C 338.503,49.3334 354.503,49.5001 370.5,50C 388.844,55.5264 396.344,67.693 393,86.5C 391.371,90.9311 388.871,94.7644 385.5,98C 394.7,105.254 398.2,114.754 396,126.5C 393.765,135.737 388.265,142.237 379.5,146C 375.653,147.616 371.653,148.616 367.5,149C 352.504,149.5 337.504,149.667 322.5,149.5C 322.5,116.167 322.5,82.8333 322.5,49.5 Z M 344.5,67.5 C 350.842,67.3338 357.175,67.5005 363.5,68C 371.316,71.1058 373.816,76.6058 371,84.5C 369.833,86.3333 368.333,87.8333 366.5,89C 359.254,90.3905 351.921,90.8905 344.5,90.5C 344.5,82.8333 344.5,75.1667 344.5,67.5 Z M 344.5,107.5 C 352.617,107.346 360.617,108.18 368.5,110C 372.802,111.935 374.802,115.268 374.5,120C 374.883,125.233 372.55,128.566 367.5,130C 359.862,130.985 352.196,131.485 344.5,131.5C 344.5,123.5 344.5,115.5 344.5,107.5 Z"/></g>
<g><path style="opacity:0.514" fill="#0c0506" d="M 136.5,67.5 C 135.391,67.5569 134.391,67.8902 133.5,68.5C 113.282,66.8464 92.782,64.8464 72,62.5C 64.6729,62.4855 60.3396,66.1522 59,73.5C 58.3333,88.5 58.3333,103.5 59,118.5C 59.8159,117.177 60.9826,116.511 62.5,116.5C 61.5,118.167 60.1667,119.5 58.5,120.5C 57.2025,103.64 57.2025,86.64 58.5,69.5C 59.5,67.5 60.5,65.5 61.5,63.5C 63.0188,62.5902 64.6854,61.7568 66.5,61C 88.3837,61.5158 110.217,63.0158 132,65.5C 133.986,65.5687 135.486,66.2353 136.5,67.5 Z"/></g>
<g><path style="opacity:1" fill="#df1465" d="M 269.5,82.5 C 270.479,85.6248 270.813,88.9581 270.5,92.5C 270.565,92.9382 270.399,93.2716 270,93.5C 254.222,85.027 237.722,78.3603 220.5,73.5C 219.411,71.8829 217.744,71.0496 215.5,71C 202.172,69.5011 188.839,68.3344 175.5,67.5C 174.692,67.8076 174.025,68.3076 173.5,69C 161.003,70.0077 148.837,72.1744 137,75.5C 135.605,74.1854 134.605,74.5188 134,76.5C 133.333,73.8333 132.667,73.8333 132,76.5C 130.635,75.4071 130.301,74.0738 131,72.5C 131.718,73.4506 132.551,73.6172 133.5,73C 132.167,72.3333 132.167,71.6667 133.5,71C 136.579,70.4719 138.913,68.9719 140.5,66.5C 147.577,64.1439 154.911,62.3106 162.5,61C 200.378,57.8928 236.045,65.0595 269.5,82.5 Z"/></g>
<g><path style="opacity:0.514" fill="#1a090e" d="M 220.5,73.5 C 237.722,78.3603 254.222,85.027 270,93.5C 270.399,93.2716 270.565,92.9382 270.5,92.5C 271.167,90.8333 271.833,89.1667 272.5,87.5C 273.559,89.726 273.392,92.0594 272,94.5C 271.107,95.0814 270.107,95.4148 269,95.5C 230.377,74.9347 189.543,69.1014 146.5,78C 110.422,88.9423 81.5883,109.776 60,140.5C 58.3644,156.408 58.031,172.408 59,188.5C 59.9211,191.336 61.0877,194.002 62.5,196.5C 60.5,194.5 58.5,192.5 56.5,190.5C 56.3334,173.497 56.5001,156.497 57,139.5C 97.5696,83.9259 152.07,61.9259 220.5,73.5 Z"/></g>
<g><path style="opacity:1" fill="#da2571" d="M 140.5,66.5 C 138.913,68.9719 136.579,70.4719 133.5,71C 132.167,71.6667 132.167,72.3333 133.5,73C 132.551,73.6172 131.718,73.4506 131,72.5C 130.301,74.0738 130.635,75.4071 132,76.5C 132.667,73.8333 133.333,73.8333 134,76.5C 134.605,74.5188 135.605,74.1854 137,75.5C 148.837,72.1744 161.003,70.0077 173.5,69C 174.025,68.3076 174.692,67.8076 175.5,67.5C 188.839,68.3344 202.172,69.5011 215.5,71C 217.744,71.0496 219.411,71.8829 220.5,73.5C 152.07,61.9259 97.5696,83.9259 57,139.5C 56.5001,156.497 56.3334,173.497 56.5,190.5C 55.5036,174.342 55.1702,158.009 55.5,141.5C 57.0289,134.967 58.0289,128.301 58.5,121.5C 58.5,121.167 58.5,120.833 58.5,120.5C 60.1667,119.5 61.5,118.167 62.5,116.5C 62.3505,115.448 62.5172,114.448 63,113.5C 78.565,97.2694 96.3983,84.1027 116.5,74C 120.729,72.8854 124.729,71.2187 128.5,69C 130.134,68.5065 131.801,68.3398 133.5,68.5C 134.391,67.8902 135.391,67.5569 136.5,67.5C 137.708,66.7659 139.041,66.4326 140.5,66.5 Z"/></g>
<g><path style="opacity:0.977" fill="#d60759" d="M 470.5,77.5 C 475.511,77.3341 480.511,77.5007 485.5,78C 494.985,80.1903 504.485,82.0236 514,83.5C 514.5,105.497 514.667,127.497 514.5,149.5C 507.5,149.5 500.5,149.5 493.5,149.5C 493.662,147.473 493.495,145.473 493,143.5C 477.13,153.736 462.463,152.069 449,138.5C 438.635,123.543 437.969,108.209 447,92.5C 452.868,84.3217 460.701,79.3217 470.5,77.5 Z M 473.5,96.5 C 489.626,96.3455 496.126,104.345 493,120.5C 487.718,131.383 479.551,134.216 468.5,129C 460.17,119.451 459.837,109.784 467.5,100C 469.432,98.5415 471.432,97.3748 473.5,96.5 Z"/></g>
<g><path style="opacity:0.973" fill="#d60759" d="M 552.5,77.5 C 561.538,77.1432 569.872,79.3099 577.5,84C 579.81,85.6374 581.31,87.804 582,90.5C 582.607,94.5369 582.44,98.5369 581.5,102.5C 576.481,102.248 571.481,101.748 566.5,101C 562.819,96.6795 558.152,95.3461 552.5,97C 545.891,100.459 542.224,105.959 541.5,113.5C 542.195,126.37 548.861,132.203 561.5,131C 565.379,129.811 568.879,127.978 572,125.5C 576.629,127.894 580.795,130.894 584.5,134.5C 577.27,144.782 567.27,149.782 554.5,149.5C 533.309,146.972 521.976,134.972 520.5,113.5C 522.434,93.578 533.1,81.578 552.5,77.5 Z"/></g>
<g><path style="opacity:0.975" fill="#d60759" d="M 778.5,77.5 C 806.741,78.0057 820.574,92.3391 820,120.5C 812.81,143.353 797.31,152.853 773.5,149C 754.489,142.142 745.656,128.642 747,108.5C 750.861,91.3363 761.361,81.0029 778.5,77.5 Z M 779.5,96.5 C 794.783,96.6218 801.283,104.289 799,119.5C 794.882,130.1 787.382,133.6 776.5,130C 766.859,122.485 765.025,113.318 771,102.5C 773.671,100.098 776.505,98.0976 779.5,96.5 Z"/></g>
<g><path style="opacity:0.96" fill="#d60759" d="M 825.5,78.5 C 833.507,78.3336 841.507,78.5003 849.5,79C 854.214,84.9256 859.047,90.7589 864,96.5C 868.5,90.8333 873,85.1667 877.5,79.5C 885.833,78.1667 894.167,78.1667 902.5,79.5C 893.833,90.5 885.167,101.5 876.5,112.5C 886.167,124.5 895.833,136.5 905.5,148.5C 897.187,149.665 888.853,149.832 880.5,149C 875.121,141.743 869.621,134.577 864,127.5C 858.167,134.667 852.333,141.833 846.5,149C 838.167,149.667 829.833,149.667 821.5,149C 831.046,136.742 840.713,124.576 850.5,112.5C 842.117,101.13 833.784,89.7966 825.5,78.5 Z"/></g>
<g><path style="opacity:1" fill="#a10129" d="M 169.5,78.5 C 169.47,79.4972 169.97,80.1639 171,80.5C 181.148,79.2024 191.315,79.2024 201.5,80.5C 205.814,81.0399 209.981,82.0399 214,83.5C 214.873,83.2645 215.707,82.9312 216.5,82.5C 221.322,84.3055 226.322,85.4721 231.5,86C 235.34,88.9523 239.673,90.9523 244.5,92C 243.737,92.9435 242.737,93.4435 241.5,93.5C 223.485,90.9932 205.485,90.9932 187.5,93.5C 187.137,94.1835 186.804,94.8501 186.5,95.5C 185.167,95.5 183.833,95.5 182.5,95.5C 175.511,96.8291 168.511,98.3291 161.5,100C 157.69,103.936 153.19,106.769 148,108.5C 145.97,107.123 143.97,106.123 142,105.5C 140.846,107.957 139.512,107.957 138,105.5C 137.667,105.833 137.333,106.167 137,106.5C 135.197,102.488 134.197,102.822 134,107.5C 133.632,106.09 132.799,105.09 131.5,104.5C 132.555,106.966 132.555,109.632 131.5,112.5C 129.999,111.248 128.332,110.248 126.5,109.5C 125.494,109.938 125.494,110.604 126.5,111.5C 124.392,112.355 122.226,113.022 120,113.5C 117.867,111.546 115.367,110.213 112.5,109.5C 111.304,109.846 111.304,110.346 112.5,111C 108.083,112.087 106.75,110.587 108.5,106.5C 112.033,103.575 115.699,100.908 119.5,98.5C 121.284,99.1556 122.951,99.6556 124.5,100C 123.549,99.2825 123.383,98.4491 124,97.5C 127.037,95.9733 129.537,93.8066 131.5,91C 136.841,89.4586 141.841,87.2919 146.5,84.5C 153.849,81.7448 161.516,79.7448 169.5,78.5 Z"/></g>
<g><path style="opacity:0.493" fill="#140c0e" d="M 288.5,114.5 C 292.028,117.098 295.361,119.932 298.5,123C 297.975,123.692 297.308,124.192 296.5,124.5C 262.95,100.16 225.617,91.3264 184.5,98C 151.771,107.245 126.771,126.412 109.5,155.5C 109.984,157.801 110.984,159.801 112.5,161.5C 109.112,160.44 107.112,158.107 106.5,154.5C 109.855,149.111 113.188,143.777 116.5,138.5C 120.664,135.168 124.331,131.335 127.5,127C 138.944,116.656 151.944,107.989 166.5,101C 172.102,99.6336 177.436,97.8003 182.5,95.5C 183.833,95.5 185.167,95.5 186.5,95.5C 222.538,88.931 255.871,95.5977 286.5,115.5C 287.183,115.137 287.85,114.804 288.5,114.5 Z"/></g>
<g><path style="opacity:1" fill="#961940" d="M 169.5,78.5 C 214.226,74.9159 253.893,86.9159 288.5,114.5C 287.85,114.804 287.183,115.137 286.5,115.5C 255.871,95.5977 222.538,88.931 186.5,95.5C 186.804,94.8501 187.137,94.1835 187.5,93.5C 205.485,90.9932 223.485,90.9932 241.5,93.5C 242.737,93.4435 243.737,92.9435 244.5,92C 239.673,90.9523 235.34,88.9523 231.5,86C 226.322,85.4721 221.322,84.3055 216.5,82.5C 215.707,82.9312 214.873,83.2645 214,83.5C 209.981,82.0399 205.814,81.0399 201.5,80.5C 191.315,79.2024 181.148,79.2024 171,80.5C 169.97,80.1639 169.47,79.4972 169.5,78.5 Z"/></g>
<g><path style="opacity:1" fill="#9a1a4c" d="M 146.5,84.5 C 141.841,87.2919 136.841,89.4586 131.5,91C 129.537,93.8066 127.037,95.9733 124,97.5C 123.383,98.4491 123.549,99.2825 124.5,100C 122.951,99.6556 121.284,99.1556 119.5,98.5C 115.699,100.908 112.033,103.575 108.5,106.5C 104.448,107.718 101.448,110.218 99.5,114C 94.7926,115.207 91.4592,118.04 89.5,122.5C 90.5,123.333 91.5,124.167 92.5,125C 91.451,125.492 90.451,125.326 89.5,124.5C 87.8752,127.067 85.7085,129.067 83,130.5C 83.8612,133.083 82.6945,134.416 79.5,134.5C 75.3574,137.434 72.6907,141.434 71.5,146.5C 67.7481,148.802 66.5814,152.135 68,156.5C 75.355,167.891 83.1883,178.891 91.5,189.5C 84.9234,182.648 78.59,175.648 72.5,168.5C 70.3443,164.189 68.1777,159.855 66,155.5C 65.3603,153.735 65.5269,152.068 66.5,150.5C 81.8715,121.971 104.538,101.138 134.5,88C 138.423,86.5369 142.423,85.3703 146.5,84.5 Z"/></g>
<g><path style="opacity:1" fill="#410119" d="M 58.5,69.5 C 57.2025,86.64 57.2025,103.64 58.5,120.5C 58.5,120.833 58.5,121.167 58.5,121.5C 57.1687,113.528 56.502,105.194 56.5,96.5C 56.6667,88.1667 56.8333,79.8333 57,71.5C 57.2784,70.5842 57.7784,69.9175 58.5,69.5 Z"/></g>
<g><path style="opacity:1" fill="#e32271" d="M 243.5,119.5 C 243.423,120.75 242.756,121.583 241.5,122C 229.687,126.158 218.187,130.992 207,136.5C 206.617,135.944 206.117,135.611 205.5,135.5C 205.5,135.167 205.5,134.833 205.5,134.5C 208.997,126.812 211.997,118.812 214.5,110.5C 214.414,109.504 214.748,108.671 215.5,108C 226.463,107.822 235.797,111.655 243.5,119.5 Z"/></g>
<g><path style="opacity:0.996" fill="#710a3a" d="M 16.5,6.5 C 16.9524,63.4288 16.9524,120.429 16.5,177.5C 16.5,224.167 16.5,270.833 16.5,317.5C 15.8333,262.167 15.1667,206.833 14.5,151.5C 14.5,151.167 14.5,150.833 14.5,150.5C 15.1691,104.431 15.8357,58.2643 16.5,12C 15.7476,11.3292 15.4142,10.4959 15.5,9.5C 15.2627,8.20895 15.596,7.20895 16.5,6.5 Z"/></g>
<g><path style="opacity:1" fill="#b2023b" d="M 182.5,95.5 C 177.436,97.8003 172.102,99.6336 166.5,101C 151.944,107.989 138.944,116.656 127.5,127C 124.331,131.335 120.664,135.168 116.5,138.5C 113.163,141.509 109.83,144.509 106.5,147.5C 104.575,147.41 103.408,146.41 103,144.5C 100.623,147.766 97.9568,147.766 95,144.5C 94.3086,146.891 93.3086,146.891 92,144.5C 89.5808,146.842 87.2474,146.509 85,143.5C 84.6924,144.308 84.1924,144.975 83.5,145.5C 82.5,144.167 81.5,144.167 80.5,145.5C 79.2997,144.469 77.9663,143.635 76.5,143C 78.0441,142.71 79.3774,142.044 80.5,141C 80.5117,139.025 80.1784,136.858 79.5,134.5C 82.6945,134.416 83.8612,133.083 83,130.5C 85.7085,129.067 87.8752,127.067 89.5,124.5C 90.451,125.326 91.451,125.492 92.5,125C 91.5,124.167 90.5,123.333 89.5,122.5C 91.4592,118.04 94.7926,115.207 99.5,114C 101.448,110.218 104.448,107.718 108.5,106.5C 106.75,110.587 108.083,112.087 112.5,111C 111.304,110.346 111.304,109.846 112.5,109.5C 115.367,110.213 117.867,111.546 120,113.5C 122.226,113.022 124.392,112.355 126.5,111.5C 125.494,110.604 125.494,109.938 126.5,109.5C 128.332,110.248 129.999,111.248 131.5,112.5C 132.555,109.632 132.555,106.966 131.5,104.5C 132.799,105.09 133.632,106.09 134,107.5C 134.197,102.822 135.197,102.488 137,106.5C 137.333,106.167 137.667,105.833 138,105.5C 139.512,107.957 140.846,107.957 142,105.5C 143.97,106.123 145.97,107.123 148,108.5C 153.19,106.769 157.69,103.936 161.5,100C 168.511,98.3291 175.511,96.8291 182.5,95.5 Z"/></g>
<g><path style="opacity:1" fill="#dc226e" d="M 210.5,107.5 C 210.031,114.85 207.864,121.85 204,128.5C 201.482,135.723 199.148,143.057 197,150.5C 192.855,139.896 189.022,129.23 185.5,118.5C 186.031,116.376 187.365,114.876 189.5,114C 195.833,109.491 202.833,107.324 210.5,107.5 Z"/></g>
<g><path style="opacity:0.557" fill="#1b1313" d="M 243.5,119.5 C 244.686,120.705 244.686,122.039 243.5,123.5C 242.833,123.5 242.5,123.833 242.5,124.5C 241.48,125.954 240.313,126.287 239,125.5C 238.536,126.094 238.369,126.761 238.5,127.5C 238.167,127.5 237.833,127.5 237.5,127.5C 237.565,127.062 237.399,126.728 237,126.5C 233.885,127.975 230.718,129.308 227.5,130.5C 226.833,130.5 226.5,130.833 226.5,131.5C 223.069,131.952 221.069,133.452 220.5,136C 233.065,141.282 245.398,147.115 257.5,153.5C 257.562,147.853 256.728,142.186 255,136.5C 252.239,132.64 249.739,128.64 247.5,124.5C 255.063,131.133 259.063,139.633 259.5,150C 259.662,152.502 258.995,154.669 257.5,156.5C 251.706,152.544 245.872,150.211 240,149.5C 238.349,147.79 236.516,146.456 234.5,145.5C 230.044,143.108 225.377,140.942 220.5,139C 218.699,137.613 218.032,136.113 218.5,134.5C 214.5,136.167 210.5,137.833 206.5,139.5C 205.571,138.311 205.238,136.978 205.5,135.5C 206.117,135.611 206.617,135.944 207,136.5C 218.187,130.992 229.687,126.158 241.5,122C 242.756,121.583 243.423,120.75 243.5,119.5 Z"/></g>
<g><path style="opacity:1" fill="#b90543" d="M 61.5,63.5 C 60.5,65.5 59.5,67.5 58.5,69.5C 57.7784,69.9175 57.2784,70.5842 57,71.5C 56.8333,79.8333 56.6667,88.1667 56.5,96.5C 56.502,105.194 57.1687,113.528 58.5,121.5C 58.0289,128.301 57.0289,134.967 55.5,141.5C 54.7757,145.365 54.1091,149.365 53.5,153.5C 54.8909,155.936 54.3909,156.602 52,155.5C 51.6667,157.167 51.3333,158.833 51,160.5C 50.6667,159.833 50.3333,159.167 50,158.5C 49.6667,162.5 49.3333,166.5 49,170.5C 48.7761,161.13 48.1095,151.796 47,142.5C 45.5981,140.027 44.0981,140.027 42.5,142.5C 38.3672,140.522 34.2006,139.522 30,139.5C 28.5728,141.787 26.7394,142.12 24.5,140.5C 23.8524,142.149 22.8524,143.482 21.5,144.5C 21.1667,144.167 20.8333,143.833 20.5,143.5C 21.6405,142.575 21.6405,141.741 20.5,141C 23.3064,139.695 24.1397,137.528 23,134.5C 21.7492,139.593 20.2492,140.093 18.5,136C 18.8259,120.193 18.8259,104.026 18.5,87.5C 19.1174,87.3893 19.6174,87.056 20,86.5C 20.3333,87.8333 20.6667,89.1667 21,90.5C 21.1004,87.0971 21.9337,83.9304 23.5,81C 31.2911,80.6992 38.7911,80.1992 46,79.5C 46.6667,80.1667 47.3333,80.8333 48,81.5C 49.9743,81.3744 52.141,81.2078 54.5,81C 53.9491,79.6015 53.6158,78.2682 53.5,77C 54.4853,72.9977 55.9853,69.1644 58,65.5C 58.8159,64.1772 59.9826,63.5106 61.5,63.5 Z M 46.5,104.5 C 45.0938,108.908 42.0938,110.908 37.5,110.5C 34.433,110.393 31.433,109.893 28.5,109C 26.9443,108.28 25.9443,107.113 25.5,105.5C 25.3338,99.1579 25.5005,92.8246 26,86.5C 27.8219,84.9546 29.9886,84.288 32.5,84.5C 36.196,84.7826 39.8626,85.2826 43.5,86C 44,86.5 44.5,87 45,87.5C 46.4038,93.0438 46.9038,98.7104 46.5,104.5 Z"/></g>
<g><path style="opacity:0.305" fill="#140708" d="M 46.5,104.5 C 46.9038,98.7104 46.4038,93.0438 45,87.5C 44.5,87 44,86.5 43.5,86C 39.8626,85.2826 36.196,84.7826 32.5,84.5C 29.9886,84.288 27.8219,84.9546 26,86.5C 25.5005,92.8246 25.3338,99.1579 25.5,105.5C 24.179,102.402 23.5123,98.9018 23.5,95C 23.6667,91.5 23.8333,88 24,84.5C 26.0411,82.0259 28.7077,81.0259 32,81.5C 35.8686,81.7281 39.7019,82.2281 43.5,83C 44.6667,84.1667 45.8333,85.3333 47,86.5C 47.8192,92.6812 47.6525,98.6812 46.5,104.5 Z"/></g>
<g><path style="opacity:1" fill="#e31469" d="M 187.5,136.5 C 189.765,136.441 190.098,137.274 188.5,139C 190.869,143.607 192.535,148.44 193.5,153.5C 193.694,156.33 194.361,158.996 195.5,161.5C 188.015,159.551 181.015,156.551 174.5,152.5C 173.274,142.461 175.774,133.461 182,125.5C 183.316,129.465 185.149,133.132 187.5,136.5 Z"/></g>
<g><path style="opacity:1" fill="#d93e8c" d="M 243.5,123.5 C 244.959,123.433 246.292,123.766 247.5,124.5C 249.739,128.64 252.239,132.64 255,136.5C 256.728,142.186 257.562,147.853 257.5,153.5C 245.398,147.115 233.065,141.282 220.5,136C 221.069,133.452 223.069,131.952 226.5,131.5C 227.167,131.5 227.5,131.167 227.5,130.5C 230.718,129.308 233.885,127.975 237,126.5C 237.399,126.728 237.565,127.062 237.5,127.5C 236.791,128.404 235.791,128.737 234.5,128.5C 233.923,131.645 231.923,133.145 228.5,133C 227.643,133.689 226.977,134.522 226.5,135.5C 235.829,141.061 245.496,146.061 255.5,150.5C 256.056,141.86 253.056,134.527 246.5,128.5C 243.914,127.52 241.247,127.187 238.5,127.5C 238.369,126.761 238.536,126.094 239,125.5C 240.313,126.287 241.48,125.954 242.5,124.5C 243.167,124.5 243.5,124.167 243.5,123.5 Z"/></g>
<g><path style="opacity:1" fill="#e61068" d="M 237.5,127.5 C 237.833,127.5 238.167,127.5 238.5,127.5C 241.247,127.187 243.914,127.52 246.5,128.5C 253.056,134.527 256.056,141.86 255.5,150.5C 245.496,146.061 235.829,141.061 226.5,135.5C 226.977,134.522 227.643,133.689 228.5,133C 231.923,133.145 233.923,131.645 234.5,128.5C 235.791,128.737 236.791,128.404 237.5,127.5 Z"/></g>
<g><path style="opacity:0.599" fill="#201516" d="M 210.5,107.5 C 212.43,107.771 213.764,108.771 214.5,110.5C 211.997,118.812 208.997,126.812 205.5,134.5C 202.669,141 199.669,147.5 196.5,154C 197.933,157.467 199.266,160.967 200.5,164.5C 200.547,166.038 199.88,167.038 198.5,167.5C 195.057,167.55 191.89,166.216 189,163.5C 188.667,163.833 188.333,164.167 188,164.5C 186.259,163.242 184.426,162.242 182.5,161.5C 181.48,160.046 180.313,159.713 179,160.5C 177.215,159.76 175.382,159.093 173.5,158.5C 172.513,161.768 172.18,165.102 172.5,168.5C 171.657,166.513 170.99,164.346 170.5,162C 170.765,159.849 171.765,158.182 173.5,157C 171.258,155.014 170.258,152.514 170.5,149.5C 171.344,145.005 172.344,140.672 173.5,136.5C 172.628,142.191 172.628,147.858 173.5,153.5C 181.681,157.757 190.014,161.757 198.5,165.5C 198.074,161.272 196.407,157.272 193.5,153.5C 192.535,148.44 190.869,143.607 188.5,139C 190.098,137.274 189.765,136.441 187.5,136.5C 186.422,132.127 185.088,127.794 183.5,123.5C 184.167,121.833 184.833,120.167 185.5,118.5C 189.022,129.23 192.855,139.896 197,150.5C 199.148,143.057 201.482,135.723 204,128.5C 207.864,121.85 210.031,114.85 210.5,107.5 Z"/></g>
<g><path style="opacity:1" fill="#e11c6b" d="M 231.5,145.5 C 232.5,145.5 233.5,145.5 234.5,145.5C 236.516,146.456 238.349,147.79 240,149.5C 245.872,150.211 251.706,152.544 257.5,156.5C 257.982,157.416 258.315,158.416 258.5,159.5C 257.25,163.752 256.416,168.086 256,172.5C 253.651,177.212 250.817,181.545 247.5,185.5C 241.585,172.346 236.252,159.012 231.5,145.5 Z"/></g>
<g><path style="opacity:1" fill="#c94088" d="M 183.5,123.5 C 185.088,127.794 186.422,132.127 187.5,136.5C 185.149,133.132 183.316,129.465 182,125.5C 175.774,133.461 173.274,142.461 174.5,152.5C 181.015,156.551 188.015,159.551 195.5,161.5C 194.361,158.996 193.694,156.33 193.5,153.5C 196.407,157.272 198.074,161.272 198.5,165.5C 190.014,161.757 181.681,157.757 173.5,153.5C 172.628,147.858 172.628,142.191 173.5,136.5C 174.772,131.194 177.439,126.694 181.5,123C 182.437,122.308 183.103,122.475 183.5,123.5 Z"/></g>
<g><path style="opacity:0.684" fill="#170d10" d="M 66.5,150.5 C 65.5269,152.068 65.3603,153.735 66,155.5C 68.1777,159.855 70.3443,164.189 72.5,168.5C 71.5041,168.586 70.6708,168.252 70,167.5C 67.4759,163.285 65.6426,158.785 64.5,154C 64.6083,152.319 65.2749,151.152 66.5,150.5 Z"/></g>
<g><path style="opacity:1" fill="#ce0752" d="M 79.5,134.5 C 80.1784,136.858 80.5117,139.025 80.5,141C 79.3774,142.044 78.0441,142.71 76.5,143C 77.9663,143.635 79.2997,144.469 80.5,145.5C 81.5,144.167 82.5,144.167 83.5,145.5C 84.1924,144.975 84.6924,144.308 85,143.5C 87.2474,146.509 89.5808,146.842 92,144.5C 93.3086,146.891 94.3086,146.891 95,144.5C 97.9568,147.766 100.623,147.766 103,144.5C 103.408,146.41 104.575,147.41 106.5,147.5C 109.83,144.509 113.163,141.509 116.5,138.5C 113.188,143.777 109.855,149.111 106.5,154.5C 107.112,158.107 109.112,160.44 112.5,161.5C 112.833,162.167 113.167,162.833 113.5,163.5C 112.957,163.56 112.624,163.893 112.5,164.5C 115.129,167.426 116.962,170.759 118,174.5C 122.659,178.358 126.159,183.025 128.5,188.5C 133.87,190.046 137.87,193.213 140.5,198C 144.333,198.5 146.5,200.667 147,204.5C 147.889,203.112 148.389,203.278 148.5,205C 147.328,208.211 145.828,208.711 144,206.5C 144.349,210.376 143.516,210.376 141.5,206.5C 140.094,207.668 138.928,207.335 138,205.5C 135.449,209.634 133.283,209.467 131.5,205C 126.993,203.385 122.826,203.552 119,205.5C 117.775,205.138 116.609,204.638 115.5,204C 116.956,203.577 117.456,202.744 117,201.5C 115.175,202.103 113.341,202.77 111.5,203.5C 112.035,205.271 112.869,205.604 114,204.5C 114.749,205.635 114.583,206.635 113.5,207.5C 111.484,205.596 109.818,203.429 108.5,201C 110.337,199.048 112.671,198.048 115.5,198C 112.669,196.734 109.669,196.734 106.5,198C 107.888,198.889 107.722,199.389 106,199.5C 104.5,199 103,198.5 101.5,198C 98.7015,194.449 95.3681,191.616 91.5,189.5C 83.1883,178.891 75.355,167.891 68,156.5C 66.5814,152.135 67.7481,148.802 71.5,146.5C 72.6907,141.434 75.3574,137.434 79.5,134.5 Z"/></g>
<g><path style="opacity:1" fill="#e6176c" d="M 182.5,161.5 C 182.937,163.074 183.937,164.241 185.5,165C 190.141,166.951 194.807,168.951 199.5,171C 202.992,172.899 203.992,175.232 202.5,178C 199.898,178.977 197.398,180.144 195,181.5C 192.607,179.006 191.44,179.673 191.5,183.5C 189.088,183.331 186.921,183.997 185,185.5C 183.357,184.685 181.857,183.685 180.5,182.5C 177.599,178.374 174.932,174.041 172.5,169.5C 172.5,169.167 172.5,168.833 172.5,168.5C 172.18,165.102 172.513,161.768 173.5,158.5C 175.382,159.093 177.215,159.76 179,160.5C 180.313,159.713 181.48,160.046 182.5,161.5 Z"/></g>
<g><path style="opacity:1" fill="#d64890" d="M 182.5,161.5 C 184.426,162.242 186.259,163.242 188,164.5C 188.333,164.167 188.667,163.833 189,163.5C 191.89,166.216 195.057,167.55 198.5,167.5C 202.423,169.823 206.423,172.156 210.5,174.5C 202.301,179.266 193.635,183.599 184.5,187.5C 182.389,186.395 181.055,184.729 180.5,182.5C 181.857,183.685 183.357,184.685 185,185.5C 186.921,183.997 189.088,183.331 191.5,183.5C 191.44,179.673 192.607,179.006 195,181.5C 197.398,180.144 199.898,178.977 202.5,178C 203.992,175.232 202.992,172.899 199.5,171C 194.807,168.951 190.141,166.951 185.5,165C 183.937,164.241 182.937,163.074 182.5,161.5 Z"/></g>
<g><path style="opacity:1" fill="#cc0752" d="M 16.5,6.5 C 17.5,6.5 18.5,6.5 19.5,6.5C 18.5093,33.4259 18.1759,60.4259 18.5,87.5C 18.8259,104.026 18.8259,120.193 18.5,136C 20.2492,140.093 21.7492,139.593 23,134.5C 24.1397,137.528 23.3064,139.695 20.5,141C 21.6405,141.741 21.6405,142.575 20.5,143.5C 20.8333,143.833 21.1667,144.167 21.5,144.5C 22.8524,143.482 23.8524,142.149 24.5,140.5C 26.7394,142.12 28.5728,141.787 30,139.5C 34.2006,139.522 38.3672,140.522 42.5,142.5C 44.0981,140.027 45.5981,140.027 47,142.5C 48.1095,151.796 48.7761,161.13 49,170.5C 49.3333,166.5 49.6667,162.5 50,158.5C 50.3333,159.167 50.6667,159.833 51,160.5C 51.3333,158.833 51.6667,157.167 52,155.5C 54.3909,156.602 54.8909,155.936 53.5,153.5C 54.1091,149.365 54.7757,145.365 55.5,141.5C 55.1702,158.009 55.5036,174.342 56.5,190.5C 57.5502,195.114 57.7168,199.78 57,204.5C 56.3333,205.167 55.6667,205.833 55,206.5C 54.5002,215.16 54.3336,223.827 54.5,232.5C 52.5021,230.823 52.1688,228.823 53.5,226.5C 52.8551,225.354 52.0217,224.354 51,223.5C 50.2571,225.441 50.4238,227.274 51.5,229C 50.9535,229.925 50.2868,230.758 49.5,231.5C 48.1879,224.276 48.1879,217.109 49.5,210C 43.0374,206.609 36.0374,205.609 28.5,207C 26.4556,207.498 25.1223,208.665 24.5,210.5C 23.2101,211.058 22.3768,212.058 22,213.5C 21.6667,216.167 21.3333,218.833 21,221.5C 19.7926,219.56 19.626,217.727 20.5,216C 18.8637,206.916 17.8637,197.749 17.5,188.5C 17.815,184.629 17.4816,180.962 16.5,177.5C 16.9524,120.429 16.9524,63.4288 16.5,6.5 Z M 43.5,173.5 C 38.4889,173.666 33.4889,173.499 28.5,173C 27.5842,172.722 26.9175,172.222 26.5,171.5C 25.3703,164.246 25.2036,156.913 26,149.5C 31.4162,148.361 36.9162,148.194 42.5,149C 43.4162,149.374 44.2496,149.874 45,150.5C 46.0572,158.395 45.5572,166.062 43.5,173.5 Z"/></g>
<g><path style="opacity:0.336" fill="#0d0b0a" d="M 43.5,173.5 C 45.5572,166.062 46.0572,158.395 45,150.5C 44.2496,149.874 43.4162,149.374 42.5,149C 36.9162,148.194 31.4162,148.361 26,149.5C 25.2036,156.913 25.3703,164.246 26.5,171.5C 25.5041,171.586 24.6708,171.252 24,170.5C 23.0655,162.395 23.3989,154.395 25,146.5C 31.0844,145.358 37.2511,145.191 43.5,146C 44.0253,146.692 44.6919,147.192 45.5,147.5C 46.6649,155.479 46.8316,163.479 46,171.5C 45.2917,172.381 44.4584,173.047 43.5,173.5 Z"/></g>
<g><path style="opacity:0.516" fill="#1a0d10" d="M 231.5,145.5 C 236.252,159.012 241.585,172.346 247.5,185.5C 250.817,181.545 253.651,177.212 256,172.5C 256.416,168.086 257.25,163.752 258.5,159.5C 258.315,158.416 257.982,157.416 257.5,156.5C 259.586,157.148 260.586,158.648 260.5,161C 259.409,169.824 256.575,177.991 252,185.5C 250.416,186.861 248.582,187.528 246.5,187.5C 246.66,189.199 246.494,190.866 246,192.5C 239.107,199.345 230.774,203.678 221,205.5C 219.108,205.223 217.775,204.223 217,202.5C 215.147,204.592 212.814,205.592 210,205.5C 201.018,204.509 193.352,200.842 187,194.5C 186.51,193.207 186.343,191.873 186.5,190.5C 185.127,190.657 183.793,190.49 182.5,190C 177.544,183.971 174.211,177.138 172.5,169.5C 174.932,174.041 177.599,178.374 180.5,182.5C 181.055,184.729 182.389,186.395 184.5,187.5C 193.635,183.599 202.301,179.266 210.5,174.5C 211.1,175.9 212.1,176.9 213.5,177.5C 212.71,178.401 211.71,179.068 210.5,179.5C 210.167,178.167 209.833,178.167 209.5,179.5C 207.003,179.727 205.336,181.06 204.5,183.5C 202.977,183.207 201.643,183.207 200.5,183.5C 200.167,183.5 199.833,183.5 199.5,183.5C 195.666,186.093 192.333,187.759 189.5,188.5C 188.833,188.5 188.5,188.833 188.5,189.5C 188.351,190.552 188.517,191.552 189,192.5C 195.886,199.856 204.386,203.19 214.5,202.5C 217.577,192.694 220.91,183.028 224.5,173.5C 226.199,173.473 227.533,172.806 228.5,171.5C 228.598,173.553 227.931,175.22 226.5,176.5C 224.15,184.217 221.483,191.884 218.5,199.5C 218.709,200.086 219.043,200.586 219.5,201C 222.928,201.701 226.262,201.368 229.5,200C 234.604,197.227 239.437,194.06 244,190.5C 244.14,188.479 244.307,186.645 244.5,185C 243.015,182.183 241.348,179.016 239.5,175.5C 240.609,174.035 240.109,173.035 238,172.5C 237.343,167.927 235.843,164.261 233.5,161.5C 234.239,161.631 234.906,161.464 235.5,161C 234.005,157.183 232.505,153.35 231,149.5C 230.235,147.934 230.402,146.601 231.5,145.5 Z"/></g>
<g><path style="opacity:1" fill="#e42574" d="M 224.5,173.5 C 220.91,183.028 217.577,192.694 214.5,202.5C 204.386,203.19 195.886,199.856 189,192.5C 188.517,191.552 188.351,190.552 188.5,189.5C 189.167,189.5 189.5,189.167 189.5,188.5C 192.333,187.759 195.666,186.093 199.5,183.5C 199.833,184.833 200.167,184.833 200.5,183.5C 201.643,183.207 202.977,183.207 204.5,183.5C 205.336,181.06 207.003,179.727 209.5,179.5C 209.833,179.5 210.167,179.5 210.5,179.5C 211.71,179.068 212.71,178.401 213.5,177.5C 216.752,175.224 220.419,173.89 224.5,173.5 Z"/></g>
<g><path style="opacity:0.52" fill="#1a0b0f" d="M 72.5,168.5 C 78.59,175.648 84.9234,182.648 91.5,189.5C 108.218,208.375 128.552,221.875 152.5,230C 160.049,231.971 167.716,233.138 175.5,233.5C 180.791,234.701 186.291,235.367 192,235.5C 201.508,234.766 211.008,233.933 220.5,233C 231.352,230.604 242.018,227.604 252.5,224C 253.942,223.623 254.942,222.79 255.5,221.5C 267.984,216.588 279.651,210.088 290.5,202C 289.231,202.109 288.231,201.942 287.5,201.5C 303.99,190.761 304.656,192.261 289.5,206C 246.317,237.267 198.984,245.601 147.5,231C 115.289,218.606 90.2892,197.773 72.5,168.5 Z"/></g>
<g><path style="opacity:1" fill="#d83683" d="M 233.5,161.5 C 235.843,164.261 237.343,167.927 238,172.5C 240.109,173.035 240.609,174.035 239.5,175.5C 241.348,179.016 243.015,182.183 244.5,185C 244.307,186.645 244.14,188.479 244,190.5C 239.437,194.06 234.604,197.227 229.5,200C 226.262,201.368 222.928,201.701 219.5,201C 219.043,200.586 218.709,200.086 218.5,199.5C 221.483,191.884 224.15,184.217 226.5,176.5C 227.931,175.22 228.598,173.553 228.5,171.5C 229.052,167.965 230.218,164.632 232,161.5C 232.69,160.262 233.19,160.262 233.5,161.5 Z"/></g>
<g><path style="opacity:1" fill="#e81067" d="M 232.5,166.5 C 233.376,166.369 234.043,166.702 234.5,167.5C 235.484,172.21 237.317,176.543 240,180.5C 241.149,183.393 241.649,186.393 241.5,189.5C 238.538,189.117 237.538,190.117 238.5,192.5C 235.789,194.332 233.122,196.165 230.5,198C 228.5,198.5 226.5,199 224.5,199.5C 223.09,199.132 222.09,198.299 221.5,197C 224.198,191.891 226.698,186.724 229,181.5C 229.116,176.175 230.283,171.175 232.5,166.5 Z"/></g>
<g><path style="opacity:0.976" fill="#d60759" d="M 360.5,198.5 C 377.765,196.084 392.098,201.251 403.5,214C 400.538,218.75 397.205,223.25 393.5,227.5C 380.867,218.413 367.534,217.246 353.5,224C 341.328,234.532 338.161,247.365 344,262.5C 353.578,278.137 367.078,282.637 384.5,276C 387.5,273.833 390.5,271.667 393.5,269.5C 396.824,272.994 399.991,276.661 403,280.5C 403.667,281.833 403.667,283.167 403,284.5C 389.609,298.559 373.442,303.059 354.5,298C 329.994,288.169 318.161,270.002 319,243.5C 323.292,219.51 337.125,204.51 360.5,198.5 Z"/></g>
<g><path style="opacity:0.959" fill="#d60759" d="M 420.5,200.5 C 428.257,199.757 431.923,203.257 431.5,211C 432.008,218.492 428.508,221.992 421,221.5C 418.036,221.117 415.37,220.117 413,218.5C 411.756,214.221 411.423,209.888 412,205.5C 414.398,202.892 417.231,201.225 420.5,200.5 Z"/></g>
<g><path style="opacity:1" fill="#d8266e" d="M 56.5,190.5 C 58.5,192.5 60.5,194.5 62.5,196.5C 75.5676,212.568 90.5676,226.568 107.5,238.5C 107.833,239.833 108.167,241.167 108.5,242.5C 107.711,242.783 107.044,243.283 106.5,244C 106.102,246.246 106.769,248.413 108.5,250.5C 114.865,254.381 121.532,257.548 128.5,260C 127.906,260.464 127.239,260.631 126.5,260.5C 99.0179,248.897 76.0179,231.23 57.5,207.5C 56.3339,221.822 56.1672,236.155 57,250.5C 57.139,253.445 58.3057,255.779 60.5,257.5C 62.7514,260.295 65.4181,262.628 68.5,264.5C 63.5277,265.001 59.8611,262.834 57.5,258C 56.5,257.667 55.5,257.333 54.5,257C 54.5894,248.984 54.5894,240.817 54.5,232.5C 54.3336,223.827 54.5002,215.16 55,206.5C 55.6667,205.833 56.3333,205.167 57,204.5C 57.7168,199.78 57.5502,195.114 56.5,190.5 Z"/></g>
<g><path style="opacity:1" fill="#d9226b" d="M 113.5,163.5 C 130.35,188.031 152.684,205.364 180.5,215.5C 179.584,215.982 178.584,216.315 177.5,216.5C 172.349,215.308 167.349,213.808 162.5,212C 161.833,211 161.167,210 160.5,209C 157.308,208.803 154.308,207.97 151.5,206.5C 148.709,209.518 145.543,211.852 142,213.5C 140.289,213.561 138.956,212.894 138,211.5C 137.667,212.167 137.333,212.833 137,213.5C 135.604,211.473 133.938,211.14 132,212.5C 131,211.833 130,211.167 129,210.5C 128.5,211.667 127.667,212.5 126.5,213C 127.536,214.617 128.703,214.784 130,213.5C 131.675,218.007 134.842,221.007 139.5,222.5C 140.719,221.737 141.719,220.737 142.5,219.5C 145.431,223.666 147.431,223.332 148.5,218.5C 149.386,219.325 149.719,220.325 149.5,221.5C 151.167,221.5 152.833,221.5 154.5,221.5C 154.202,218.664 154.869,218.164 156.5,220C 156.167,220.333 155.833,220.667 155.5,221C 157.645,221.743 157.811,222.576 156,223.5C 154.296,223.974 152.462,224.141 150.5,224C 151.5,225 152.5,226 153.5,227C 160.663,230.101 167.996,232.268 175.5,233.5C 167.716,233.138 160.049,231.971 152.5,230C 128.552,221.875 108.218,208.375 91.5,189.5C 95.3681,191.616 98.7015,194.449 101.5,198C 103,198.5 104.5,199 106,199.5C 107.722,199.389 107.888,198.889 106.5,198C 109.669,196.734 112.669,196.734 115.5,198C 112.671,198.048 110.337,199.048 108.5,201C 109.818,203.429 111.484,205.596 113.5,207.5C 114.583,206.635 114.749,205.635 114,204.5C 112.869,205.604 112.035,205.271 111.5,203.5C 113.341,202.77 115.175,202.103 117,201.5C 117.456,202.744 116.956,203.577 115.5,204C 116.609,204.638 117.775,205.138 119,205.5C 122.826,203.552 126.993,203.385 131.5,205C 133.283,209.467 135.449,209.634 138,205.5C 138.928,207.335 140.094,207.668 141.5,206.5C 143.516,210.376 144.349,210.376 144,206.5C 145.828,208.711 147.328,208.211 148.5,205C 148.389,203.278 147.889,203.112 147,204.5C 146.5,200.667 144.333,198.5 140.5,198C 137.87,193.213 133.87,190.046 128.5,188.5C 126.159,183.025 122.659,178.358 118,174.5C 116.962,170.759 115.129,167.426 112.5,164.5C 112.624,163.893 112.957,163.56 113.5,163.5 Z"/></g>
<g><path style="opacity:1" fill="#e9156b" d="M 180.5,215.5 C 188.18,217.637 195.846,219.303 203.5,220.5C 202.448,220.351 201.448,220.517 200.5,221C 200.833,221.333 201.167,221.667 201.5,222C 218.717,223.465 235.717,222.298 252.5,218.5C 253.5,218.667 254.5,218.833 255.5,219C 254.226,219.977 254.226,220.811 255.5,221.5C 254.942,222.79 253.942,223.623 252.5,224C 242.018,227.604 231.352,230.604 220.5,233C 211.008,233.933 201.508,234.766 192,235.5C 186.291,235.367 180.791,234.701 175.5,233.5C 167.996,232.268 160.663,230.101 153.5,227C 152.5,226 151.5,225 150.5,224C 152.462,224.141 154.296,223.974 156,223.5C 157.811,222.576 157.645,221.743 155.5,221C 155.833,220.667 156.167,220.333 156.5,220C 154.869,218.164 154.202,218.664 154.5,221.5C 152.833,221.5 151.167,221.5 149.5,221.5C 149.719,220.325 149.386,219.325 148.5,218.5C 147.431,223.332 145.431,223.666 142.5,219.5C 141.719,220.737 140.719,221.737 139.5,222.5C 134.842,221.007 131.675,218.007 130,213.5C 128.703,214.784 127.536,214.617 126.5,213C 127.667,212.5 128.5,211.667 129,210.5C 130,211.167 131,211.833 132,212.5C 133.938,211.14 135.604,211.473 137,213.5C 137.333,212.833 137.667,212.167 138,211.5C 138.956,212.894 140.289,213.561 142,213.5C 145.543,211.852 148.709,209.518 151.5,206.5C 154.308,207.97 157.308,208.803 160.5,209C 161.167,210 161.833,211 162.5,212C 167.349,213.808 172.349,215.308 177.5,216.5C 178.584,216.315 179.584,215.982 180.5,215.5 Z"/></g>
<g><path style="opacity:1" fill="#cc3781" d="M 287.5,201.5 C 288.231,201.942 289.231,202.109 290.5,202C 279.651,210.088 267.984,216.588 255.5,221.5C 254.226,220.811 254.226,219.977 255.5,219C 254.5,218.833 253.5,218.667 252.5,218.5C 235.717,222.298 218.717,223.465 201.5,222C 201.167,221.667 200.833,221.333 200.5,221C 201.448,220.517 202.448,220.351 203.5,220.5C 228.574,222.367 252.574,218.2 275.5,208C 279.158,205.169 283.158,203.002 287.5,201.5 Z"/></g>
<g><path style="opacity:0.959" fill="#d60759" d="M 472.5,227.5 C 486.375,226.073 497.541,230.74 506,241.5C 508.133,245.232 509.466,249.232 510,253.5C 510.5,268.83 510.667,284.163 510.5,299.5C 503.833,299.5 497.167,299.5 490.5,299.5C 490.896,284.456 490.396,269.456 489,254.5C 486.988,248.829 482.988,245.829 477,245.5C 471.506,245.914 467.506,248.581 465,253.5C 463.582,268.784 463.082,284.117 463.5,299.5C 456.5,299.5 449.5,299.5 442.5,299.5C 442.5,275.833 442.5,252.167 442.5,228.5C 448.5,228.5 454.5,228.5 460.5,228.5C 460.281,229.675 460.614,230.675 461.5,231.5C 465.139,229.735 468.806,228.401 472.5,227.5 Z"/></g>
<g><path style="opacity:0.97" fill="#d60759" d="M 624.5,227.5 C 634.775,226.602 643.609,229.602 651,236.5C 656.424,230.517 663.258,227.517 671.5,227.5C 689.651,227.162 700.485,235.828 704,253.5C 704.5,268.83 704.667,284.163 704.5,299.5C 697.833,299.5 691.167,299.5 684.5,299.5C 684.879,284.127 684.379,268.794 683,253.5C 681.126,248.394 677.459,245.727 672,245.5C 665.667,246.5 662,250.167 661,256.5C 660.5,270.829 660.333,285.163 660.5,299.5C 653.833,299.5 647.167,299.5 640.5,299.5C 640.92,283.784 640.42,268.117 639,252.5C 634.488,245.798 628.655,244.298 621.5,248C 619.513,249.319 618.346,251.152 618,253.5C 617.5,268.83 617.333,284.163 617.5,299.5C 610.5,299.5 603.5,299.5 596.5,299.5C 596.5,275.833 596.5,252.167 596.5,228.5C 603.053,227.932 609.387,228.599 615.5,230.5C 618.582,229.365 621.582,228.365 624.5,227.5 Z"/></g>
<g><path style="opacity:0.971" fill="#d60759" d="M 742.5,227.5 C 756.587,228.523 770.587,230.19 784.5,232.5C 784.5,254.833 784.5,277.167 784.5,299.5C 777.833,299.5 771.167,299.5 764.5,299.5C 764.662,297.473 764.495,295.473 764,293.5C 748.313,303.731 733.646,302.398 720,289.5C 709.432,273.937 708.765,257.937 718,241.5C 724.564,233.808 732.73,229.141 742.5,227.5 Z M 744.5,246.5 C 757.14,245.805 763.807,251.805 764.5,264.5C 763.671,274.827 758.171,280.827 748,282.5C 739.909,281.743 734.909,277.41 733,269.5C 730.521,258.457 734.354,250.79 744.5,246.5 Z"/></g>
<g><path style="opacity:0.969" fill="#d50759" d="M 411.5,228.5 C 418.167,228.5 424.833,228.5 431.5,228.5C 431.5,252.167 431.5,275.833 431.5,299.5C 424.833,299.5 418.167,299.5 411.5,299.5C 411.5,275.833 411.5,252.167 411.5,228.5 Z"/></g>
<g><path style="opacity:0.966" fill="#d60759" d="M 549.5,227.5 C 567.215,226.932 579.048,234.932 585,251.5C 586.704,257.722 587.537,264.055 587.5,270.5C 571.163,270.333 554.83,270.5 538.5,271C 542.926,281.379 550.593,285.046 561.5,282C 564.656,280.328 567.656,278.495 570.5,276.5C 576.063,277.389 581.397,278.889 586.5,281C 576.488,297.903 561.821,303.903 542.5,299C 521.841,290.183 514.007,274.683 519,252.5C 524.608,238.374 534.775,230.041 549.5,227.5 Z M 552.5,243.5 C 559.958,244.399 564.958,248.399 567.5,255.5C 557.851,256.665 548.184,256.832 538.5,256C 540.897,249.093 545.564,244.927 552.5,243.5 Z"/></g>
<g><path style="opacity:0.538" fill="#18090c" d="M 126.5,260.5 C 126.5,261.167 126.5,261.833 126.5,262.5C 124.097,262.552 121.764,262.219 119.5,261.5C 96.227,249.923 76.3937,233.923 60,213.5C 59.1301,214.108 58.6301,214.941 58.5,216C 59.785,223.377 59.785,230.71 58.5,238C 59.2247,244.466 59.8914,250.966 60.5,257.5C 58.3057,255.779 57.139,253.445 57,250.5C 56.1672,236.155 56.3339,221.822 57.5,207.5C 76.0179,231.23 99.0179,248.897 126.5,260.5 Z"/></g>
<g><path style="opacity:1" fill="#d04388" d="M 107.5,238.5 C 146.962,262.63 189.295,268.797 234.5,257C 246.137,253.351 257.471,248.851 268.5,243.5C 269.805,252.27 270.472,261.27 270.5,270.5C 270.5,279.34 270.166,288.007 269.5,296.5C 269.5,279.5 269.5,262.5 269.5,245.5C 261.842,247.827 254.509,250.993 247.5,255C 233.781,258.531 220.281,262.031 207,265.5C 181.305,267.056 156.471,263.39 132.5,254.5C 131.558,254.608 130.725,254.941 130,255.5C 123.584,251.358 117.417,246.858 111.5,242C 110.423,241.53 109.423,241.697 108.5,242.5C 108.167,241.167 107.833,239.833 107.5,238.5 Z"/></g>
<g><path style="opacity:1" fill="#e61368" d="M 17.5,188.5 C 17.8637,197.749 18.8637,206.916 20.5,216C 19.626,217.727 19.7926,219.56 21,221.5C 21.3333,218.833 21.6667,216.167 22,213.5C 22.3768,212.058 23.2101,211.058 24.5,210.5C 25.1223,208.665 26.4556,207.498 28.5,207C 36.0374,205.609 43.0374,206.609 49.5,210C 48.1879,217.109 48.1879,224.276 49.5,231.5C 50.2868,230.758 50.9535,229.925 51.5,229C 50.4238,227.274 50.2571,225.441 51,223.5C 52.0217,224.354 52.8551,225.354 53.5,226.5C 52.1688,228.823 52.5021,230.823 54.5,232.5C 54.5894,240.817 54.5894,248.984 54.5,257C 55.5,257.333 56.5,257.667 57.5,258C 59.8611,262.834 63.5277,265.001 68.5,264.5C 68.9175,265.222 69.5842,265.722 70.5,266C 74.6667,266.167 78.8333,266.333 83,266.5C 97.8327,265.618 112.333,264.285 126.5,262.5C 126.5,261.833 126.5,261.167 126.5,260.5C 127.239,260.631 127.906,260.464 128.5,260C 121.532,257.548 114.865,254.381 108.5,250.5C 106.769,248.413 106.102,246.246 106.5,244C 107.044,243.283 107.711,242.783 108.5,242.5C 109.423,241.697 110.423,241.53 111.5,242C 117.417,246.858 123.584,251.358 130,255.5C 130.725,254.941 131.558,254.608 132.5,254.5C 156.471,263.39 181.305,267.056 207,265.5C 220.281,262.031 233.781,258.531 247.5,255C 254.509,250.993 261.842,247.827 269.5,245.5C 269.5,262.5 269.5,279.5 269.5,296.5C 268.833,296.5 268.5,296.833 268.5,297.5C 255.518,298.865 242.518,299.699 229.5,300C 229.619,295.712 229.619,291.212 229.5,286.5C 229.276,282.438 227.276,279.605 223.5,278C 218.917,276.927 214.251,276.427 209.5,276.5C 161.511,279.545 113.511,282.378 65.5,285C 57.0487,292.808 53.7153,302.641 55.5,314.5C 42.7824,314.32 30.1157,314.987 17.5,316.5C 17.5,273.833 17.5,231.167 17.5,188.5 Z M 43.5,235.5 C 38.2743,236.888 32.941,237.221 27.5,236.5C 27.0133,235.527 26.5133,234.527 26,233.5C 25.3333,227.167 25.3333,220.833 26,214.5C 26.5,213.333 27.3333,212.5 28.5,212C 33.5,211.333 38.5,211.333 43.5,212C 44,212.5 44.5,213 45,213.5C 45.6667,219.833 45.6667,226.167 45,232.5C 44.4867,233.527 43.9867,234.527 43.5,235.5 Z M 43.5,299.5 C 37.775,300.601 32.1083,300.601 26.5,299.5C 25.4069,292.55 25.2402,285.55 26,278.5C 26.3742,277.584 26.8742,276.75 27.5,276C 32.7455,274.494 38.0788,274.161 43.5,275C 44,275.5 44.5,276 45,276.5C 46.0184,284.333 45.5184,292 43.5,299.5 Z M 261.5,279.5 C 260.636,280.688 259.636,281.855 258.5,283C 253.246,284.271 247.913,284.771 242.5,284.5C 239.928,278.972 239.928,273.472 242.5,268C 248.095,264.97 253.929,263.803 260,264.5C 261.388,269.372 261.888,274.372 261.5,279.5 Z"/></g>
<g><path style="opacity:0.439" fill="#150c0b" d="M 43.5,235.5 C 43.9867,234.527 44.4867,233.527 45,232.5C 45.6667,226.167 45.6667,219.833 45,213.5C 44.5,213 44,212.5 43.5,212C 38.5,211.333 33.5,211.333 28.5,212C 27.3333,212.5 26.5,213.333 26,214.5C 25.3333,220.833 25.3333,227.167 26,233.5C 26.5133,234.527 27.0133,235.527 27.5,236.5C 25.5891,236.426 24.4224,235.426 24,233.5C 23.2332,225.785 23.3999,218.118 24.5,210.5C 30.6259,208.47 36.9593,207.97 43.5,209C 45.3203,209.979 46.487,211.479 47,213.5C 47.6667,219.833 47.6667,226.167 47,232.5C 46.5776,234.426 45.4109,235.426 43.5,235.5 Z"/></g>
<g><path style="opacity:1" fill="#53142e" d="M 268.5,243.5 C 269.833,243.5 271.167,243.5 272.5,243.5C 273.648,248.517 273.648,253.517 272.5,258.5C 271.505,271.323 271.171,284.323 271.5,297.5C 270.5,297.5 269.5,297.5 268.5,297.5C 268.5,296.833 268.833,296.5 269.5,296.5C 270.166,288.007 270.5,279.34 270.5,270.5C 270.472,261.27 269.805,252.27 268.5,243.5 Z"/></g>
<g><path style="opacity:0.501" fill="#120709" d="M 14.5,151.5 C 15.1667,206.833 15.8333,262.167 16.5,317.5C 29.8578,317.131 43.1911,316.298 56.5,315C 57.2319,309.22 57.8986,303.387 58.5,297.5C 60.437,295.208 62.1037,292.708 63.5,290C 65.3921,289.027 67.3921,288.36 69.5,288C 91.3283,285.081 113.162,283.914 135,284.5C 140.005,282.951 145.171,282.118 150.5,282C 171.996,280.413 193.496,278.913 215,277.5C 221.52,277.865 226.353,280.865 229.5,286.5C 229.619,291.212 229.619,295.712 229.5,300C 242.518,299.699 255.518,298.865 268.5,297.5C 269.5,297.5 270.5,297.5 271.5,297.5C 271.171,284.323 271.505,271.323 272.5,258.5C 273.281,268.719 273.614,279.053 273.5,289.5C 273.393,292.567 272.893,295.567 272,298.5C 271.25,299.126 270.416,299.626 269.5,300C 256.214,301.929 242.881,302.929 229.5,303C 229.071,297.035 227.904,291.202 226,285.5C 224.025,284.522 222.358,283.189 221,281.5C 218.876,280.937 216.709,280.604 214.5,280.5C 166.112,284.03 118.112,287.197 70.5,290C 64.9768,292.006 61.4768,295.84 60,301.5C 59.6667,306.167 59.3333,310.833 59,315.5C 58.0975,316.701 56.9308,317.535 55.5,318C 41.8374,318.5 28.1707,318.667 14.5,318.5C 14.5,262.833 14.5,207.167 14.5,151.5 Z M 43.5,299.5 C 37.775,300.601 32.1083,300.601 26.5,299.5C 25.4069,292.55 25.2402,285.55 26,278.5C 26.3742,277.584 26.8742,276.75 27.5,276C 32.7455,274.494 38.0788,274.161 43.5,275C 44,275.5 44.5,276 45,276.5C 46.0184,284.333 45.5184,292 43.5,299.5 Z M 261.5,279.5 C 260.636,280.688 259.636,281.855 258.5,283C 253.246,284.271 247.913,284.771 242.5,284.5C 239.928,278.972 239.928,273.472 242.5,268C 248.095,264.97 253.929,263.803 260,264.5C 261.388,269.372 261.888,274.372 261.5,279.5 Z"/></g>
<g><path style="opacity:0.53" fill="#0f0907" d="M 43.5,299.5 C 45.5184,292 46.0184,284.333 45,276.5C 44.5,276 44,275.5 43.5,275C 38.0788,274.161 32.7455,274.494 27.5,276C 26.8742,276.75 26.3742,277.584 26,278.5C 25.2402,285.55 25.4069,292.55 26.5,299.5C 25.2502,299.423 24.4169,298.756 24,297.5C 23.0687,289.728 23.4021,282.061 25,274.5C 25.5,274 26,273.5 26.5,273C 31.3569,272.693 36.1902,272.193 41,271.5C 43.151,271.643 44.8176,272.643 46,274.5C 46.6667,282.167 46.6667,289.833 46,297.5C 45.2917,298.381 44.4584,299.047 43.5,299.5 Z"/></g>
<g><path style="opacity:1" fill="#d43e85" d="M 119.5,261.5 C 121.764,262.219 124.097,262.552 126.5,262.5C 112.333,264.285 97.8327,265.618 83,266.5C 78.8333,266.333 74.6667,266.167 70.5,266C 69.5842,265.722 68.9175,265.222 68.5,264.5C 85.5149,263.721 102.515,262.721 119.5,261.5 Z"/></g>
<g><path style="opacity:0.499" fill="#130b0b" d="M 261.5,279.5 C 261.888,274.372 261.388,269.372 260,264.5C 253.929,263.803 248.095,264.97 242.5,268C 239.928,273.472 239.928,278.972 242.5,284.5C 240.224,284.244 239.057,282.91 239,280.5C 238.501,275.845 238.334,271.179 238.5,266.5C 239.5,266.167 240.167,265.5 240.5,264.5C 246,263.457 251.333,261.79 256.5,259.5C 259.115,259.856 260.948,261.189 262,263.5C 262.817,269.016 262.651,274.35 261.5,279.5 Z"/></g>
<g><path style="opacity:1" fill="#d8448f" d="M 238.5,266.5 C 238.334,271.179 238.501,275.845 239,280.5C 239.057,282.91 240.224,284.244 242.5,284.5C 247.913,284.771 253.246,284.271 258.5,283C 259.636,281.855 260.636,280.688 261.5,279.5C 262.651,274.35 262.817,269.016 262,263.5C 260.948,261.189 259.115,259.856 256.5,259.5C 251.333,261.79 246,263.457 240.5,264.5C 244.075,262.531 248.409,260.698 253.5,259C 257.672,257.709 260.839,258.876 263,262.5C 263.667,269.167 263.667,275.833 263,282.5C 261.2,284.317 259.034,285.484 256.5,286C 251.167,286.667 245.833,286.667 240.5,286C 239.299,285.097 238.465,283.931 238,282.5C 237.187,276.41 237.354,271.076 238.5,266.5 Z"/></g>
<g><path style="opacity:1" fill="#dc3a8a" d="M 16.5,177.5 C 17.4816,180.962 17.815,184.629 17.5,188.5C 17.5,231.167 17.5,273.833 17.5,316.5C 30.1157,314.987 42.7824,314.32 55.5,314.5C 53.7153,302.641 57.0487,292.808 65.5,285C 113.511,282.378 161.511,279.545 209.5,276.5C 214.251,276.427 218.917,276.927 223.5,278C 227.276,279.605 229.276,282.438 229.5,286.5C 226.353,280.865 221.52,277.865 215,277.5C 193.496,278.913 171.996,280.413 150.5,282C 145.171,282.118 140.005,282.951 135,284.5C 113.162,283.914 91.3283,285.081 69.5,288C 67.3921,288.36 65.3921,289.027 63.5,290C 62.1037,292.708 60.437,295.208 58.5,297.5C 57.8986,303.387 57.2319,309.22 56.5,315C 43.1911,316.298 29.8578,317.131 16.5,317.5C 16.5,270.833 16.5,224.167 16.5,177.5 Z"/></g>
</svg>
