<?xml version="1.0" encoding="UTF-8"?>
<!DOCTYPE svg PUBLIC "-//W3C//DTD SVG 1.1//EN" "http://www.w3.org/Graphics/SVG/1.1/DTD/svg11.dtd">
<svg xmlns="http://www.w3.org/2000/svg" version="1.1" width="717px" height="218px" style="shape-rendering:geometricPrecision; text-rendering:geometricPrecision; image-rendering:optimizeQuality; fill-rule:evenodd; clip-rule:evenodd" xmlns:xlink="http://www.w3.org/1999/xlink">
<g><path style="opacity:1" fill="#02b1fc" d="M 120.5,0.5 C 139.102,2.13903 155.768,8.47237 170.5,19.5C 170.062,19.4346 169.728,19.6012 169.5,20C 178.796,26.9623 187.13,34.9623 194.5,44C 195.094,44.4643 195.761,44.631 196.5,44.5C 197.401,45.2905 198.068,46.2905 198.5,47.5C 198.328,48.4916 198.662,49.1583 199.5,49.5C 218.487,81.2373 221.654,114.571 209,149.5C 207.402,153.711 205.068,157.378 202,160.5C 200.589,162.65 199.755,164.984 199.5,167.5C 181.104,196.218 154.771,212.551 120.5,216.5C 116.154,216.666 111.821,216.499 107.5,216C 109.148,213.517 111.315,211.684 114,210.5C 130.361,191.133 147.195,172.133 164.5,153.5C 165.167,153.5 165.5,153.167 165.5,152.5C 165.5,138.167 165.5,123.833 165.5,109.5C 160.637,109.181 155.97,109.514 151.5,110.5C 150.532,112.607 150.198,114.941 150.5,117.5C 149.71,116.391 149.21,115.058 149,113.5C 141.597,121.397 134.431,129.397 127.5,137.5C 118.494,137.666 109.494,137.5 100.5,137C 103.219,134.341 105.552,131.508 107.5,128.5C 120.579,115.782 133.245,102.449 145.5,88.5C 139.346,87.8332 133.346,87.1666 127.5,86.5C 134.175,86.6663 140.842,86.4996 147.5,86C 141.509,85.5005 135.509,85.3338 129.5,85.5C 129.829,71.9895 129.496,58.6562 128.5,45.5C 116.322,45.1716 104.322,45.5049 92.5,46.5C 90.8333,46.5 89.1667,46.5 87.5,46.5C 87.5,47.5 87.5,48.5 87.5,49.5C 87.5,49.8333 87.5,50.1667 87.5,50.5C 61.5508,78.9591 36.0508,107.959 11,137.5C 9.36213,139.734 7.19547,141.067 4.5,141.5C 2.55804,134.108 0.891378,126.775 -0.5,119.5C -0.5,112.167 -0.5,104.833 -0.5,97.5C 0.403972,96.791 0.737305,95.791 0.5,94.5C 1.11742,94.3893 1.61742,94.056 2,93.5C 9.28929,52.3626 32.1226,23.8626 70.5,8C 86.9124,2.86846 103.579,0.368464 120.5,0.5 Z"/></g>
<g><path style="opacity:1" fill="#15a7d7" d="M 98.5,-0.5 C 105.167,-0.5 111.833,-0.5 118.5,-0.5C 118.842,0.338246 119.508,0.67158 120.5,0.5C 103.579,0.368464 86.9124,2.86846 70.5,8C 32.1226,23.8626 9.28929,52.3626 2,93.5C 1.61742,94.056 1.11742,94.3893 0.5,94.5C 10.9047,39.7607 43.5713,8.09399 98.5,-0.5 Z"/></g>
<g><path style="opacity:1" fill="#1a9dcb" d="M 170.5,19.5 C 181.099,25.7647 189.766,34.0981 196.5,44.5C 195.761,44.631 195.094,44.4643 194.5,44C 187.13,34.9623 178.796,26.9623 169.5,20C 169.728,19.6012 170.062,19.4346 170.5,19.5 Z"/></g>
<g><path style="opacity:1" fill="#0066aa" d="M 92.5,46.5 C 104.345,46.1717 116.012,46.5051 127.5,47.5C 114.124,46.8524 101.124,47.5191 88.5,49.5C 88.1667,49.5 87.8333,49.5 87.5,49.5C 87.5,48.5 87.5,47.5 87.5,46.5C 89.1667,46.5 90.8333,46.5 92.5,46.5 Z"/></g>
<g><path style="opacity:1" fill="#fefefe" d="M 127.5,47.5 C 127.5,60.1667 127.5,72.8333 127.5,85.5C 127.5,85.8333 127.5,86.1667 127.5,86.5C 133.346,87.1666 139.346,87.8332 145.5,88.5C 133.245,102.449 120.579,115.782 107.5,128.5C 95.9021,114.566 83.5688,101.232 70.5,88.5C 75.9753,87.5111 81.642,87.1778 87.5,87.5C 88.4954,75.011 88.8287,62.3443 88.5,49.5C 101.124,47.5191 114.124,46.8524 127.5,47.5 Z"/></g>
<g><path style="opacity:1" fill="#0085c5" d="M 198.5,47.5 C 369.834,47.3333 541.167,47.5 712.5,48C 713.705,49.3756 715.038,50.5423 716.5,51.5C 716.5,86.5 716.5,121.5 716.5,156.5C 715.942,158.593 714.609,160.093 712.5,161C 543.167,161.5 373.834,161.667 204.5,161.5C 208.73,160.78 213.063,160.113 217.5,159.5C 382.5,159.667 547.5,159.5 712.5,159C 713.126,158.25 713.626,157.416 714,156.5C 714.667,121.833 714.667,87.1667 714,52.5C 713.626,51.5838 713.126,50.7504 712.5,50C 545.834,49.5 379.167,49.3333 212.5,49.5C 208.167,48.1667 203.833,48.1667 199.5,49.5C 198.662,49.1583 198.328,48.4916 198.5,47.5 Z"/></g>
<g><path style="opacity:1" fill="#08aff8" d="M 212.5,49.5 C 379.167,49.3333 545.834,49.5 712.5,50C 713.126,50.7504 713.626,51.5838 714,52.5C 714.667,87.1667 714.667,121.833 714,156.5C 713.626,157.416 713.126,158.25 712.5,159C 547.5,159.5 382.5,159.667 217.5,159.5C 236.178,121.747 234.512,85.0799 212.5,49.5 Z"/></g>
<g><path style="opacity:1" fill="#1085c1" d="M 251.5,70.5 C 257.987,69.346 264.654,69.1794 271.5,70C 273.949,70.7246 276.283,71.7246 278.5,73C 279.823,73.8159 280.489,74.9826 280.5,76.5C 277.613,73.9483 274.28,72.2816 270.5,71.5C 264.355,70.5098 258.022,70.1765 251.5,70.5 Z"/></g>
<g><path style="opacity:1" fill="#fbfefe" d="M 297.5,70.5 C 301.915,70.3054 306.249,70.8054 310.5,72C 313.023,73.3597 315.023,75.193 316.5,77.5C 317.148,79.0858 317.648,80.7525 318,82.5C 318.787,98.1985 318.62,113.865 317.5,129.5C 314.981,134.692 310.981,138.026 305.5,139.5C 295.748,140.71 289.248,136.71 286,127.5C 285.333,111.833 285.333,96.1667 286,80.5C 287.274,77.0641 289.441,74.3974 292.5,72.5C 294.306,71.9759 295.972,71.3092 297.5,70.5 Z"/></g>
<g><path style="opacity:1" fill="#fdfefe" d="M 474.5,82.5 C 474.772,98.5284 474.439,114.528 473.5,130.5C 467.123,139.675 458.79,141.841 448.5,137C 445.193,134.222 443.026,130.722 442,126.5C 441.333,111.5 441.333,96.5 442,81.5C 443.316,76.3516 446.483,73.0182 451.5,71.5C 462.8,68.1326 470.467,71.7993 474.5,82.5 Z"/></g>
<g><path style="opacity:1" fill="#f9fdfe" d="M 631.5,73.5 C 633.424,75.695 635.091,78.0283 636.5,80.5C 638.111,97.2294 637.777,113.896 635.5,130.5C 629.09,139.354 620.756,141.521 610.5,137C 607.894,135.062 606.061,132.562 605,129.5C 603.397,113.888 603.063,98.2209 604,82.5C 605.535,78.0727 608.035,74.406 611.5,71.5C 618.461,69.7082 625.128,70.3748 631.5,73.5 Z"/></g>
<g><path style="opacity:1" fill="#0976ad" d="M 631.5,73.5 C 625.128,70.3748 618.461,69.7082 611.5,71.5C 611.918,70.7784 612.584,70.2784 613.5,70C 618.167,69.3333 622.833,69.3333 627.5,70C 629.544,70.4983 630.878,71.665 631.5,73.5 Z"/></g>
<g><path style="opacity:1" fill="#45c5fb" d="M 92.5,46.5 C 104.322,45.5049 116.322,45.1716 128.5,45.5C 128.829,59.0105 128.496,72.3438 127.5,85.5C 127.5,72.8333 127.5,60.1667 127.5,47.5C 116.012,46.5051 104.345,46.1717 92.5,46.5 Z"/></g>
<g><path style="opacity:1" fill="#006ba2" d="M 128.5,45.5 C 129.496,58.6562 129.829,71.9895 129.5,85.5C 135.509,85.3338 141.509,85.5005 147.5,86C 140.842,86.4996 134.175,86.6663 127.5,86.5C 127.5,86.1667 127.5,85.8333 127.5,85.5C 128.496,72.3438 128.829,59.0105 128.5,45.5 Z"/></g>
<g><path style="opacity:1" fill="#fdfefe" d="M 270.5,71.5 C 274.28,72.2816 277.613,73.9483 280.5,76.5C 282.554,92.742 283.054,109.075 282,125.5C 281.337,131.316 278.504,135.649 273.5,138.5C 265.5,138.5 257.5,138.5 249.5,138.5C 249.5,116.167 249.5,93.8333 249.5,71.5C 256.5,71.5 263.5,71.5 270.5,71.5 Z"/></g>
<g><path style="opacity:1" fill="#fcfefe" d="M 355.5,91.5 C 355.789,98.1777 356.289,104.844 357,111.5C 357.499,107.179 357.666,102.846 357.5,98.5C 358.658,89.6522 359.658,80.6522 360.5,71.5C 365.294,70.9031 369.627,71.5698 373.5,73.5C 373.5,74.1667 373.5,74.8333 373.5,75.5C 372.003,84.3036 371.003,93.3036 370.5,102.5C 369.239,114.562 367.572,126.562 365.5,138.5C 360.167,138.5 354.833,138.5 349.5,138.5C 349.41,128.111 348.577,117.778 347,107.5C 345.361,117.795 344.194,128.128 343.5,138.5C 338.167,138.5 332.833,138.5 327.5,138.5C 325.45,119.802 323.117,101.136 320.5,82.5C 320.5,80.8333 320.5,79.1667 320.5,77.5C 320.5,75.5 320.5,73.5 320.5,71.5C 324.833,71.5 329.167,71.5 333.5,71.5C 334.335,84.8567 335.502,98.19 337,111.5C 338.12,98.1465 339.287,84.8132 340.5,71.5C 344.833,71.5 349.167,71.5 353.5,71.5C 353.818,78.3462 354.485,85.0128 355.5,91.5 Z"/></g>
<g><path style="opacity:1" fill="#189bd9" d="M 375.5,71.5 C 374.833,72.1667 374.167,72.8333 373.5,73.5C 369.627,71.5698 365.294,70.9031 360.5,71.5C 359.658,80.6522 358.658,89.6522 357.5,98.5C 356.833,96.1667 356.167,93.8333 355.5,91.5C 354.485,85.0128 353.818,78.3462 353.5,71.5C 349.167,71.5 344.833,71.5 340.5,71.5C 339.287,84.8132 338.12,98.1465 337,111.5C 335.502,98.19 334.335,84.8567 333.5,71.5C 329.167,71.5 324.833,71.5 320.5,71.5C 320.5,73.5 320.5,75.5 320.5,77.5C 319.71,78.6085 319.21,79.9419 319,81.5C 318.878,79.563 318.045,78.2297 316.5,77.5C 315.023,75.193 313.023,73.3597 310.5,72C 306.249,70.8054 301.915,70.3054 297.5,70.5C 300.593,69.4171 304.926,69.0838 310.5,69.5C 311.748,70.0402 312.915,70.7069 314,71.5C 314.673,68.4169 316.507,67.2503 319.5,68C 317.385,68.4244 316.552,69.5911 317,71.5C 317.5,71 318,70.5 318.5,70C 324.373,69.2321 330.206,69.3987 336,70.5C 337.092,69.7039 338.259,69.0372 339.5,68.5C 344.133,69.5526 348.799,69.7193 353.5,69C 351.833,68.6667 350.167,68.3333 348.5,68C 350.224,67.5518 350.891,66.7185 350.5,65.5C 351.524,66.8532 352.857,67.5198 354.5,67.5C 354.351,68.552 354.517,69.552 355,70.5C 355.674,69.4216 356.674,68.7549 358,68.5C 368.535,68.7329 379.035,69.2329 389.5,70C 384.649,70.1745 379.982,70.6745 375.5,71.5 Z"/></g>
<g><path style="opacity:1" fill="#fefefe" d="M 375.5,71.5 C 380.214,71.1734 384.88,71.5067 389.5,72.5C 391.646,80.418 393.479,88.418 395,96.5C 395.5,88.1733 395.666,79.84 395.5,71.5C 399.833,71.5 404.167,71.5 408.5,71.5C 408.5,93.8333 408.5,116.167 408.5,138.5C 403.52,139.015 398.854,138.348 394.5,136.5C 393.147,127.418 391.313,118.418 389,109.5C 388.506,111.134 388.34,112.801 388.5,114.5C 388.5,122.5 388.5,130.5 388.5,138.5C 383.968,138.818 379.634,138.485 375.5,137.5C 375.5,115.5 375.5,93.5 375.5,71.5 Z"/></g>
<g><path style="opacity:1" fill="#fafeff" d="M 440.5,127.5 C 440.5,131.167 440.5,134.833 440.5,138.5C 431.833,138.5 423.167,138.5 414.5,138.5C 412.511,116.525 411.844,94.1917 412.5,71.5C 417.167,71.5 421.833,71.5 426.5,71.5C 426.5,90.1667 426.5,108.833 426.5,127.5C 431.167,127.5 435.833,127.5 440.5,127.5 Z"/></g>
<g><path style="opacity:1" fill="#fbfefe" d="M 482.5,71.5 C 490.167,71.5 497.833,71.5 505.5,71.5C 505.198,74.0593 505.532,76.3926 506.5,78.5C 508.287,97.1523 509.953,115.819 511.5,134.5C 511.5,135.833 511.5,137.167 511.5,138.5C 507.5,138.5 503.5,138.5 499.5,138.5C 499.768,136.901 499.434,135.568 498.5,134.5C 498.5,132.167 498.5,129.833 498.5,127.5C 495.552,127.223 492.719,127.556 490,128.5C 489.502,131.817 489.335,135.15 489.5,138.5C 485.167,138.5 480.833,138.5 476.5,138.5C 476.986,128.487 477.653,118.487 478.5,108.5C 479.338,108.158 479.672,107.492 479.5,106.5C 480.224,94.8069 481.224,83.1402 482.5,71.5 Z"/></g>
<g><path style="opacity:1" fill="#fdfefe" d="M 547.5,85.5 C 547.667,98.5043 547.5,111.504 547,124.5C 546.65,131.049 543.483,135.549 537.5,138C 529.841,138.5 522.174,138.666 514.5,138.5C 514.5,116.167 514.5,93.8333 514.5,71.5C 522.507,71.3336 530.507,71.5003 538.5,72C 544.491,74.4273 547.491,78.9273 547.5,85.5 Z"/></g>
<g><path style="opacity:1" fill="#fbfefe" d="M 581.5,71.5 C 581.833,74.1667 582.167,76.8333 582.5,79.5C 582.328,80.4916 582.662,81.1583 583.5,81.5C 584.63,88.1726 585.797,94.8393 587,101.5C 587.497,99.1902 587.663,96.8568 587.5,94.5C 587.5,86.8333 587.5,79.1667 587.5,71.5C 591.833,71.5 596.167,71.5 600.5,71.5C 600.5,93.8333 600.5,116.167 600.5,138.5C 595.833,138.5 591.167,138.5 586.5,138.5C 586.135,131.493 584.801,124.826 582.5,118.5C 582.11,115.161 581.61,111.827 581,108.5C 580.5,118.161 580.334,127.828 580.5,137.5C 576.366,138.485 572.032,138.818 567.5,138.5C 567.5,116.167 567.5,93.8333 567.5,71.5C 572.167,71.5 576.833,71.5 581.5,71.5 Z"/></g>
<g><path style="opacity:1" fill="#fcfefe" d="M 654.5,98.5 C 654.334,102.846 654.501,107.179 655,111.5C 656.052,104.872 656.552,98.2057 656.5,91.5C 657.813,85.0408 658.479,78.3741 658.5,71.5C 662.833,71.5 667.167,71.5 671.5,71.5C 672.815,78.6295 673.482,85.9628 673.5,93.5C 673.216,95.4147 673.549,97.0813 674.5,98.5C 674.334,102.846 674.501,107.179 675,111.5C 676.593,98.1983 677.76,84.865 678.5,71.5C 682.833,71.5 687.167,71.5 691.5,71.5C 691.5,73.1667 691.5,74.8333 691.5,76.5C 690.746,81.4635 690.413,86.4635 690.5,91.5C 688.778,98.937 687.778,106.604 687.5,114.5C 686.74,122.526 685.74,130.526 684.5,138.5C 679.167,138.5 673.833,138.5 668.5,138.5C 668.348,132.301 667.682,126.301 666.5,120.5C 666.423,116.123 665.923,111.79 665,107.5C 664.502,110.817 664.335,114.15 664.5,117.5C 663.125,124.289 662.458,131.289 662.5,138.5C 656.833,138.5 651.167,138.5 645.5,138.5C 644.823,129.658 643.823,120.992 642.5,112.5C 642.097,105.138 641.43,97.8046 640.5,90.5C 640.737,89.209 640.404,88.209 639.5,87.5C 639.5,85.8333 639.5,84.1667 639.5,82.5C 639.577,78.7852 639.244,75.1185 638.5,71.5C 642.833,71.5 647.167,71.5 651.5,71.5C 652.45,80.6417 653.45,89.6417 654.5,98.5 Z"/></g>
<g><path style="opacity:1" fill="#1477ab" d="M 678.5,71.5 C 677.76,84.865 676.593,98.1983 675,111.5C 674.501,107.179 674.334,102.846 674.5,98.5C 675.46,89.1943 676.293,79.861 677,70.5C 681.748,69.3651 686.581,69.1985 691.5,70C 686.981,70.1753 682.647,70.6753 678.5,71.5 Z"/></g>
<g><path style="opacity:1" fill="#014e80" d="M 581.5,71.5 C 583.413,74.04 583.746,76.7067 582.5,79.5C 582.167,76.8333 581.833,74.1667 581.5,71.5 Z"/></g>
<g><path style="opacity:1" fill="#63ccf9" d="M 251.5,70.5 C 258.022,70.1765 264.355,70.5098 270.5,71.5C 263.5,71.5 256.5,71.5 249.5,71.5C 249.5,93.8333 249.5,116.167 249.5,138.5C 248.503,116.006 248.169,93.3395 248.5,70.5C 249.5,70.5 250.5,70.5 251.5,70.5 Z"/></g>
<g><path style="opacity:1" fill="#0a7bb6" d="M 513.5,138.5 C 512.833,137.167 512.167,135.833 511.5,134.5C 509.953,115.819 508.287,97.1523 506.5,78.5C 506.336,75.8127 506.503,73.146 507,70.5C 507.134,73.8723 507.968,77.039 509.5,80C 508.937,82.1245 508.604,84.2912 508.5,86.5C 509.864,99.8201 511.031,113.153 512,126.5C 512.333,108.167 512.667,89.8333 513,71.5C 513.5,93.8308 513.667,116.164 513.5,138.5 Z"/></g>
<g><path style="opacity:1" fill="#1871a2" d="M 587.5,94.5 C 587.663,96.8568 587.497,99.1902 587,101.5C 585.797,94.8393 584.63,88.1726 583.5,81.5C 584.341,80.9907 584.841,81.6573 585,83.5C 585.333,83.1667 585.667,82.8333 586,82.5C 586.176,86.6877 586.676,90.6877 587.5,94.5 Z"/></g>
<g><path style="opacity:1" fill="#07243e" d="M 87.5,49.5 C 87.8333,49.5 88.1667,49.5 88.5,49.5C 88.8287,62.3443 88.4954,75.011 87.5,87.5C 82.3491,86.6733 77.0158,86.1733 71.5,86C 76.8229,85.5006 82.1563,85.334 87.5,85.5C 87.5,73.8333 87.5,62.1667 87.5,50.5C 87.5,50.1667 87.5,49.8333 87.5,49.5 Z"/></g>
<g><path style="opacity:1" fill="#2088c1" d="M 690.5,91.5 C 690.413,86.4635 690.746,81.4635 691.5,76.5C 692.302,75.0484 692.802,73.3817 693,71.5C 693.167,73.1667 693.333,74.8333 693.5,76.5C 693.164,82.3393 692.164,87.3393 690.5,91.5 Z"/></g>
<g><path style="opacity:1" fill="#036ea7" d="M 636.5,80.5 C 637.29,81.6085 637.79,82.9419 638,84.5C 638.278,83.5842 638.778,82.9175 639.5,82.5C 639.5,84.1667 639.5,85.8333 639.5,87.5C 638.706,99.7883 638.206,112.122 638,124.5C 637.698,127.435 636.865,129.435 635.5,130.5C 637.777,113.896 638.111,97.2294 636.5,80.5 Z"/></g>
<g><path style="opacity:1" fill="#096faa" d="M 658.5,71.5 C 658.479,78.3741 657.813,85.0408 656.5,91.5C 656.133,84.5854 656.799,77.9188 658.5,71.5 Z"/></g>
<g><path style="opacity:1" fill="#2394cd" d="M 373.5,75.5 C 374.392,87.4739 374.725,99.4739 374.5,111.5C 373.672,105.347 373.172,99.0133 373,92.5C 372.005,97.4535 371.338,102.453 371,107.5C 370.506,105.866 370.34,104.199 370.5,102.5C 371.003,93.3036 372.003,84.3036 373.5,75.5 Z"/></g>
<g><path style="opacity:1" fill="#0a6fa5" d="M 482.5,71.5 C 481.224,83.1402 480.224,94.8069 479.5,106.5C 478.839,104.866 478.506,103.033 478.5,101C 479.35,90.8156 480.35,80.6489 481.5,70.5C 482.107,70.6236 482.44,70.9569 482.5,71.5 Z"/></g>
<g><path style="opacity:1" fill="#0177b4" d="M 673.5,93.5 C 673.482,85.9628 672.815,78.6295 671.5,71.5C 667.353,70.6753 663.019,70.1753 658.5,70C 663.419,69.1985 668.252,69.3651 673,70.5C 673.53,76.164 674.03,81.8307 674.5,87.5C 674.495,89.6965 674.162,91.6965 673.5,93.5 Z"/></g>
<g><path style="opacity:1" fill="#0286bf" d="M 212.5,49.5 C 234.512,85.0799 236.178,121.747 217.5,159.5C 213.063,160.113 208.73,160.78 204.5,161.5C 202.833,163.5 201.167,165.5 199.5,167.5C 199.755,164.984 200.589,162.65 202,160.5C 205.068,157.378 207.402,153.711 209,149.5C 221.654,114.571 218.487,81.2373 199.5,49.5C 203.833,48.1667 208.167,48.1667 212.5,49.5 Z"/></g>
<g><path style="opacity:1" fill="#117db4" d="M 451.5,71.5 C 446.483,73.0182 443.316,76.3516 442,81.5C 441.333,96.5 441.333,111.5 442,126.5C 443.026,130.722 445.193,134.222 448.5,137C 458.79,141.841 467.123,139.675 473.5,130.5C 471.065,137.656 465.899,140.989 458,140.5C 450.7,140.853 445.366,137.853 442,131.5C 441.502,134.482 441.335,137.482 441.5,140.5C 432.161,140.666 422.827,140.5 413.5,140C 414.056,139.617 414.389,139.117 414.5,138.5C 423.167,138.5 431.833,138.5 440.5,138.5C 440.5,134.833 440.5,131.167 440.5,127.5C 440.333,111.497 440.5,95.4965 441,79.5C 442.654,75.1795 445.654,72.1795 450,70.5C 450.765,70.5699 451.265,70.9033 451.5,71.5 Z"/></g>
<g><path style="opacity:1" fill="#06aff5" d="M 456.5,83.5 C 457.172,84.2674 458.005,84.9341 459,85.5C 459.667,98.5 459.667,111.5 459,124.5C 458.586,124.957 458.086,125.291 457.5,125.5C 456.719,124.271 456.219,122.938 456,121.5C 455.5,109.505 455.333,97.5046 455.5,85.5C 455.328,84.5084 455.662,83.8417 456.5,83.5 Z"/></g>
<g><path style="opacity:1" fill="#015f94" d="M 622.5,83.5 C 622.591,85.6977 621.925,86.0311 620.5,84.5C 619.883,84.6107 619.383,84.944 619,85.5C 618.333,98.5 618.333,111.5 619,124.5C 619.77,125.598 620.603,125.598 621.5,124.5C 621.5,125.167 621.5,125.833 621.5,126.5C 620.178,126.67 619.011,126.337 618,125.5C 617.333,111.833 617.333,98.1667 618,84.5C 619.356,83.6198 620.856,83.2865 622.5,83.5 Z"/></g>
<g><path style="opacity:1" fill="#0087c9" d="M 397.5,70.5 C 399.473,69.8373 401.639,69.5039 404,69.5C 406.7,69.3909 409.2,69.8909 411.5,71C 410.838,93.5978 410.172,116.098 409.5,138.5C 409.5,115.833 409.5,93.1667 409.5,70.5C 405.5,70.5 401.5,70.5 397.5,70.5 Z"/></g>
<g><path style="opacity:1" fill="#004070" d="M 268.5,124.5 C 267.669,111.673 267.169,98.6731 267,85.5C 265.989,84.6634 264.822,84.33 263.5,84.5C 263.5,98.1667 263.5,111.833 263.5,125.5C 264.791,125.263 265.791,125.596 266.5,126.5C 265.167,126.5 263.833,126.5 262.5,126.5C 262.5,112.167 262.5,97.8333 262.5,83.5C 264.467,83.2606 266.301,83.5939 268,84.5C 268.5,97.8292 268.667,111.163 268.5,124.5 Z"/></g>
<g><path style="opacity:1" fill="#0081bb" d="M 527.5,85.5 C 528.83,91.6307 529.497,98.1307 529.5,105C 529.491,111.744 529.158,118.411 528.5,125C 529.737,125.232 530.737,125.732 531.5,126.5C 530.167,126.5 528.833,126.5 527.5,126.5C 527.5,112.833 527.5,99.1667 527.5,85.5 Z"/></g>
<g><path style="opacity:1" fill="#15b5f6" d="M 268.5,124.5 C 268.167,125.5 267.5,126.167 266.5,126.5C 265.791,125.596 264.791,125.263 263.5,125.5C 263.5,111.833 263.5,98.1667 263.5,84.5C 264.822,84.33 265.989,84.6634 267,85.5C 267.169,98.6731 267.669,111.673 268.5,124.5 Z"/></g>
<g><path style="opacity:1" fill="#0baff5" d="M 300.5,126.5 C 299.883,126.389 299.383,126.056 299,125.5C 298.505,123.527 298.338,121.527 298.5,119.5C 299.331,108.341 299.831,97.0074 300,85.5C 301,84.1667 302,84.1667 303,85.5C 303.667,98.5 303.667,111.5 303,124.5C 302.005,125.066 301.172,125.733 300.5,126.5 Z"/></g>
<g><path style="opacity:1" fill="#47abd6" d="M 395.5,71.5 C 395.842,70.6618 396.508,70.3284 397.5,70.5C 401.5,70.5 405.5,70.5 409.5,70.5C 409.5,93.1667 409.5,115.833 409.5,138.5C 409.167,138.5 408.833,138.5 408.5,138.5C 408.5,116.167 408.5,93.8333 408.5,71.5C 404.167,71.5 399.833,71.5 395.5,71.5 Z"/></g>
<g><path style="opacity:1" fill="#1d5e86" d="M 656.5,91.5 C 656.552,98.2057 656.052,104.872 655,111.5C 654.501,107.179 654.334,102.846 654.5,98.5C 654.927,95.9902 655.593,93.6568 656.5,91.5 Z"/></g>
<g><path style="opacity:1" fill="#2683b4" d="M 456.5,83.5 C 458.144,83.2865 459.644,83.6198 461,84.5C 461.667,97.1667 461.667,109.833 461,122.5C 460.693,125.876 458.86,127.21 455.5,126.5C 454.212,112.693 454.212,99.0264 455.5,85.5C 455.333,97.5046 455.5,109.505 456,121.5C 456.219,122.938 456.719,124.271 457.5,125.5C 458.086,125.291 458.586,124.957 459,124.5C 459.667,111.5 459.667,98.5 459,85.5C 458.005,84.9341 457.172,84.2674 456.5,83.5 Z"/></g>
<g><path style="opacity:1" fill="#006397" d="M 316.5,77.5 C 318.045,78.2297 318.878,79.563 319,81.5C 319.21,79.9419 319.71,78.6085 320.5,77.5C 320.5,79.1667 320.5,80.8333 320.5,82.5C 319.669,97.3277 319.169,112.328 319,127.5C 318.722,128.416 318.222,129.082 317.5,129.5C 318.62,113.865 318.787,98.1985 318,82.5C 317.648,80.7525 317.148,79.0858 316.5,77.5 Z"/></g>
<g><path style="opacity:1" fill="#0e2741" d="M 355.5,91.5 C 356.167,93.8333 356.833,96.1667 357.5,98.5C 357.666,102.846 357.499,107.179 357,111.5C 356.289,104.844 355.789,98.1777 355.5,91.5 Z"/></g>
<g><path style="opacity:1" fill="#16b9fb" d="M 527.5,85.5 C 527.5,85.1667 527.5,84.8333 527.5,84.5C 529.144,84.2865 530.644,84.6198 532,85.5C 532.169,98.6731 532.669,111.673 533.5,124.5C 533.167,125.5 532.5,126.167 531.5,126.5C 530.737,125.732 529.737,125.232 528.5,125C 529.158,118.411 529.491,111.744 529.5,105C 529.497,98.1307 528.83,91.6307 527.5,85.5 Z"/></g>
<g><path style="opacity:1" fill="#1c8ec7" d="M 292.5,72.5 C 289.441,74.3974 287.274,77.0641 286,80.5C 285.333,96.1667 285.333,111.833 286,127.5C 289.248,136.71 295.748,140.71 305.5,139.5C 303.283,140.638 300.283,140.805 296.5,140C 293.049,138.704 289.715,137.204 286.5,135.5C 284.287,138.08 282.12,138.08 280,135.5C 278.13,137.219 275.963,138.219 273.5,138.5C 278.504,135.649 281.337,131.316 282,125.5C 283.054,109.075 282.554,92.742 280.5,76.5C 281.87,76.8565 282.87,77.6898 283.5,79C 282.548,80.3004 282.548,81.467 283.5,82.5C 284.468,78.1053 286.802,74.6053 290.5,72C 291.437,71.3083 292.103,71.475 292.5,72.5 Z"/></g>
<g><path style="opacity:1" fill="#02457b" d="M 527.5,84.5 C 529.265,83.5386 531.265,83.2053 533.5,83.5C 533.5,97.1667 533.5,110.833 533.5,124.5C 532.669,111.673 532.169,98.6731 532,85.5C 530.644,84.6198 529.144,84.2865 527.5,84.5 Z"/></g>
<g><path style="opacity:1" fill="#1d73a8" d="M 640.5,90.5 C 641.43,97.8046 642.097,105.138 642.5,112.5C 640.988,108.448 639.988,102.948 639.5,96C 639.506,93.9674 639.839,92.134 640.5,90.5 Z"/></g>
<g><path style="opacity:1" fill="#0286bf" d="M 87.5,50.5 C 87.5,62.1667 87.5,73.8333 87.5,85.5C 82.1563,85.334 76.8229,85.5006 71.5,86C 77.0158,86.1733 82.3491,86.6733 87.5,87.5C 81.642,87.1778 75.9753,87.5111 70.5,88.5C 70.9885,89.7357 70.9885,91.2357 70.5,93C 79.2283,99.0616 86.5616,106.395 92.5,115C 89.8333,116 89.8333,117 92.5,118C 90.9963,119.337 89.9963,121.004 89.5,123C 90.7839,123.684 91.9505,123.517 93,122.5C 95,124.833 97,127.167 99,129.5C 99.6838,130.784 99.5171,131.951 98.5,133C 99.1667,133.333 99.8333,133.667 100.5,134C 99.635,135.359 98.635,136.526 97.5,137.5C 87.1667,137.5 76.8333,137.5 66.5,137.5C 66.8269,127.985 66.4936,118.652 65.5,109.5C 60.8333,109.5 56.1667,109.5 51.5,109.5C 50.504,123.99 50.1707,138.657 50.5,153.5C 88.5,153.5 126.5,153.5 164.5,153.5C 147.195,172.133 130.361,191.133 114,210.5C 111.315,211.684 109.148,213.517 107.5,216C 111.821,216.499 116.154,216.666 120.5,216.5C 120.5,216.833 120.5,217.167 120.5,217.5C 112.5,217.5 104.5,217.5 96.5,217.5C 51.0512,210.05 20.3845,184.717 4.5,141.5C 7.19547,141.067 9.36213,139.734 11,137.5C 36.0508,107.959 61.5508,78.9591 87.5,50.5 Z"/></g>
<g><path style="opacity:1" fill="#00487e" d="M 375.5,71.5 C 375.5,93.5 375.5,115.5 375.5,137.5C 374.507,129.016 374.174,120.349 374.5,111.5C 374.725,99.4739 374.392,87.4739 373.5,75.5C 373.5,74.8333 373.5,74.1667 373.5,73.5C 374.167,72.8333 374.833,72.1667 375.5,71.5 Z"/></g>
<g><path style="opacity:1" fill="#fefffe" d="M 51.5,109.5 C 56.1667,109.5 60.8333,109.5 65.5,109.5C 65.5,119.167 65.5,128.833 65.5,138.5C 76.8333,138.5 88.1667,138.5 99.5,138.5C 116.833,138.5 134.167,138.5 151.5,138.5C 151.5,129.167 151.5,119.833 151.5,110.5C 155.97,109.514 160.637,109.181 165.5,109.5C 165.5,123.833 165.5,138.167 165.5,152.5C 127.5,152.5 89.5,152.5 51.5,152.5C 51.5,138.167 51.5,123.833 51.5,109.5 Z"/></g>
<g><path style="opacity:1" fill="#2685b7" d="M 493.5,82.5 C 495.438,93.5057 496.771,104.672 497.5,116C 495.527,116.495 493.527,116.662 491.5,116.5C 491.769,105.141 492.436,93.8081 493.5,82.5 Z"/></g>
<g><path style="opacity:1" fill="#0cb3fa" d="M 620.5,84.5 C 621.445,97.7967 621.778,111.13 621.5,124.5C 620.603,125.598 619.77,125.598 619,124.5C 618.333,111.5 618.333,98.5 619,85.5C 619.383,84.944 619.883,84.6107 620.5,84.5 Z"/></g>
<g><path style="opacity:1" fill="#026a9a" d="M 300.5,126.5 C 301.172,125.733 302.005,125.066 303,124.5C 303.667,111.5 303.667,98.5 303,85.5C 302,84.1667 301,84.1667 300,85.5C 299.831,97.0074 299.331,108.341 298.5,119.5C 298.333,107.829 298.5,96.1619 299,84.5C 300.667,83.1667 302.333,83.1667 304,84.5C 304.667,98.1667 304.667,111.833 304,125.5C 302.989,126.337 301.822,126.67 300.5,126.5 Z"/></g>
<g><path style="opacity:1" fill="#136995" d="M 70.5,88.5 C 83.5688,101.232 95.9021,114.566 107.5,128.5C 105.552,131.508 103.219,134.341 100.5,137C 109.494,137.5 118.494,137.666 127.5,137.5C 135.167,137.5 142.833,137.5 150.5,137.5C 150.5,130.833 150.5,124.167 150.5,117.5C 150.198,114.941 150.532,112.607 151.5,110.5C 151.5,119.833 151.5,129.167 151.5,138.5C 134.167,138.5 116.833,138.5 99.5,138.5C 99.1583,137.662 98.4916,137.328 97.5,137.5C 98.635,136.526 99.635,135.359 100.5,134C 99.8333,133.667 99.1667,133.333 98.5,133C 99.5171,131.951 99.6838,130.784 99,129.5C 97,127.167 95,124.833 93,122.5C 91.9505,123.517 90.7839,123.684 89.5,123C 89.9963,121.004 90.9963,119.337 92.5,118C 89.8333,117 89.8333,116 92.5,115C 86.5616,106.395 79.2283,99.0616 70.5,93C 70.9885,91.2357 70.9885,89.7357 70.5,88.5 Z"/></g>
<g><path style="opacity:1" fill="#138ac2" d="M 622.5,83.5 C 623.661,97.3272 623.827,111.327 623,125.5C 622.617,126.056 622.117,126.389 621.5,126.5C 621.5,125.833 621.5,125.167 621.5,124.5C 621.778,111.13 621.445,97.7967 620.5,84.5C 621.925,86.0311 622.591,85.6977 622.5,83.5 Z"/></g>
<g><path style="opacity:1" fill="#144368" d="M 666.5,120.5 C 665.531,120.445 664.864,119.445 664.5,117.5C 664.335,114.15 664.502,110.817 665,107.5C 665.923,111.79 666.423,116.123 666.5,120.5 Z"/></g>
<g><path style="opacity:1" fill="#2590c8" d="M 687.5,114.5 C 688.22,122.96 687.554,131.46 685.5,140C 679.833,140.667 674.167,140.667 668.5,140C 666.436,135.275 665.603,130.442 666,125.5C 664.968,129.976 663.802,134.309 662.5,138.5C 662.458,131.289 663.125,124.289 664.5,117.5C 664.864,119.445 665.531,120.445 666.5,120.5C 667.682,126.301 668.348,132.301 668.5,138.5C 673.833,138.5 679.167,138.5 684.5,138.5C 685.74,130.526 686.74,122.526 687.5,114.5 Z"/></g>
<g><path style="opacity:1" fill="#046091" d="M 582.5,118.5 C 581.833,124.833 581.167,131.167 580.5,137.5C 580.334,127.828 580.5,118.161 581,108.5C 581.61,111.827 582.11,115.161 582.5,118.5 Z"/></g>
<g><path style="opacity:1" fill="#1a82bd" d="M 394.5,136.5 C 394.631,137.239 394.464,137.906 394,138.5C 393.105,134.79 392.105,131.123 391,127.5C 390.502,129.527 390.669,131.527 391.5,133.5C 391.281,134.938 390.781,136.271 390,137.5C 389.829,129.656 389.329,121.989 388.5,114.5C 388.34,112.801 388.506,111.134 389,109.5C 391.313,118.418 393.147,127.418 394.5,136.5 Z"/></g>
<g><path style="opacity:1" fill="#1575ab" d="M 547.5,85.5 C 548.661,98.9938 548.827,112.66 548,126.5C 546.69,134.811 541.856,139.311 533.5,140C 530.167,140.167 526.833,140.333 523.5,140.5C 519.761,140.486 516.428,139.82 513.5,138.5C 513.833,138.5 514.167,138.5 514.5,138.5C 522.174,138.666 529.841,138.5 537.5,138C 543.483,135.549 546.65,131.049 547,124.5C 547.5,111.504 547.667,98.5043 547.5,85.5 Z"/></g>
<g><path style="opacity:1" fill="#0388c2" d="M 150.5,117.5 C 150.5,124.167 150.5,130.833 150.5,137.5C 142.833,137.5 135.167,137.5 127.5,137.5C 134.431,129.397 141.597,121.397 149,113.5C 149.21,115.058 149.71,116.391 150.5,117.5 Z"/></g>
<g><path style="opacity:1" fill="#1a3948" d="M 65.5,109.5 C 66.4936,118.652 66.8269,127.985 66.5,137.5C 76.8333,137.5 87.1667,137.5 97.5,137.5C 98.4916,137.328 99.1583,137.662 99.5,138.5C 88.1667,138.5 76.8333,138.5 65.5,138.5C 65.5,128.833 65.5,119.167 65.5,109.5 Z"/></g>
<g><path style="opacity:1" fill="#1386be" d="M 478.5,108.5 C 477.653,118.487 476.986,128.487 476.5,138.5C 480.833,138.5 485.167,138.5 489.5,138.5C 489.335,135.15 489.502,131.817 490,128.5C 492.719,127.556 495.552,127.223 498.5,127.5C 498.5,129.833 498.5,132.167 498.5,134.5C 498.649,135.552 498.483,136.552 498,137.5C 497.503,134.854 497.336,132.187 497.5,129.5C 495.5,129.5 493.5,129.5 491.5,129.5C 491.789,133.106 491.456,136.606 490.5,140C 485.177,140.499 479.844,140.666 474.5,140.5C 475.331,136.524 475.497,132.524 475,128.5C 474.722,129.416 474.222,130.082 473.5,130.5C 474.439,114.528 474.772,98.5284 474.5,82.5C 475.344,92.0884 475.844,102.422 476,113.5C 476.864,111.169 477.698,109.503 478.5,108.5 Z"/></g>
<g><path style="opacity:1" fill="#1d8ec6" d="M 365.5,138.5 C 363.257,139.812 360.59,140.478 357.5,140.5C 354.833,140.333 352.167,140.167 349.5,140C 348.809,138.933 348.309,137.766 348,136.5C 347.517,137.448 347.351,138.448 347.5,139.5C 343.701,140.047 339.868,140.381 336,140.5C 332.748,140.481 329.915,139.814 327.5,138.5C 332.833,138.5 338.167,138.5 343.5,138.5C 344.194,128.128 345.361,117.795 347,107.5C 348.577,117.778 349.41,128.111 349.5,138.5C 354.833,138.5 360.167,138.5 365.5,138.5 Z"/></g>
<g><path style="opacity:1" fill="#000006" d="M 51.5,109.5 C 51.5,123.833 51.5,138.167 51.5,152.5C 89.5,152.5 127.5,152.5 165.5,152.5C 165.5,153.167 165.167,153.5 164.5,153.5C 126.5,153.5 88.5,153.5 50.5,153.5C 50.1707,138.657 50.504,123.99 51.5,109.5 Z"/></g>
</svg>
