<?xml version="1.0" encoding="UTF-8"?>
<!DOCTYPE svg PUBLIC "-//W3C//DTD SVG 1.1//EN" "http://www.w3.org/Graphics/SVG/1.1/DTD/svg11.dtd">
<svg xmlns="http://www.w3.org/2000/svg" version="1.1" width="645px" height="184px" style="shape-rendering:geometricPrecision; text-rendering:geometricPrecision; image-rendering:optimizeQuality; fill-rule:evenodd; clip-rule:evenodd" xmlns:xlink="http://www.w3.org/1999/xlink">
<g><path style="opacity:1" fill="#e32633" d="M 79.5,-0.5 C 87.1667,-0.5 94.8333,-0.5 102.5,-0.5C 109.414,0.653155 116.081,2.65316 122.5,5.5C 115.094,4.10083 107.76,2.60083 100.5,1C 94.5,0.333333 88.5,0.333333 82.5,1C 81.944,1.38258 81.6107,1.88258 81.5,2.5C 78.8127,2.33591 76.146,2.50258 73.5,3C 64.7568,6.60332 55.7568,9.43665 46.5,11.5C 51.0184,8.3612 56.0184,5.8612 61.5,4C 67.6013,2.38225 73.6013,0.882247 79.5,-0.5 Z"/></g>
<g><path style="opacity:1" fill="#f90a25" d="M 81.5,2.5 C 87.5092,2.33385 93.5092,2.50051 99.5,3C 100.543,4.97563 101.877,5.47563 103.5,4.5C 103.833,5 104.167,5.5 104.5,6C 102.888,7.48196 101.888,9.31529 101.5,11.5C 102.675,11.281 103.675,11.6143 104.5,12.5C 103.349,13.731 102.183,13.731 101,12.5C 100.018,13.7589 99.6848,15.0922 100,16.5C 102.671,17.3477 105.171,17.681 107.5,17.5C 91.0425,18.7245 74.7092,20.0578 58.5,21.5C 59.0522,23.3307 59.0522,24.9974 58.5,26.5C 56.2933,27.6348 53.9599,28.3015 51.5,28.5C 51.1692,30.3224 50.5025,31.9891 49.5,33.5C 47.8333,33.5 46.1667,33.5 44.5,33.5C 44.2204,37.2253 42.2204,38.392 38.5,37C 37.9109,35.1267 38.5776,33.46 40.5,32C 39.273,30.4126 39.6063,29.0793 41.5,28C 37.4463,26.0588 37.7797,25.2254 42.5,25.5C 42.3505,26.552 42.5172,27.552 43,28.5C 43.8104,25.113 42.6437,22.613 39.5,21C 43.1851,20.0855 42.8518,19.4189 38.5,19C 41.7128,16.95 44.3795,14.45 46.5,11.5C 55.7568,9.43665 64.7568,6.60332 73.5,3C 76.146,2.50258 78.8127,2.33591 81.5,2.5 Z"/></g>
<g><path style="opacity:1" fill="#ea1127" d="M 122.5,5.5 C 127.44,7.65594 131.773,10.8226 135.5,15C 134.833,15.3333 134.167,15.6667 133.5,16C 135.167,16.3333 136.833,16.6667 138.5,17C 134.366,19.2028 133.699,22.0361 136.5,25.5C 136.023,26.4776 135.357,27.3109 134.5,28C 137.215,28.8747 138.548,30.7081 138.5,33.5C 135.692,33.0305 133.358,31.6972 131.5,29.5C 129.604,28.5344 127.604,28.2011 125.5,28.5C 99.1702,16.4348 73.8368,18.1015 49.5,33.5C 50.5025,31.9891 51.1692,30.3224 51.5,28.5C 53.9599,28.3015 56.2933,27.6348 58.5,26.5C 59.0522,24.9974 59.0522,23.3307 58.5,21.5C 74.7092,20.0578 91.0425,18.7245 107.5,17.5C 105.171,17.681 102.671,17.3477 100,16.5C 99.6848,15.0922 100.018,13.7589 101,12.5C 102.183,13.731 103.349,13.731 104.5,12.5C 103.675,11.6143 102.675,11.281 101.5,11.5C 101.888,9.31529 102.888,7.48196 104.5,6C 104.167,5.5 103.833,5 103.5,4.5C 101.877,5.47563 100.543,4.97563 99.5,3C 93.5092,2.50051 87.5092,2.33385 81.5,2.5C 81.6107,1.88258 81.944,1.38258 82.5,1C 88.5,0.333333 94.5,0.333333 100.5,1C 107.76,2.60083 115.094,4.10083 122.5,5.5 Z"/></g>
<g><path style="opacity:1" fill="#d83c45" d="M 145.5,17.5 C 151.358,21.2791 156.692,25.7791 161.5,31C 304.167,31.3333 446.833,31.6667 589.5,32C 590.737,32.2321 591.737,32.7321 592.5,33.5C 454.517,32.5082 316.517,32.1749 178.5,32.5C 172.491,32.6662 166.491,32.4995 160.5,32C 156.731,27.932 152.398,24.5986 147.5,22C 146.418,20.6703 145.751,19.1703 145.5,17.5 Z"/></g>
<g><path style="opacity:1" fill="#fc1729" d="M 514.5,34.5 C 499.163,34.3334 483.83,34.5001 468.5,35C 469.833,35.3333 471.167,35.6667 472.5,36C 472.167,36.3333 471.833,36.6667 471.5,37C 459.363,37.3531 447.53,38.8531 436,41.5C 435.311,40.6433 434.478,39.9767 433.5,39.5C 430.386,41.1135 427.053,42.1135 423.5,42.5C 421.262,39.5673 420.262,39.9007 420.5,43.5C 416.614,43.2398 412.781,43.2398 409,43.5C 408.676,45.5689 407.842,45.9023 406.5,44.5C 404.051,44.98 401.885,45.98 400,47.5C 398.488,45.0426 397.154,45.0426 396,47.5C 394.488,45.0426 393.154,45.0426 392,47.5C 391.167,46.5 390.333,45.5 389.5,44.5C 386.424,45.5976 383.257,47.2643 380,49.5C 378.739,49.2409 377.739,48.5742 377,47.5C 376.323,49.689 375.156,50.0224 373.5,48.5C 370.024,48.8216 366.858,49.8216 364,51.5C 361.282,48.9299 358.615,48.9299 356,51.5C 354.209,49.4873 352.875,49.4873 352,51.5C 350.209,49.4873 348.875,49.4873 348,51.5C 345.87,51.5866 343.703,51.5866 341.5,51.5C 339.747,53.2611 337.747,54.5944 335.5,55.5C 332.257,56.0506 329.09,55.3839 326,53.5C 323.884,54.6898 321.884,56.0231 320,57.5C 317.989,56.2828 315.989,56.6161 314,58.5C 312.758,57.1279 311.258,56.1279 309.5,55.5C 306.16,57.2246 302.993,59.2246 300,61.5C 299.689,60.2575 300.189,59.2575 301.5,58.5C 301,58.1667 300.5,57.8333 300,57.5C 297.084,60.4968 294.751,60.1634 293,56.5C 292.667,58.1667 292.333,59.8333 292,61.5C 291.085,60.6721 290.419,59.6721 290,58.5C 289.581,59.6721 288.915,60.6721 288,61.5C 287.632,60.09 286.799,59.09 285.5,58.5C 282.867,59.3006 281.033,60.9673 280,63.5C 279.316,62.2161 279.483,61.0495 280.5,60C 279.5,59.5 278.5,59 277.5,58.5C 276.304,58.8457 276.304,59.3457 277.5,60C 275.765,60.6514 274.098,60.4847 272.5,59.5C 271.154,61.0134 269.654,62.3467 268,63.5C 266,62.8333 264,62.1667 262,61.5C 260.989,61.8919 260.489,62.5585 260.5,63.5C 259.522,63.0233 258.689,62.3567 258,61.5C 257.333,62.8333 256.667,64.1667 256,65.5C 254.327,63.0834 252.494,63.0834 250.5,65.5C 249.28,64.2889 248.113,64.2889 247,65.5C 245,62.8333 243,62.8333 241,65.5C 238.909,64.5004 237.243,65.1671 236,67.5C 234.414,66.624 232.914,65.624 231.5,64.5C 228.593,65.9812 225.593,67.3145 222.5,68.5C 222.291,69.086 221.957,69.586 221.5,70C 223.192,71.4007 223.859,73.2341 223.5,75.5C 222.399,74.1516 221.399,72.6516 220.5,71C 216.179,70.501 211.846,70.3343 207.5,70.5C 206.698,76.9287 207.864,82.9287 211,88.5C 211.532,97.3596 213.032,106.026 215.5,114.5C 215.32,115.554 214.987,116.554 214.5,117.5C 216.546,119.281 216.88,121.281 215.5,123.5C 214.842,124.398 214.176,125.398 213.5,126.5C 212.325,125.145 211.325,125.312 210.5,127C 211.308,127.308 211.975,127.808 212.5,128.5C 209.215,129.324 205.882,129.824 202.5,130C 201.366,131.016 201.699,131.683 203.5,132C 202.056,132.781 200.723,132.614 199.5,131.5C 200.85,116.729 202.183,102.062 203.5,87.5C 202.313,86.4805 201.313,85.3139 200.5,84C 200.833,83.6667 201.167,83.3333 201.5,83C 200.712,79.9243 200.212,76.7577 200,73.5C 198.243,69.7287 197.077,65.8953 196.5,62C 196.645,60.7741 196.978,59.6074 197.5,58.5C 195.283,55.9316 194.116,52.9316 194,49.5C 192.026,47.371 190.359,45.0377 189,42.5C 188.617,43.056 188.117,43.3893 187.5,43.5C 186.603,42.4019 185.77,42.4019 185,43.5C 184.383,42.5509 184.549,41.7175 185.5,41C 183.5,39 181.5,37 179.5,35C 180.5,34.6667 181.5,34.3333 182.5,34C 293.334,33.1674 404.001,33.3341 514.5,34.5 Z"/></g>
<g><path style="opacity:1" fill="#fa0d26" d="M 514.5,34.5 C 525.833,34.5 537.167,34.5 548.5,34.5C 547.362,37.2675 545.528,37.9341 543,36.5C 538.454,39.8531 533.954,40.1864 529.5,37.5C 526.547,37.2557 523.547,37.7557 520.5,39C 519.354,39.6449 518.354,40.4783 517.5,41.5C 515.328,41.3241 512.995,41.1575 510.5,41C 509.324,39.0858 508.324,39.2524 507.5,41.5C 506.158,39.9951 504.492,39.3285 502.5,39.5C 502.5,40.8333 502.5,42.1667 502.5,43.5C 500.508,43.6715 498.842,43.0049 497.5,41.5C 496.167,44.1667 494.833,44.1667 493.5,41.5C 491.086,43.7468 488.42,44.0801 485.5,42.5C 484.306,45.6186 482.806,45.9519 481,43.5C 478.5,45.5363 475.833,45.8696 473,44.5C 470.964,45.102 469.13,46.102 467.5,47.5C 466.167,44.8333 464.833,44.8333 463.5,47.5C 462.167,44.8333 460.833,44.8333 459.5,47.5C 458.833,46.8333 458.167,46.1667 457.5,45.5C 452.801,49.5084 447.468,50.5084 441.5,48.5C 436.646,48.8623 431.979,49.8623 427.5,51.5C 426.833,50.8333 426.167,50.1667 425.5,49.5C 423.359,50.3226 421.193,51.3226 419,52.5C 414.26,52.6466 409.26,52.6466 404,52.5C 402.324,53.0611 400.991,54.0611 400,55.5C 398.559,54.13 396.892,53.13 395,52.5C 389.251,54.552 383.417,56.552 377.5,58.5C 374.396,57.0222 371.396,57.1889 368.5,59C 372.265,60.3772 371.932,61.3772 367.5,62C 369.636,64.1121 371.636,63.9454 373.5,61.5C 374.347,63.061 374.014,64.561 372.5,66C 373.763,68.3858 375.597,70.2192 378,71.5C 378.191,73.7078 378.691,75.7078 379.5,77.5C 379.5,88.8333 379.5,100.167 379.5,111.5C 373.888,110.895 368.221,110.895 362.5,111.5C 361.5,111.167 360.833,110.5 360.5,109.5C 359.046,102.778 359.212,96.1117 361,89.5C 362.255,88.7894 363.421,87.956 364.5,87C 368.421,86.797 372.255,86.297 376,85.5C 376.167,83.1667 376.333,80.8333 376.5,78.5C 376.471,75.7305 375.805,73.3972 374.5,71.5C 372.71,70.0027 370.544,69.336 368,69.5C 365.456,69.336 363.29,70.0027 361.5,71.5C 360.167,71.8333 358.833,72.1667 357.5,72.5C 355.5,72.8333 353.5,73.1667 351.5,73.5C 351.649,74.552 351.483,75.552 351,76.5C 348.546,78.4412 346.713,80.7746 345.5,83.5C 343.732,79.9558 342.898,75.9558 343,71.5C 342.329,70.7476 341.496,70.4142 340.5,70.5C 330.828,70.3335 321.161,70.5002 311.5,71C 310.365,75.7477 310.198,80.581 311,85.5C 311.383,86.056 311.883,86.3893 312.5,86.5C 313.919,87.4511 315.585,87.7845 317.5,87.5C 317.667,99.5046 317.5,111.505 317,123.5C 316.333,122.167 315.667,122.167 315,123.5C 314.392,121.934 313.558,120.6 312.5,119.5C 312.197,110.468 309.697,102.135 305,94.5C 303.177,86.546 301.677,78.546 300.5,70.5C 294.824,70.3339 289.157,70.5006 283.5,71C 282.663,72.0113 282.33,73.1779 282.5,74.5C 279.461,78.2548 277.794,82.5881 277.5,87.5C 275.775,90.6245 274.275,93.9579 273,97.5C 266.978,101.764 266.145,100.931 270.5,95C 269.928,92.7087 269.594,90.3754 269.5,88C 270.739,82.7953 271.739,77.462 272.5,72C 270.84,69.1373 268.34,67.9707 265,68.5C 262.803,68.6514 260.636,68.9848 258.5,69.5C 257.287,69.7472 256.62,70.4138 256.5,71.5C 255.21,72.0577 254.377,73.0577 254,74.5C 253.963,81.3271 252.963,87.9938 251,94.5C 249.81,90.6192 249.143,86.6192 249,82.5C 248.78,80.0268 247.614,78.3602 245.5,77.5C 245.5,76.1667 245.5,74.8333 245.5,73.5C 245.586,72.5041 245.252,71.6708 244.5,71C 240.833,70.3333 237.167,70.3333 233.5,71C 230.594,76.7392 229.094,82.9058 229,89.5C 228.333,90.1667 227.667,90.8333 227,91.5C 226.4,89.0904 225.234,87.0904 223.5,85.5C 223.5,84.8333 223.5,84.1667 223.5,83.5C 223.5,80.8333 223.5,78.1667 223.5,75.5C 223.859,73.2341 223.192,71.4007 221.5,70C 221.957,69.586 222.291,69.086 222.5,68.5C 225.593,67.3145 228.593,65.9812 231.5,64.5C 232.914,65.624 234.414,66.624 236,67.5C 237.243,65.1671 238.909,64.5004 241,65.5C 243,62.8333 245,62.8333 247,65.5C 248.113,64.2889 249.28,64.2889 250.5,65.5C 252.494,63.0834 254.327,63.0834 256,65.5C 256.667,64.1667 257.333,62.8333 258,61.5C 258.689,62.3567 259.522,63.0233 260.5,63.5C 260.489,62.5585 260.989,61.8919 262,61.5C 264,62.1667 266,62.8333 268,63.5C 269.654,62.3467 271.154,61.0134 272.5,59.5C 274.098,60.4847 275.765,60.6514 277.5,60C 276.304,59.3457 276.304,58.8457 277.5,58.5C 278.5,59 279.5,59.5 280.5,60C 279.483,61.0495 279.316,62.2161 280,63.5C 281.033,60.9673 282.867,59.3006 285.5,58.5C 286.799,59.09 287.632,60.09 288,61.5C 288.915,60.6721 289.581,59.6721 290,58.5C 290.419,59.6721 291.085,60.6721 292,61.5C 292.333,59.8333 292.667,58.1667 293,56.5C 294.751,60.1634 297.084,60.4968 300,57.5C 300.5,57.8333 301,58.1667 301.5,58.5C 300.189,59.2575 299.689,60.2575 300,61.5C 302.993,59.2246 306.16,57.2246 309.5,55.5C 311.258,56.1279 312.758,57.1279 314,58.5C 315.989,56.6161 317.989,56.2828 320,57.5C 321.884,56.0231 323.884,54.6898 326,53.5C 329.09,55.3839 332.257,56.0506 335.5,55.5C 337.747,54.5944 339.747,53.2611 341.5,51.5C 343.703,51.5866 345.87,51.5866 348,51.5C 348.875,49.4873 350.209,49.4873 352,51.5C 352.875,49.4873 354.209,49.4873 356,51.5C 358.615,48.9299 361.282,48.9299 364,51.5C 366.858,49.8216 370.024,48.8216 373.5,48.5C 375.156,50.0224 376.323,49.689 377,47.5C 377.739,48.5742 378.739,49.2409 380,49.5C 383.257,47.2643 386.424,45.5976 389.5,44.5C 390.333,45.5 391.167,46.5 392,47.5C 393.154,45.0426 394.488,45.0426 396,47.5C 397.154,45.0426 398.488,45.0426 400,47.5C 401.885,45.98 404.051,44.98 406.5,44.5C 407.842,45.9023 408.676,45.5689 409,43.5C 412.781,43.2398 416.614,43.2398 420.5,43.5C 420.262,39.9007 421.262,39.5673 423.5,42.5C 427.053,42.1135 430.386,41.1135 433.5,39.5C 434.478,39.9767 435.311,40.6433 436,41.5C 447.53,38.8531 459.363,37.3531 471.5,37C 471.833,36.6667 472.167,36.3333 472.5,36C 471.167,35.6667 469.833,35.3333 468.5,35C 483.83,34.5001 499.163,34.3334 514.5,34.5 Z"/></g>
<g><path style="opacity:1" fill="#fa0926" d="M 548.5,34.5 C 568.057,33.5628 587.39,35.0628 606.5,39C 609.602,41.5265 612.602,44.0265 615.5,46.5C 614.228,47.4343 612.728,48.101 611,48.5C 608.189,47.5958 605.522,47.2625 603,47.5C 602.51,48.7932 602.343,50.1266 602.5,51.5C 600.508,51.3285 598.842,51.9951 597.5,53.5C 596.571,52.3112 596.238,50.9778 596.5,49.5C 593.856,49.1601 591.523,49.8267 589.5,51.5C 588.184,48.972 587.017,48.972 586,51.5C 584.989,50.6634 583.822,50.33 582.5,50.5C 582.5,51.5 582.5,52.5 582.5,53.5C 572.64,52.895 562.973,53.5616 553.5,55.5C 552.833,54.8333 552.167,54.1667 551.5,53.5C 549.954,54.684 548.287,55.684 546.5,56.5C 548.287,57.316 549.954,58.316 551.5,59.5C 552.968,57.6671 554.635,57.3338 556.5,58.5C 554.615,59.1973 554.282,60.1973 555.5,61.5C 554.675,62.3857 553.675,62.719 552.5,62.5C 552.5,63.5 552.5,64.5 552.5,65.5C 550.058,65.1192 549.391,65.7859 550.5,67.5C 545.704,68.8869 541.037,68.5536 536.5,66.5C 538.333,65.0316 538.666,63.3649 537.5,61.5C 536.808,62.0253 536.308,62.6919 536,63.5C 534.757,62.6637 533.59,62.997 532.5,64.5C 534.563,67.3885 536.397,70.3885 538,73.5C 538.333,72.8333 538.667,72.1667 539,71.5C 539.346,73.2182 539.846,74.8849 540.5,76.5C 540.167,76.8333 539.833,77.1667 539.5,77.5C 535.764,76.2514 532.764,74.0847 530.5,71C 530.905,70.0546 531.572,69.3879 532.5,69C 530.269,67.5966 527.936,66.4299 525.5,65.5C 524.5,65.8333 523.5,66.1667 522.5,66.5C 523.729,67.2811 525.062,67.7811 526.5,68C 521.833,68.3333 517.167,68.6667 512.5,69C 511.584,69.2784 510.918,69.7784 510.5,70.5C 510.5,70.8333 510.5,71.1667 510.5,71.5C 506.456,74.5425 503.123,78.2092 500.5,82.5C 499.624,82.3691 498.957,82.7025 498.5,83.5C 497.568,85.7954 496.735,88.1287 496,90.5C 495.667,96.5 495.333,102.5 495,108.5C 493.148,96.6802 492.148,84.6802 492,72.5C 491.5,72 491,71.5 490.5,71C 486.167,70.3333 481.833,70.3333 477.5,71C 476.584,71.3742 475.75,71.8742 475,72.5C 474.667,77.8333 474.333,83.1667 474,88.5C 472.383,86.2368 470.55,84.2368 468.5,82.5C 468.391,77.1213 466.391,72.788 462.5,69.5C 458.019,68.3516 453.352,68.1849 448.5,69C 446.007,70.3246 444.84,72.4913 445,75.5C 443.89,73.9632 442.39,73.2965 440.5,73.5C 440.5,72.1667 440.5,70.8333 440.5,69.5C 438.508,69.6715 436.842,69.0049 435.5,67.5C 434.304,67.8457 434.304,68.3457 435.5,69C 431.179,69.499 426.846,69.6657 422.5,69.5C 422.441,72.0488 423.441,74.0488 425.5,75.5C 424.333,79.1667 423.167,82.8333 422,86.5C 421.667,81.1667 421.333,75.8333 421,70.5C 420.5,70 420,69.5 419.5,69C 414.845,68.5008 410.179,68.3342 405.5,68.5C 403.666,75.2757 402.999,82.2757 403.5,89.5C 401.5,89.5 399.5,89.5 397.5,89.5C 397.666,83.4908 397.499,77.4908 397,71.5C 396.329,70.7476 395.496,70.4142 394.5,70.5C 390.5,70.5 386.5,70.5 382.5,70.5C 380.179,72.0897 379.179,74.4231 379.5,77.5C 378.691,75.7078 378.191,73.7078 378,71.5C 375.597,70.2192 373.763,68.3858 372.5,66C 374.014,64.561 374.347,63.061 373.5,61.5C 371.636,63.9454 369.636,64.1121 367.5,62C 371.932,61.3772 372.265,60.3772 368.5,59C 371.396,57.1889 374.396,57.0222 377.5,58.5C 383.417,56.552 389.251,54.552 395,52.5C 396.892,53.13 398.559,54.13 400,55.5C 400.991,54.0611 402.324,53.0611 404,52.5C 409.26,52.6466 414.26,52.6466 419,52.5C 421.193,51.3226 423.359,50.3226 425.5,49.5C 426.167,50.1667 426.833,50.8333 427.5,51.5C 431.979,49.8623 436.646,48.8623 441.5,48.5C 447.468,50.5084 452.801,49.5084 457.5,45.5C 458.167,46.1667 458.833,46.8333 459.5,47.5C 460.833,44.8333 462.167,44.8333 463.5,47.5C 464.833,44.8333 466.167,44.8333 467.5,47.5C 469.13,46.102 470.964,45.102 473,44.5C 475.833,45.8696 478.5,45.5363 481,43.5C 482.806,45.9519 484.306,45.6186 485.5,42.5C 488.42,44.0801 491.086,43.7468 493.5,41.5C 494.833,44.1667 496.167,44.1667 497.5,41.5C 498.842,43.0049 500.508,43.6715 502.5,43.5C 502.5,42.1667 502.5,40.8333 502.5,39.5C 504.492,39.3285 506.158,39.9951 507.5,41.5C 508.324,39.2524 509.324,39.0858 510.5,41C 512.995,41.1575 515.328,41.3241 517.5,41.5C 518.354,40.4783 519.354,39.6449 520.5,39C 523.547,37.7557 526.547,37.2557 529.5,37.5C 533.954,40.1864 538.454,39.8531 543,36.5C 545.528,37.9341 547.362,37.2675 548.5,34.5 Z"/></g>
<g><path style="opacity:1" fill="#fa222c" d="M 46.5,11.5 C 44.3795,14.45 41.7128,16.95 38.5,19C 42.8518,19.4189 43.1851,20.0855 39.5,21C 42.6437,22.613 43.8104,25.113 43,28.5C 42.5172,27.552 42.3505,26.552 42.5,25.5C 37.7797,25.2254 37.4463,26.0588 41.5,28C 39.6063,29.0793 39.273,30.4126 40.5,32C 38.5776,33.46 37.9109,35.1267 38.5,37C 42.2204,38.392 44.2204,37.2253 44.5,33.5C 46.1667,33.5 47.8333,33.5 49.5,33.5C 45.8595,36.9683 42.0261,40.3016 38,43.5C 35.1467,47.2355 32.3133,50.9021 29.5,54.5C 28.2794,55.0283 27.1127,55.695 26,56.5C 23.1608,63.3389 20.4942,70.3389 18,77.5C 17.3333,85.5 17.3333,93.5 18,101.5C 19.0866,106.897 20.9199,111.897 23.5,116.5C 34.4912,140.511 52.8246,155.844 78.5,162.5C 69.6298,161.835 61.1298,159.835 53,156.5C 52.51,155.207 52.3433,153.873 52.5,152.5C 48.9417,151.046 45.275,150.212 41.5,150C 42.1667,150.333 42.8333,150.667 43.5,151C 39.5622,154.26 39.5622,157.427 43.5,160.5C 43.5177,162.373 43.0177,162.706 42,161.5C 40.8333,166.835 42.9999,169.169 48.5,168.5C 48.6833,170.988 49.6833,172.988 51.5,174.5C 26.1022,162.429 9.76884,142.763 2.5,115.5C 0.925537,98.7697 1.42554,82.103 4,65.5C 6.54947,60.2957 8.8828,54.9624 11,49.5C 15.4721,44.3599 19.1387,38.6932 22,32.5C 26.3702,28.2978 30.5368,23.9645 34.5,19.5C 37.6783,15.6644 41.6783,12.9977 46.5,11.5 Z"/></g>
<g><path style="opacity:1" fill="#f50a25" d="M 615.5,46.5 C 617.833,47.1667 620.167,47.8333 622.5,48.5C 622.343,49.8734 622.51,51.2068 623,52.5C 625.706,54.8706 628.039,57.5372 630,60.5C 630.036,65.512 631.203,70.1787 633.5,74.5C 627.167,75.1667 620.833,75.8333 614.5,76.5C 613.5,77.5 612.5,78.5 611.5,79.5C 609.378,77.5487 607.878,75.2154 607,72.5C 606.329,71.7476 605.496,71.4142 604.5,71.5C 603.833,71.5 603.167,71.5 602.5,71.5C 597.979,70.3222 593.312,70.3222 588.5,71.5C 588.001,75.4899 587.501,79.4899 587,83.5C 586.71,85.0441 586.044,86.3774 585,87.5C 583.756,84.3618 583.089,81.0284 583,77.5C 582.667,76.8333 582.333,76.1667 582,75.5C 581.23,76.5981 580.397,76.5981 579.5,75.5C 578.972,74.2794 578.305,73.1127 577.5,72C 569.127,69.8856 565.127,73.0523 565.5,81.5C 564.271,84.5579 562.937,87.5579 561.5,90.5C 559.274,85.0871 557.774,79.4204 557,73.5C 556.167,72.6667 555.333,71.8333 554.5,71C 550.5,70.3333 546.5,70.3333 542.5,71C 541.409,73.0639 541.242,75.2305 542,77.5C 543.436,82.6319 544.936,87.6319 546.5,92.5C 547.179,100.069 547.846,107.402 548.5,114.5C 546.713,115.316 545.046,116.316 543.5,117.5C 542.268,116.855 540.935,116.689 539.5,117C 541.394,115.921 541.727,114.587 540.5,113C 542,110.833 543.167,111 544,113.5C 544.783,111.681 544.283,110.348 542.5,109.5C 542.018,101.938 541.018,94.6048 539.5,87.5C 538.833,86.8333 538.167,86.1667 537.5,85.5C 535.838,80.8456 533.171,76.8456 529.5,73.5C 529.047,72.5416 528.381,71.7083 527.5,71C 521.855,69.3578 516.188,69.1912 510.5,70.5C 510.918,69.7784 511.584,69.2784 512.5,69C 517.167,68.6667 521.833,68.3333 526.5,68C 525.062,67.7811 523.729,67.2811 522.5,66.5C 523.5,66.1667 524.5,65.8333 525.5,65.5C 527.936,66.4299 530.269,67.5966 532.5,69C 531.572,69.3879 530.905,70.0546 530.5,71C 532.764,74.0847 535.764,76.2514 539.5,77.5C 539.833,77.1667 540.167,76.8333 540.5,76.5C 539.846,74.8849 539.346,73.2182 539,71.5C 538.667,72.1667 538.333,72.8333 538,73.5C 536.397,70.3885 534.563,67.3885 532.5,64.5C 533.59,62.997 534.757,62.6637 536,63.5C 536.308,62.6919 536.808,62.0253 537.5,61.5C 538.666,63.3649 538.333,65.0316 536.5,66.5C 541.037,68.5536 545.704,68.8869 550.5,67.5C 549.391,65.7859 550.058,65.1192 552.5,65.5C 552.5,64.5 552.5,63.5 552.5,62.5C 553.675,62.719 554.675,62.3857 555.5,61.5C 554.282,60.1973 554.615,59.1973 556.5,58.5C 554.635,57.3338 552.968,57.6671 551.5,59.5C 549.954,58.316 548.287,57.316 546.5,56.5C 548.287,55.684 549.954,54.684 551.5,53.5C 552.167,54.1667 552.833,54.8333 553.5,55.5C 562.973,53.5616 572.64,52.895 582.5,53.5C 582.5,52.5 582.5,51.5 582.5,50.5C 583.822,50.33 584.989,50.6634 586,51.5C 587.017,48.972 588.184,48.972 589.5,51.5C 591.523,49.8267 593.856,49.1601 596.5,49.5C 596.238,50.9778 596.571,52.3112 597.5,53.5C 598.842,51.9951 600.508,51.3285 602.5,51.5C 602.343,50.1266 602.51,48.7932 603,47.5C 605.522,47.2625 608.189,47.5958 611,48.5C 612.728,48.101 614.228,47.4343 615.5,46.5 Z"/></g>
<g><path style="opacity:1" fill="#fd1e33" d="M 72.5,59.5 C 74.604,59.2011 76.604,59.5344 78.5,60.5C 93.8229,70.5002 109.823,79.5002 126.5,87.5C 127.374,89.7466 127.708,92.0799 127.5,94.5C 125.567,94.7286 123.9,95.5619 122.5,97C 121.748,97.6708 121.414,98.5041 121.5,99.5C 116.368,103.573 110.701,106.906 104.5,109.5C 99.2094,109.312 95.2094,111.478 92.5,116C 90.2115,116.822 87.8782,117.489 85.5,118C 82.3604,122.568 78.027,124.401 72.5,123.5C 71.1667,102.167 71.1667,80.8333 72.5,59.5 Z"/></g>
<g><path style="opacity:1" fill="#e84253" d="M 374.5,71.5 C 370.167,70.1667 365.833,70.1667 361.5,71.5C 363.29,70.0027 365.456,69.336 368,69.5C 370.544,69.336 372.71,70.0027 374.5,71.5 Z"/></g>
<g><path style="opacity:1" fill="#ea3341" d="M 121.5,99.5 C 121.414,98.5041 121.748,97.6708 122.5,97C 123.9,95.5619 125.567,94.7286 127.5,94.5C 127.708,92.0799 127.374,89.7466 126.5,87.5C 109.823,79.5002 93.8229,70.5002 78.5,60.5C 76.604,59.5344 74.604,59.2011 72.5,59.5C 74.0106,57.5589 76.0106,57.0589 78.5,58C 95.8669,67.6722 113.034,77.8389 130,88.5C 130.819,94.8604 127.986,98.527 121.5,99.5 Z"/></g>
<g><path style="opacity:1" fill="#fefffe" d="M 529.5,73.5 C 533.171,76.8456 535.838,80.8456 537.5,85.5C 539.201,95.9532 538.701,106.287 536,116.5C 531.06,125.995 523.226,129.661 512.5,127.5C 501.778,121.02 497.111,111.354 498.5,98.5C 498.539,93.0651 499.205,87.7318 500.5,82.5C 503.123,78.2092 506.456,74.5425 510.5,71.5C 517.101,70.0732 523.434,70.7398 529.5,73.5 Z"/></g>
<g><path style="opacity:1" fill="#e84a5a" d="M 529.5,73.5 C 523.434,70.7398 517.101,70.0732 510.5,71.5C 510.5,71.1667 510.5,70.8333 510.5,70.5C 516.188,69.1912 521.855,69.3578 527.5,71C 528.381,71.7083 529.047,72.5416 529.5,73.5 Z"/></g>
<g><path style="opacity:1" fill="#d52a3a" d="M 72.5,59.5 C 71.1667,80.8333 71.1667,102.167 72.5,123.5C 71.1679,113.355 70.5013,102.855 70.5,92C 70.6667,81.5 70.8333,71 71,60.5C 71.3826,59.944 71.8826,59.6107 72.5,59.5 Z"/></g>
<g><path style="opacity:1" fill="#e40d24" d="M 178.5,32.5 C 316.517,32.1749 454.517,32.5082 592.5,33.5C 604.148,35.3239 614.148,40.3239 622.5,48.5C 620.167,47.8333 617.833,47.1667 615.5,46.5C 612.602,44.0265 609.602,41.5265 606.5,39C 587.39,35.0628 568.057,33.5628 548.5,34.5C 537.167,34.5 525.833,34.5 514.5,34.5C 404.001,33.3341 293.334,33.1674 182.5,34C 181.5,34.3333 180.5,34.6667 179.5,35C 181.5,37 183.5,39 185.5,41C 184.549,41.7175 184.383,42.5509 185,43.5C 185.77,42.4019 186.603,42.4019 187.5,43.5C 188.117,45.2292 189.117,46.7292 190.5,48C 189.572,48.3879 188.905,49.0546 188.5,50C 188.911,53.496 190.578,56.1627 193.5,58C 192.643,58.6891 191.977,59.5224 191.5,60.5C 192.881,66.8009 194.548,72.9675 196.5,79C 195.443,83.2364 195.776,87.403 197.5,91.5C 196.808,103.529 195.642,115.196 194,126.5C 191.442,134.168 188.109,141.502 184,148.5C 183.51,149.793 183.343,151.127 183.5,152.5C 181.897,152.312 180.563,152.812 179.5,154C 179.833,154.333 180.167,154.667 180.5,155C 177.295,156.923 175.962,159.423 176.5,162.5C 178.332,161.752 179.999,160.752 181.5,159.5C 182.532,161.04 183.865,161.54 185.5,161C 184.72,159.927 184.887,158.76 186,157.5C 187.18,158.684 188.68,159.351 190.5,159.5C 199.838,156.144 209.338,155.144 219,156.5C 220.82,155.511 222.653,154.511 224.5,153.5C 227.819,155.737 230.819,155.071 233.5,151.5C 234.216,152.311 235.05,152.978 236,153.5C 239.189,150.993 242.356,150.993 245.5,153.5C 248.614,151.887 251.947,150.887 255.5,150.5C 257.467,151.682 258.8,151.015 259.5,148.5C 261.163,149.875 262.497,149.542 263.5,147.5C 264.833,150.167 266.167,150.167 267.5,147.5C 268.623,148.544 269.956,149.21 271.5,149.5C 279.052,147.712 286.719,147.045 294.5,147.5C 294.238,146.022 294.571,144.689 295.5,143.5C 300,146.067 304.5,146.067 309,143.5C 311.006,145.002 312.672,144.669 314,142.5C 317.68,144.053 321.18,143.719 324.5,141.5C 328.294,143.315 332.294,143.648 336.5,142.5C 336.354,140.058 337.187,139.391 339,140.5C 340.205,139.929 341.372,139.262 342.5,138.5C 340.681,133.912 341.681,133.579 345.5,137.5C 345.291,138.086 344.957,138.586 344.5,139C 347.697,139.987 350.53,139.487 353,137.5C 357.833,140.516 362.5,139.85 367,135.5C 367.667,134.833 367.667,134.167 367,133.5C 365.989,134.337 364.822,134.67 363.5,134.5C 363.67,133.178 363.337,132.011 362.5,131C 367.885,130.786 373.219,130.286 378.5,129.5C 380.134,129.968 381.3,130.968 382,132.5C 382.741,131.359 383.575,131.359 384.5,132.5C 385.157,136.903 386.99,137.57 390,134.5C 393.46,138.446 396.96,138.446 400.5,134.5C 401.478,134.977 402.311,135.643 403,136.5C 404.016,135.366 404.683,135.699 405,137.5C 405.333,136.833 405.667,136.167 406,135.5C 408.09,138.009 409.923,137.675 411.5,134.5C 409.615,133.803 409.282,132.803 410.5,131.5C 413.506,130.252 416.506,130.252 419.5,131.5C 422.273,130.532 424.773,129.199 427,127.5C 428.011,128.337 429.178,128.67 430.5,128.5C 430.281,127.325 430.614,126.325 431.5,125.5C 432.167,126.833 432.833,128.167 433.5,129.5C 435.167,128.5 436.5,127.167 437.5,125.5C 438.167,126.167 438.833,126.833 439.5,127.5C 440.425,126.359 441.259,126.359 442,127.5C 441.884,121.032 443.051,120.366 445.5,125.5C 448.398,127.773 448.064,129.273 444.5,130C 446.219,131.057 448.053,131.89 450,132.5C 450.309,133.766 450.809,134.933 451.5,136C 450.833,136.333 450.167,136.667 449.5,137C 451.067,138.076 452.734,138.909 454.5,139.5C 456.863,136.849 459.196,136.849 461.5,139.5C 460.975,140.192 460.308,140.692 459.5,141C 454.833,141.333 450.167,141.667 445.5,142C 445.833,142.333 446.167,142.667 446.5,143C 441.224,144.147 436.224,144.313 431.5,143.5C 430.522,143.977 429.689,144.643 429,145.5C 428.692,144.692 428.192,144.025 427.5,143.5C 425.562,146.079 423.729,146.079 422,143.5C 420.045,144.453 418.378,145.787 417,147.5C 415.983,144.972 414.816,144.972 413.5,147.5C 412.833,146.833 412.167,146.167 411.5,145.5C 408.59,147.184 405.423,148.184 402,148.5C 400.234,147.498 398.567,147.832 397,149.5C 396.692,148.692 396.192,148.025 395.5,147.5C 394.158,149.005 392.492,149.672 390.5,149.5C 390.719,150.675 390.386,151.675 389.5,152.5C 388.757,151.092 387.923,149.759 387,148.5C 385.506,149.747 384.006,149.747 382.5,148.5C 383.506,147.604 383.506,146.938 382.5,146.5C 380.5,147.167 378.5,147.833 376.5,148.5C 375.749,149.376 375.249,150.376 375,151.5C 373.647,150.315 372.48,148.981 371.5,147.5C 370.833,148.833 370.167,150.167 369.5,151.5C 368.808,150.975 368.308,150.308 368,149.5C 366.406,150.716 364.906,152.049 363.5,153.5C 362.452,152.617 361.285,151.95 360,151.5C 357.503,152.908 355.003,154.241 352.5,155.5C 350.714,153.078 349.048,153.078 347.5,155.5C 346.833,154.833 346.167,154.167 345.5,153.5C 340.345,155.804 335.012,156.137 329.5,154.5C 325.837,155.053 322.504,156.387 319.5,158.5C 317.596,154.556 316.596,154.89 316.5,159.5C 308.14,159.169 299.807,159.502 291.5,160.5C 291.291,161.086 290.957,161.586 290.5,162C 284.319,162.172 278.319,162.672 272.5,163.5C 237.837,164.421 203.171,164.588 168.5,164C 167.376,163.751 166.376,163.251 165.5,162.5C 176.864,152.044 184.864,139.711 189.5,125.5C 189.504,120.155 189.504,114.489 189.5,108.5C 190.617,107.051 191.284,105.384 191.5,103.5C 190.807,92.5869 189.474,82.0869 187.5,72C 187.957,71.586 188.291,71.086 188.5,70.5C 187.095,68.3455 185.762,66.1788 184.5,64C 184.988,59.4705 184.155,54.9705 182,50.5C 179.971,47.9708 178.138,45.3041 176.5,42.5C 175.726,41.2888 174.893,41.2888 174,42.5C 173.64,40.3921 172.973,38.3921 172,36.5C 171.667,36.8333 171.333,37.1667 171,37.5C 169.829,36.1068 168.329,35.2735 166.5,35C 170.665,34.2946 174.665,33.4613 178.5,32.5 Z"/></g>
<g><path style="opacity:1" fill="#ea0b25" d="M 215.5,123.5 C 216.812,124.812 218.146,126.146 219.5,127.5C 224.12,128.493 228.786,128.827 233.5,128.5C 233.5,127.167 233.5,125.833 233.5,124.5C 234.623,122.255 235.789,119.921 237,117.5C 237.231,113.416 237.898,109.416 239,105.5C 239.757,107.315 240.59,108.981 241.5,110.5C 242.963,115.345 244.297,120.345 245.5,125.5C 249.546,126.765 253.546,126.765 257.5,125.5C 262.981,115.754 265.648,105.087 265.5,93.5C 266.507,87.1372 267.84,80.8038 269.5,74.5C 269.315,73.4163 268.982,72.4163 268.5,71.5C 264.601,70.2092 260.601,70.2092 256.5,71.5C 256.62,70.4138 257.287,69.7472 258.5,69.5C 260.636,68.9848 262.803,68.6514 265,68.5C 268.34,67.9707 270.84,69.1373 272.5,72C 271.739,77.462 270.739,82.7953 269.5,88C 269.594,90.3754 269.928,92.7087 270.5,95C 266.145,100.931 266.978,101.764 273,97.5C 274.275,93.9579 275.775,90.6245 277.5,87.5C 277.5,89.1667 277.5,90.8333 277.5,92.5C 274.994,96.5085 273.161,100.842 272,105.5C 270.65,111.4 269.483,117.4 268.5,123.5C 268.543,124.416 268.876,125.083 269.5,125.5C 273.801,126.773 278.135,126.773 282.5,125.5C 284.12,124.159 285.12,122.326 285.5,120C 288.817,119.502 292.15,119.335 295.5,119.5C 295.076,125.972 298.076,128.639 304.5,127.5C 307.269,127.471 309.603,126.805 311.5,125.5C 312.461,123.735 312.795,121.735 312.5,119.5C 313.558,120.6 314.392,121.934 315,123.5C 315.667,122.167 316.333,122.167 317,123.5C 317.5,111.505 317.667,99.5046 317.5,87.5C 315.585,87.7845 313.919,87.4511 312.5,86.5C 314.5,86.5 316.5,86.5 318.5,86.5C 318.171,99.6774 318.505,112.677 319.5,125.5C 319.5,126.5 319.5,127.5 319.5,128.5C 324.322,129.065 328.822,128.399 333,126.5C 333.5,113.171 333.667,99.8375 333.5,86.5C 335.857,86.6633 338.19,86.4966 340.5,86C 343.147,80.7698 343.147,75.6032 340.5,70.5C 341.496,70.4142 342.329,70.7476 343,71.5C 342.898,75.9558 343.732,79.9558 345.5,83.5C 345.5,84.5 345.5,85.5 345.5,86.5C 342.026,98.2436 343.526,109.244 350,119.5C 352.825,122.476 355.992,124.809 359.5,126.5C 359.611,127.117 359.944,127.617 360.5,128C 365.5,128.667 370.5,128.667 375.5,128C 376.139,125.589 376.473,123.089 376.5,120.5C 376.471,117.731 375.805,115.397 374.5,113.5C 372.658,113.723 370.825,114.057 369,114.5C 366.325,114.343 364.159,113.343 362.5,111.5C 368.221,110.895 373.888,110.895 379.5,111.5C 379.5,100.167 379.5,88.8333 379.5,77.5C 379.179,74.4231 380.179,72.0897 382.5,70.5C 381.175,88.9311 381.175,107.264 382.5,125.5C 382.5,126.5 382.5,127.5 382.5,128.5C 387.167,128.5 391.833,128.5 396.5,128.5C 396.5,120.833 396.5,113.167 396.5,105.5C 399.167,105.5 401.833,105.5 404.5,105.5C 404.269,113.209 404.602,120.876 405.5,128.5C 409.833,128.5 414.167,128.5 418.5,128.5C 418.5,127.5 418.5,126.5 418.5,125.5C 419.497,108.008 419.83,90.3412 419.5,72.5C 420.074,87.4423 421.24,102.442 423,117.5C 424.8,115.855 426.8,114.522 429,113.5C 429.689,114.357 430.522,115.023 431.5,115.5C 432.668,113.199 434.168,111.866 436,111.5C 437.796,112.767 439.629,112.767 441.5,111.5C 442.148,113.149 443.148,114.482 444.5,115.5C 445.228,111.634 446.228,107.967 447.5,104.5C 448.128,111.913 447.461,118.913 445.5,125.5C 443.051,120.366 441.884,121.032 442,127.5C 441.259,126.359 440.425,126.359 439.5,127.5C 438.833,126.833 438.167,126.167 437.5,125.5C 436.5,127.167 435.167,128.5 433.5,129.5C 432.833,128.167 432.167,126.833 431.5,125.5C 430.614,126.325 430.281,127.325 430.5,128.5C 429.178,128.67 428.011,128.337 427,127.5C 424.773,129.199 422.273,130.532 419.5,131.5C 416.506,130.252 413.506,130.252 410.5,131.5C 409.282,132.803 409.615,133.803 411.5,134.5C 409.923,137.675 408.09,138.009 406,135.5C 405.667,136.167 405.333,136.833 405,137.5C 404.683,135.699 404.016,135.366 403,136.5C 402.311,135.643 401.478,134.977 400.5,134.5C 396.96,138.446 393.46,138.446 390,134.5C 386.99,137.57 385.157,136.903 384.5,132.5C 383.575,131.359 382.741,131.359 382,132.5C 381.3,130.968 380.134,129.968 378.5,129.5C 373.219,130.286 367.885,130.786 362.5,131C 363.337,132.011 363.67,133.178 363.5,134.5C 364.822,134.67 365.989,134.337 367,133.5C 367.667,134.167 367.667,134.833 367,135.5C 362.5,139.85 357.833,140.516 353,137.5C 350.53,139.487 347.697,139.987 344.5,139C 344.957,138.586 345.291,138.086 345.5,137.5C 341.681,133.579 340.681,133.912 342.5,138.5C 341.372,139.262 340.205,139.929 339,140.5C 337.187,139.391 336.354,140.058 336.5,142.5C 332.294,143.648 328.294,143.315 324.5,141.5C 321.18,143.719 317.68,144.053 314,142.5C 312.672,144.669 311.006,145.002 309,143.5C 304.5,146.067 300,146.067 295.5,143.5C 294.571,144.689 294.238,146.022 294.5,147.5C 286.719,147.045 279.052,147.712 271.5,149.5C 269.956,149.21 268.623,148.544 267.5,147.5C 266.167,150.167 264.833,150.167 263.5,147.5C 262.497,149.542 261.163,149.875 259.5,148.5C 258.8,151.015 257.467,151.682 255.5,150.5C 251.947,150.887 248.614,151.887 245.5,153.5C 242.356,150.993 239.189,150.993 236,153.5C 235.05,152.978 234.216,152.311 233.5,151.5C 230.819,155.071 227.819,155.737 224.5,153.5C 222.653,154.511 220.82,155.511 219,156.5C 209.338,155.144 199.838,156.144 190.5,159.5C 188.68,159.351 187.18,158.684 186,157.5C 184.887,158.76 184.72,159.927 185.5,161C 183.865,161.54 182.532,161.04 181.5,159.5C 179.999,160.752 178.332,161.752 176.5,162.5C 175.962,159.423 177.295,156.923 180.5,155C 180.167,154.667 179.833,154.333 179.5,154C 180.563,152.812 181.897,152.312 183.5,152.5C 183.343,151.127 183.51,149.793 184,148.5C 188.109,141.502 191.442,134.168 194,126.5C 195.642,115.196 196.808,103.529 197.5,91.5C 195.776,87.403 195.443,83.2364 196.5,79C 194.548,72.9675 192.881,66.8009 191.5,60.5C 191.977,59.5224 192.643,58.6891 193.5,58C 190.578,56.1627 188.911,53.496 188.5,50C 188.905,49.0546 189.572,48.3879 190.5,48C 189.117,46.7292 188.117,45.2292 187.5,43.5C 188.117,43.3893 188.617,43.056 189,42.5C 190.359,45.0377 192.026,47.371 194,49.5C 194.116,52.9316 195.283,55.9316 197.5,58.5C 196.978,59.6074 196.645,60.7741 196.5,62C 197.077,65.8953 198.243,69.7287 200,73.5C 200.212,76.7577 200.712,79.9243 201.5,83C 201.167,83.3333 200.833,83.6667 200.5,84C 201.313,85.3139 202.313,86.4805 203.5,87.5C 202.183,102.062 200.85,116.729 199.5,131.5C 200.723,132.614 202.056,132.781 203.5,132C 201.699,131.683 201.366,131.016 202.5,130C 205.882,129.824 209.215,129.324 212.5,128.5C 211.975,127.808 211.308,127.308 210.5,127C 211.325,125.312 212.325,125.145 213.5,126.5C 214.176,125.398 214.842,124.398 215.5,123.5 Z"/></g>
<g><path style="opacity:1" fill="#fefffe" d="M 374.5,71.5 C 375.596,75.4126 375.762,79.4126 375,83.5C 369.126,82.2578 364.126,83.9245 360,88.5C 356.527,95.7171 356.694,102.717 360.5,109.5C 360.833,110.5 361.5,111.167 362.5,111.5C 364.159,113.343 366.325,114.343 369,114.5C 370.825,114.057 372.658,113.723 374.5,113.5C 378.155,127.165 373.155,131.499 359.5,126.5C 355.992,124.809 352.825,122.476 350,119.5C 343.526,109.244 342.026,98.2436 345.5,86.5C 348.406,80.925 352.406,76.2583 357.5,72.5C 358.833,72.1667 360.167,71.8333 361.5,71.5C 365.833,70.1667 370.167,70.1667 374.5,71.5 Z"/></g>
<g><path style="opacity:1" fill="#de313c" d="M 565.5,81.5 C 564.44,88.5146 563.273,95.5146 562,102.5C 559.334,92.505 556.667,82.505 554,72.5C 550.545,71.2086 547.045,71.2086 543.5,72.5C 543.167,73.1667 542.833,73.8333 542.5,74.5C 544.474,80.3718 545.807,86.3718 546.5,92.5C 544.936,87.6319 543.436,82.6319 542,77.5C 541.242,75.2305 541.409,73.0639 542.5,71C 546.5,70.3333 550.5,70.3333 554.5,71C 555.333,71.8333 556.167,72.6667 557,73.5C 557.774,79.4204 559.274,85.0871 561.5,90.5C 562.937,87.5579 564.271,84.5579 565.5,81.5 Z"/></g>
<g><path style="opacity:1" fill="#e93a39" d="M 34.5,19.5 C 30.5368,23.9645 26.3702,28.2978 22,32.5C 19.1387,38.6932 15.4721,44.3599 11,49.5C 8.8828,54.9624 6.54947,60.2957 4,65.5C 1.42554,82.103 0.925537,98.7697 2.5,115.5C 1.5,112.167 0.5,108.833 -0.5,105.5C -0.5,96.1667 -0.5,86.8333 -0.5,77.5C 3.74599,53.6089 15.4127,34.2756 34.5,19.5 Z"/></g>
<g><path style="opacity:1" fill="#e4323c" d="M 268.5,71.5 C 264.894,71.2108 261.394,71.5442 258,72.5C 255.493,81.0317 253.493,89.6984 252,98.5C 251.333,99.1667 250.667,99.8333 250,100.5C 248.713,92.7741 247.213,85.1074 245.5,77.5C 247.614,78.3602 248.78,80.0268 249,82.5C 249.143,86.6192 249.81,90.6192 251,94.5C 252.963,87.9938 253.963,81.3271 254,74.5C 254.377,73.0577 255.21,72.0577 256.5,71.5C 260.601,70.2092 264.601,70.2092 268.5,71.5 Z"/></g>
<g><path style="opacity:1" fill="#e72b31" d="M 29.5,54.5 C 18.7276,74.2682 16.7276,94.9348 23.5,116.5C 20.9199,111.897 19.0866,106.897 18,101.5C 17.3333,93.5 17.3333,85.5 18,77.5C 20.4942,70.3389 23.1608,63.3389 26,56.5C 27.1127,55.695 28.2794,55.0283 29.5,54.5 Z"/></g>
<g><path style="opacity:1" fill="#e90924" d="M 622.5,48.5 C 628.703,53.703 633.37,60.0364 636.5,67.5C 637.966,73.0966 639.3,78.7633 640.5,84.5C 642.529,97.8232 641.529,110.823 637.5,123.5C 635.45,121.763 633.617,119.763 632,117.5C 628.834,120.476 625,121.809 620.5,121.5C 616.258,121.175 612.425,120.508 609,119.5C 608.5,120.667 607.667,121.5 606.5,122C 607.833,122.333 609.167,122.667 610.5,123C 607.647,123.664 604.981,123.164 602.5,121.5C 600.423,122.937 598.09,123.604 595.5,123.5C 595.425,119.103 595.925,114.77 597,110.5C 599.091,107.155 600.424,103.488 601,99.5C 601.922,90.0245 603.088,80.6911 604.5,71.5C 605.496,71.4142 606.329,71.7476 607,72.5C 607.878,75.2154 609.378,77.5487 611.5,79.5C 612.5,78.5 613.5,77.5 614.5,76.5C 620.833,75.8333 627.167,75.1667 633.5,74.5C 631.203,70.1787 630.036,65.512 630,60.5C 628.039,57.5372 625.706,54.8706 623,52.5C 622.51,51.2068 622.343,49.8734 622.5,48.5 Z"/></g>
<g><path style="opacity:1" fill="#dd2630" d="M 602.5,71.5 C 599.482,71.3354 596.482,71.502 593.5,72C 592.692,72.3076 592.025,72.8076 591.5,73.5C 589.185,82.0578 587.519,90.7245 586.5,99.5C 585.5,99.5 584.5,99.5 583.5,99.5C 582.554,91.4353 581.22,83.4353 579.5,75.5C 580.397,76.5981 581.23,76.5981 582,75.5C 582.333,76.1667 582.667,76.8333 583,77.5C 583.089,81.0284 583.756,84.3618 585,87.5C 586.044,86.3774 586.71,85.0441 587,83.5C 587.501,79.4899 588.001,75.4899 588.5,71.5C 593.312,70.3222 597.979,70.3222 602.5,71.5 Z"/></g>
<g><path style="opacity:1" fill="#df313a" d="M 245.5,73.5 C 241.332,70.8805 237.165,70.8805 233,73.5C 231.24,82.8188 229.574,92.1521 228,101.5C 225.761,96.438 224.261,91.1047 223.5,85.5C 225.234,87.0904 226.4,89.0904 227,91.5C 227.667,90.8333 228.333,90.1667 229,89.5C 229.094,82.9058 230.594,76.7392 233.5,71C 237.167,70.3333 240.833,70.3333 244.5,71C 245.252,71.6708 245.586,72.5041 245.5,73.5 Z"/></g>
<g><path style="opacity:1" fill="#f20d26" d="M 462.5,69.5 C 458.154,69.3343 453.821,69.501 449.5,70C 448.874,70.7504 448.374,71.5838 448,72.5C 447.5,83.1615 447.333,93.8281 447.5,104.5C 446.228,107.967 445.228,111.634 444.5,115.5C 443.148,114.482 442.148,113.149 441.5,111.5C 439.629,112.767 437.796,112.767 436,111.5C 434.168,111.866 432.668,113.199 431.5,115.5C 430.522,115.023 429.689,114.357 429,113.5C 426.8,114.522 424.8,115.855 423,117.5C 421.24,102.442 420.074,87.4423 419.5,72.5C 419.389,71.8826 419.056,71.3826 418.5,71C 414.311,70.1881 410.311,70.3547 406.5,71.5C 405.577,78.109 405.244,84.7756 405.5,91.5C 402.167,91.5 398.833,91.5 395.5,91.5C 395.5,85.1667 395.5,78.8333 395.5,72.5C 395.167,71.8333 394.833,71.1667 394.5,70.5C 395.496,70.4142 396.329,70.7476 397,71.5C 397.499,77.4908 397.666,83.4908 397.5,89.5C 399.5,89.5 401.5,89.5 403.5,89.5C 402.999,82.2757 403.666,75.2757 405.5,68.5C 410.179,68.3342 414.845,68.5008 419.5,69C 420,69.5 420.5,70 421,70.5C 421.333,75.8333 421.667,81.1667 422,86.5C 423.167,82.8333 424.333,79.1667 425.5,75.5C 423.441,74.0488 422.441,72.0488 422.5,69.5C 426.846,69.6657 431.179,69.499 435.5,69C 434.304,68.3457 434.304,67.8457 435.5,67.5C 436.842,69.0049 438.508,69.6715 440.5,69.5C 440.5,70.8333 440.5,72.1667 440.5,73.5C 442.39,73.2965 443.89,73.9632 445,75.5C 444.84,72.4913 446.007,70.3246 448.5,69C 453.352,68.1849 458.019,68.3516 462.5,69.5 Z"/></g>
<g><path style="opacity:1" fill="#cf212d" d="M 141.5,40.5 C 144.007,40.9962 146.007,42.3295 147.5,44.5C 152.259,51.6165 156.926,58.7831 161.5,66C 162.247,70.461 162.747,74.961 163,79.5C 163.667,80.1667 164.333,80.8333 165,81.5C 165.667,88.1667 165.667,94.8333 165,101.5C 162.488,114.702 157.155,126.702 149,137.5C 147.989,138.337 146.822,138.67 145.5,138.5C 169.264,104.739 167.93,72.0723 141.5,40.5 Z"/></g>
<g><path style="opacity:1" fill="#dd414f" d="M 642.5,83.5 C 643.167,86.5 643.833,89.5 644.5,92.5C 644.5,97.1667 644.5,101.833 644.5,106.5C 643.892,111.672 642.559,116.672 640.5,121.5C 642.319,109.015 642.985,96.3485 642.5,83.5 Z"/></g>
<g><path style="opacity:1" fill="#d02438" d="M 406.5,71.5 C 410.311,70.3547 414.311,70.1881 418.5,71C 419.056,71.3826 419.389,71.8826 419.5,72.5C 419.83,90.3412 419.497,108.008 418.5,125.5C 418.667,108.163 418.5,90.8301 418,73.5C 414.506,71.623 410.673,70.9564 406.5,71.5 Z"/></g>
<g><path style="opacity:1" fill="#e73f4f" d="M 340.5,70.5 C 343.147,75.6032 343.147,80.7698 340.5,86C 338.19,86.4966 335.857,86.6633 333.5,86.5C 333.667,99.8375 333.5,113.171 333,126.5C 328.822,128.399 324.322,129.065 319.5,128.5C 319.5,127.5 319.5,126.5 319.5,125.5C 318.505,112.677 318.171,99.6774 318.5,86.5C 316.5,86.5 314.5,86.5 312.5,86.5C 311.883,86.3893 311.383,86.056 311,85.5C 310.198,80.581 310.365,75.7477 311.5,71C 321.161,70.5002 330.828,70.3335 340.5,70.5 Z"/></g>
<g><path style="opacity:1" fill="#e72b37" d="M 312.5,119.5 C 312.795,121.735 312.461,123.735 311.5,125.5C 307.24,107.656 302.407,89.989 297,72.5C 292.921,71.3705 288.755,71.2039 284.5,72C 283.934,72.9947 283.267,73.828 282.5,74.5C 282.33,73.1779 282.663,72.0113 283.5,71C 289.157,70.5006 294.824,70.3339 300.5,70.5C 301.677,78.546 303.177,86.546 305,94.5C 309.697,102.135 312.197,110.468 312.5,119.5 Z"/></g>
<g><path style="opacity:1" fill="#f24b5b" d="M 382.5,70.5 C 386.5,70.5 390.5,70.5 394.5,70.5C 394.833,71.1667 395.167,71.8333 395.5,72.5C 391.08,70.8268 386.914,71.1601 383,73.5C 382.5,90.8301 382.333,108.163 382.5,125.5C 381.175,107.264 381.175,88.9311 382.5,70.5 Z"/></g>
<g><path style="opacity:1" fill="#e83946" d="M 104.5,109.5 C 96.4197,114.934 88.0864,120.1 79.5,125C 78.3333,125.167 77.1667,125.333 76,125.5C 74.3189,125.392 73.1522,124.725 72.5,123.5C 78.027,124.401 82.3604,122.568 85.5,118C 87.8782,117.489 90.2115,116.822 92.5,116C 95.2094,111.478 99.2094,109.312 104.5,109.5 Z"/></g>
<g><path style="opacity:1" fill="#e82231" d="M 223.5,75.5 C 223.5,78.1667 223.5,80.8333 223.5,83.5C 222.359,79.687 221.026,75.8537 219.5,72C 216.167,71.3333 212.833,71.3333 209.5,72C 208.941,72.7247 208.608,73.5581 208.5,74.5C 212.569,91.7655 216.903,108.932 221.5,126C 225.817,126.981 229.817,126.481 233.5,124.5C 233.5,125.833 233.5,127.167 233.5,128.5C 228.786,128.827 224.12,128.493 219.5,127.5C 218.146,126.146 216.812,124.812 215.5,123.5C 216.88,121.281 216.546,119.281 214.5,117.5C 214.987,116.554 215.32,115.554 215.5,114.5C 213.032,106.026 211.532,97.3596 211,88.5C 207.864,82.9287 206.698,76.9287 207.5,70.5C 211.846,70.3343 216.179,70.501 220.5,71C 221.399,72.6516 222.399,74.1516 223.5,75.5 Z"/></g>
<g><path style="opacity:1" fill="#d80a23" d="M 122.5,5.5 C 131.204,7.68361 138.87,11.6836 145.5,17.5C 145.751,19.1703 146.418,20.6703 147.5,22C 152.398,24.5986 156.731,27.932 160.5,32C 166.491,32.4995 172.491,32.6662 178.5,32.5C 174.665,33.4613 170.665,34.2946 166.5,35C 168.329,35.2735 169.829,36.1068 171,37.5C 171.333,37.1667 171.667,36.8333 172,36.5C 172.973,38.3921 173.64,40.3921 174,42.5C 174.893,41.2888 175.726,41.2888 176.5,42.5C 178.138,45.3041 179.971,47.9708 182,50.5C 184.155,54.9705 184.988,59.4705 184.5,64C 185.762,66.1788 187.095,68.3455 188.5,70.5C 188.291,71.086 187.957,71.586 187.5,72C 189.474,82.0869 190.807,92.5869 191.5,103.5C 191.284,105.384 190.617,107.051 189.5,108.5C 189.504,114.489 189.504,120.155 189.5,125.5C 184.864,139.711 176.864,152.044 165.5,162.5C 166.376,163.251 167.376,163.751 168.5,164C 203.171,164.588 237.837,164.421 272.5,163.5C 295.169,163.667 317.836,163.5 340.5,163C 342.302,159.923 344.302,159.757 346.5,162.5C 349.966,162.183 353.132,161.183 356,159.5C 357.017,162.028 358.184,162.028 359.5,159.5C 360.833,163.5 362.167,163.5 363.5,159.5C 364.833,163.5 366.167,163.5 367.5,159.5C 368.833,163.5 370.167,163.5 371.5,159.5C 372.258,160.811 373.258,161.311 374.5,161C 373.346,160.086 373.513,159.253 375,158.5C 376.84,159.833 377.34,159.666 376.5,158C 377.579,157.044 378.745,156.211 380,155.5C 380.7,157.032 381.866,158.032 383.5,158.5C 385.585,157.229 387.752,156.229 390,155.5C 391.326,155.755 392.326,156.422 393,157.5C 402.243,155.248 411.243,153.915 420,153.5C 420.388,154.428 421.055,155.095 422,155.5C 424.825,154.244 427.658,152.911 430.5,151.5C 431.672,151.919 432.672,152.585 433.5,153.5C 434.23,152.066 435.23,150.9 436.5,150C 440.222,149.762 443.889,149.262 447.5,148.5C 448.251,149.376 448.751,150.376 449,151.5C 452.425,147.156 456.425,146.49 461,149.5C 461.915,147.02 463.415,146.353 465.5,147.5C 466.478,147.023 467.311,146.357 468,145.5C 469.154,147.957 470.488,147.957 472,145.5C 473.154,147.957 474.488,147.957 476,145.5C 476.333,146.167 476.667,146.833 477,147.5C 479.718,144.93 482.385,144.93 485,147.5C 486.657,144.84 488.324,144.84 490,147.5C 492.02,146.968 492.853,145.635 492.5,143.5C 495.39,143.278 498.057,143.945 500.5,145.5C 502.838,144.384 505.004,143.05 507,141.5C 507.689,142.357 508.522,143.023 509.5,143.5C 513.055,141.844 516.722,140.344 520.5,139C 519.112,138.111 519.278,137.611 521,137.5C 525.473,140.11 529.973,140.11 534.5,137.5C 536.425,139.973 538.258,139.973 540,137.5C 540.85,138.424 541.85,138.424 543,137.5C 545.244,137.867 545.744,138.867 544.5,140.5C 544.808,141.308 545.308,141.975 546,142.5C 546.219,141.062 546.719,139.729 547.5,138.5C 550.531,139.493 552.864,138.493 554.5,135.5C 556.435,135.127 558.268,135.793 560,137.5C 562.543,136.884 565.043,136.551 567.5,136.5C 568.167,137.5 568.833,138.5 569.5,139.5C 570.298,137.922 570.798,136.256 571,134.5C 571.333,134.833 571.667,135.167 572,135.5C 573.912,134.308 575.912,133.308 578,132.5C 577.56,137.695 579.393,138.529 583.5,135C 580.833,133.667 580.833,132.333 583.5,131C 580.56,130.196 577.893,128.863 575.5,127C 576.91,120.206 576.077,113.706 573,107.5C 572.507,110.675 571.34,113.341 569.5,115.5C 569.806,109.783 571.306,104.45 574,99.5C 575.559,107.852 577.225,116.186 579,124.5C 580.822,126.045 582.989,126.712 585.5,126.5C 587.429,126.46 589.262,126.127 591,125.5C 595.215,109.537 599.215,93.5373 603,77.5C 603.678,75.4024 603.511,73.4024 602.5,71.5C 603.167,71.5 603.833,71.5 604.5,71.5C 603.088,80.6911 601.922,90.0245 601,99.5C 600.424,103.488 599.091,107.155 597,110.5C 595.925,114.77 595.425,119.103 595.5,123.5C 598.09,123.604 600.423,122.937 602.5,121.5C 604.981,123.164 607.647,123.664 610.5,123C 609.167,122.667 607.833,122.333 606.5,122C 607.667,121.5 608.5,120.667 609,119.5C 612.425,120.508 616.258,121.175 620.5,121.5C 625,121.809 628.834,120.476 632,117.5C 633.617,119.763 635.45,121.763 637.5,123.5C 636.027,126.446 634.527,129.446 633,132.5C 632.549,130.071 631.715,129.904 630.5,132C 631.747,133.494 631.747,134.994 630.5,136.5C 627.603,138.317 624.603,138.817 621.5,138C 618.793,139.128 616.293,140.628 614,142.5C 613.585,140.709 612.585,139.376 611,138.5C 609.636,139.696 608.136,140.696 606.5,141.5C 604.913,140.638 603.246,139.971 601.5,139.5C 598.367,140.861 595.033,141.694 591.5,142C 590.638,144.734 589.805,144.901 589,142.5C 584.987,143.994 580.987,144.994 577,145.5C 576.326,144.422 575.326,143.755 574,143.5C 565.242,144.637 556.742,146.637 548.5,149.5C 543.731,147.518 538.731,147.018 533.5,148C 532.663,149.011 532.33,150.178 532.5,151.5C 525.8,151.17 519.134,151.503 512.5,152.5C 509.868,156.043 506.868,156.376 503.5,153.5C 501.229,156.418 498.563,157.084 495.5,155.5C 491.095,158.132 486.595,158.132 482,155.5C 479.908,155.879 477.908,156.546 476,157.5C 471.415,154.395 467.915,155.395 465.5,160.5C 456.254,160.21 446.588,160.21 436.5,160.5C 442.138,161.33 447.804,161.83 453.5,162C 451.5,162.333 449.5,162.667 447.5,163C 432.661,163.169 417.994,163.669 403.5,164.5C 374.995,164.169 346.662,164.502 318.5,165.5C 260.166,165.333 201.832,165.5 143.5,166C 141.45,166.416 140.116,167.583 139.5,169.5C 136.992,171.924 133.992,173.59 130.5,174.5C 127.145,174.091 124.145,174.758 121.5,176.5C 121.62,173.795 120.62,173.128 118.5,174.5C 117.5,174.167 116.833,173.5 116.5,172.5C 118.484,171.294 120.484,171.294 122.5,172.5C 125.028,171.502 125.028,170.669 122.5,170C 125.2,169.051 126.033,167.217 125,164.5C 124.333,165.167 123.667,165.833 123,166.5C 122.259,165.359 121.425,165.359 120.5,166.5C 119.585,165.672 118.919,164.672 118.5,163.5C 120.585,162.459 122.252,160.959 123.5,159C 119.665,160.399 115.665,161.565 111.5,162.5C 111.5,161.833 111.5,161.167 111.5,160.5C 124.433,155.697 135.766,148.363 145.5,138.5C 146.822,138.67 147.989,138.337 149,137.5C 157.155,126.702 162.488,114.702 165,101.5C 165.667,94.8333 165.667,88.1667 165,81.5C 164.333,80.8333 163.667,80.1667 163,79.5C 162.747,74.961 162.247,70.461 161.5,66C 156.926,58.7831 152.259,51.6165 147.5,44.5C 146.007,42.3295 144.007,40.9962 141.5,40.5C 136.128,36.4884 130.795,32.4884 125.5,28.5C 127.604,28.2011 129.604,28.5344 131.5,29.5C 133.358,31.6972 135.692,33.0305 138.5,33.5C 138.548,30.7081 137.215,28.8747 134.5,28C 135.357,27.3109 136.023,26.4776 136.5,25.5C 133.699,22.0361 134.366,19.2028 138.5,17C 136.833,16.6667 135.167,16.3333 133.5,16C 134.167,15.6667 134.833,15.3333 135.5,15C 131.773,10.8226 127.44,7.65594 122.5,5.5 Z"/></g>
<g><path style="opacity:1" fill="#e54957" d="M 374.5,113.5 C 375.805,115.397 376.471,117.731 376.5,120.5C 376.473,123.089 376.139,125.589 375.5,128C 370.5,128.667 365.5,128.667 360.5,128C 359.944,127.617 359.611,127.117 359.5,126.5C 373.155,131.499 378.155,127.165 374.5,113.5 Z"/></g>
<g><path style="opacity:1" fill="#da353f" d="M 311.5,125.5 C 309.603,126.805 307.269,127.471 304.5,127.5C 298.076,128.639 295.076,125.972 295.5,119.5C 292.15,119.335 288.817,119.502 285.5,120C 285.12,122.326 284.12,124.159 282.5,125.5C 283.06,123.199 283.56,120.866 284,118.5C 288.079,117.371 292.245,117.204 296.5,118C 297.128,120.8 298.128,123.467 299.5,126C 303.587,126.762 307.587,126.596 311.5,125.5 Z"/></g>
<g><path style="opacity:1" fill="#e22936" d="M 265.5,93.5 C 265.648,105.087 262.981,115.754 257.5,125.5C 259.748,114.635 262.415,103.968 265.5,93.5 Z"/></g>
<g><path style="opacity:1" fill="#de424d" d="M 537.5,85.5 C 538.167,86.1667 538.833,86.8333 539.5,87.5C 539.666,95.5069 539.5,103.507 539,111.5C 535.509,125.987 526.675,131.32 512.5,127.5C 523.226,129.661 531.06,125.995 536,116.5C 538.701,106.287 539.201,95.9532 537.5,85.5 Z"/></g>
<g><path style="opacity:1" fill="#e2333d" d="M 277.5,92.5 C 274.993,103.527 272.327,114.527 269.5,125.5C 268.876,125.083 268.543,124.416 268.5,123.5C 269.483,117.4 270.65,111.4 272,105.5C 273.161,100.842 274.994,96.5085 277.5,92.5 Z"/></g>
<g><path style="opacity:1" fill="#e0222e" d="M 515.5,85.5 C 518.862,82.7104 521.695,83.377 524,87.5C 524.303,91.5295 524.803,95.5295 525.5,99.5C 524.803,103.471 524.303,107.471 524,111.5C 519.801,117.034 516.135,116.7 513,110.5C 512.333,103.167 512.333,95.8333 513,88.5C 513.377,87.0577 514.21,86.0577 515.5,85.5 Z"/></g>
<g><path style="opacity:1" fill="#e1363f" d="M 374.5,71.5 C 375.805,73.3972 376.471,75.7305 376.5,78.5C 376.333,80.8333 376.167,83.1667 376,85.5C 372.255,86.297 368.421,86.797 364.5,87C 363.421,87.956 362.255,88.7894 361,89.5C 359.212,96.1117 359.046,102.778 360.5,109.5C 356.694,102.717 356.527,95.7171 360,88.5C 364.126,83.9245 369.126,82.2578 375,83.5C 375.762,79.4126 375.596,75.4126 374.5,71.5 Z"/></g>
<g><path style="opacity:1" fill="#ed0923" d="M 515.5,85.5 C 517.467,85.2606 519.301,85.5939 521,86.5C 522.896,92.5408 522.896,98.5408 521,104.5C 519.149,102.219 517.482,102.219 516,104.5C 515.667,106.167 515.333,107.833 515,109.5C 514.23,101.452 514.397,93.4515 515.5,85.5 Z"/></g>
<g><path style="opacity:1" fill="#e63741" d="M 282.5,74.5 C 281.354,80.7495 279.687,86.7495 277.5,92.5C 277.5,90.8333 277.5,89.1667 277.5,87.5C 277.794,82.5881 279.461,78.2548 282.5,74.5 Z"/></g>
<g><path style="opacity:1" fill="#ea414e" d="M 357.5,72.5 C 352.406,76.2583 348.406,80.925 345.5,86.5C 345.5,85.5 345.5,84.5 345.5,83.5C 346.713,80.7746 348.546,78.4412 351,76.5C 351.483,75.552 351.649,74.552 351.5,73.5C 353.5,73.1667 355.5,72.8333 357.5,72.5 Z"/></g>
<g><path style="opacity:1" fill="#fefffe" d="M 565.5,81.5 C 565.127,73.0523 569.127,69.8856 577.5,72C 578.305,73.1127 578.972,74.2794 579.5,75.5C 581.22,83.4353 582.554,91.4353 583.5,99.5C 584.5,99.5 585.5,99.5 586.5,99.5C 587.519,90.7245 589.185,82.0578 591.5,73.5C 592.025,72.8076 592.692,72.3076 593.5,72C 596.482,71.502 599.482,71.3354 602.5,71.5C 603.511,73.4024 603.678,75.4024 603,77.5C 599.215,93.5373 595.215,109.537 591,125.5C 589.262,126.127 587.429,126.46 585.5,126.5C 582.989,126.712 580.822,126.045 579,124.5C 577.225,116.186 575.559,107.852 574,99.5C 571.306,104.45 569.806,109.783 569.5,115.5C 568.506,118.804 567.506,122.137 566.5,125.5C 562.878,126.659 559.211,126.825 555.5,126C 552.441,114.769 549.441,103.602 546.5,92.5C 545.807,86.3718 544.474,80.3718 542.5,74.5C 542.833,73.8333 543.167,73.1667 543.5,72.5C 547.045,71.2086 550.545,71.2086 554,72.5C 556.667,82.505 559.334,92.505 562,102.5C 563.273,95.5146 564.44,88.5146 565.5,81.5 Z"/></g>
<g><path style="opacity:1" fill="#fefffe" d="M 395.5,72.5 C 395.5,78.8333 395.5,85.1667 395.5,91.5C 398.833,91.5 402.167,91.5 405.5,91.5C 405.244,84.7756 405.577,78.109 406.5,71.5C 410.673,70.9564 414.506,71.623 418,73.5C 418.5,90.8301 418.667,108.163 418.5,125.5C 414.546,126.765 410.546,126.765 406.5,125.5C 405.535,118.224 405.201,110.891 405.5,103.5C 402.223,103.216 399.057,103.549 396,104.5C 395.831,111.524 395.331,118.524 394.5,125.5C 390.502,126.76 386.502,126.76 382.5,125.5C 382.333,108.163 382.5,90.8301 383,73.5C 386.914,71.1601 391.08,70.8268 395.5,72.5 Z"/></g>
<g><path style="opacity:1" fill="#fefffe" d="M 319.5,125.5 C 319.5,112.167 319.5,98.8333 319.5,85.5C 316.881,85.7683 314.381,85.435 312,84.5C 308.404,72.0985 312.904,67.7651 325.5,71.5C 329.833,71.6667 334.167,71.8333 338.5,72C 340.885,73.4626 341.885,75.6292 341.5,78.5C 341.755,84.8686 338.755,87.2019 332.5,85.5C 332.667,98.8375 332.5,112.171 332,125.5C 327.834,126.803 323.667,126.803 319.5,125.5 Z"/></g>
<g><path style="opacity:1" fill="#fefffe" d="M 311.5,125.5 C 307.587,126.596 303.587,126.762 299.5,126C 298.128,123.467 297.128,120.8 296.5,118C 292.245,117.204 288.079,117.371 284,118.5C 283.56,120.866 283.06,123.199 282.5,125.5C 278.135,126.773 273.801,126.773 269.5,125.5C 272.327,114.527 274.993,103.527 277.5,92.5C 279.687,86.7495 281.354,80.7495 282.5,74.5C 283.267,73.828 283.934,72.9947 284.5,72C 288.755,71.2039 292.921,71.3705 297,72.5C 302.407,89.989 307.24,107.656 311.5,125.5 Z"/></g>
<g><path style="opacity:1" fill="#d84750" d="M 289.5,96.5 C 288.949,99.8067 288.616,103.14 288.5,106.5C 289.833,106.5 291.167,106.5 292.5,106.5C 292.5,104.5 292.5,102.5 292.5,100.5C 293.468,102.607 293.802,104.941 293.5,107.5C 291.5,107.5 289.5,107.5 287.5,107.5C 287.116,103.511 287.783,99.8448 289.5,96.5 Z"/></g>
<g><path style="opacity:1" fill="#df1121" d="M 289.5,96.5 C 290.5,97.8333 291.5,99.1667 292.5,100.5C 292.5,102.5 292.5,104.5 292.5,106.5C 291.167,106.5 289.833,106.5 288.5,106.5C 288.616,103.14 288.949,99.8067 289.5,96.5 Z"/></g>
<g><path style="opacity:1" fill="#d6454e" d="M 292.5,100.5 C 291.5,99.1667 290.5,97.8333 289.5,96.5C 289.336,93.8127 289.503,91.146 290,88.5C 291.369,92.3775 292.202,96.3775 292.5,100.5 Z"/></g>
<g><path style="opacity:1" fill="#fefffe" d="M 223.5,83.5 C 223.5,84.1667 223.5,84.8333 223.5,85.5C 224.261,91.1047 225.761,96.438 228,101.5C 229.574,92.1521 231.24,82.8188 233,73.5C 237.165,70.8805 241.332,70.8805 245.5,73.5C 245.5,74.8333 245.5,76.1667 245.5,77.5C 247.213,85.1074 248.713,92.7741 250,100.5C 250.667,99.8333 251.333,99.1667 252,98.5C 253.493,89.6984 255.493,81.0317 258,72.5C 261.394,71.5442 264.894,71.2108 268.5,71.5C 268.982,72.4163 269.315,73.4163 269.5,74.5C 267.84,80.8038 266.507,87.1372 265.5,93.5C 262.415,103.968 259.748,114.635 257.5,125.5C 253.546,126.765 249.546,126.765 245.5,125.5C 244.297,120.345 242.963,115.345 241.5,110.5C 240.949,107.193 240.616,103.86 240.5,100.5C 239.5,100.5 238.5,100.5 237.5,100.5C 236.384,108.532 235.05,116.532 233.5,124.5C 229.817,126.481 225.817,126.981 221.5,126C 216.903,108.932 212.569,91.7655 208.5,74.5C 208.608,73.5581 208.941,72.7247 209.5,72C 212.833,71.3333 216.167,71.3333 219.5,72C 221.026,75.8537 222.359,79.687 223.5,83.5 Z"/></g>
<g><path style="opacity:1" fill="#da2f3a" d="M 241.5,110.5 C 240.59,108.981 239.757,107.315 239,105.5C 237.898,109.416 237.231,113.416 237,117.5C 235.789,119.921 234.623,122.255 233.5,124.5C 235.05,116.532 236.384,108.532 237.5,100.5C 238.5,100.5 239.5,100.5 240.5,100.5C 240.616,103.86 240.949,107.193 241.5,110.5 Z"/></g>
<g><path style="opacity:1" fill="#dd3341" d="M 418.5,125.5 C 418.5,126.5 418.5,127.5 418.5,128.5C 414.167,128.5 409.833,128.5 405.5,128.5C 404.602,120.876 404.269,113.209 404.5,105.5C 401.833,105.5 399.167,105.5 396.5,105.5C 396.5,113.167 396.5,120.833 396.5,128.5C 391.833,128.5 387.167,128.5 382.5,128.5C 382.5,127.5 382.5,126.5 382.5,125.5C 386.502,126.76 390.502,126.76 394.5,125.5C 395.331,118.524 395.831,111.524 396,104.5C 399.057,103.549 402.223,103.216 405.5,103.5C 405.201,110.891 405.535,118.224 406.5,125.5C 410.546,126.765 414.546,126.765 418.5,125.5 Z"/></g>
<g><path style="opacity:1" fill="#de0e25" d="M 462.5,69.5 C 466.391,72.788 468.391,77.1213 468.5,82.5C 470.55,84.2368 472.383,86.2368 474,88.5C 474.333,83.1667 474.667,77.8333 475,72.5C 475.75,71.8742 476.584,71.3742 477.5,71C 481.833,70.3333 486.167,70.3333 490.5,71C 491,71.5 491.5,72 492,72.5C 492.148,84.6802 493.148,96.6802 495,108.5C 495.333,102.5 495.667,96.5 496,90.5C 496.735,88.1287 497.568,85.7954 498.5,83.5C 498.957,82.7025 499.624,82.3691 500.5,82.5C 499.205,87.7318 498.539,93.0651 498.5,98.5C 497.111,111.354 501.778,121.02 512.5,127.5C 526.675,131.32 535.509,125.987 539,111.5C 539.5,103.507 539.666,95.5069 539.5,87.5C 541.018,94.6048 542.018,101.938 542.5,109.5C 544.283,110.348 544.783,111.681 544,113.5C 543.167,111 542,110.833 540.5,113C 541.727,114.587 541.394,115.921 539.5,117C 540.935,116.689 542.268,116.855 543.5,117.5C 545.046,116.316 546.713,115.316 548.5,114.5C 547.846,107.402 547.179,100.069 546.5,92.5C 549.441,103.602 552.441,114.769 555.5,126C 559.211,126.825 562.878,126.659 566.5,125.5C 567.506,122.137 568.506,118.804 569.5,115.5C 571.34,113.341 572.507,110.675 573,107.5C 576.077,113.706 576.91,120.206 575.5,127C 577.893,128.863 580.56,130.196 583.5,131C 580.833,132.333 580.833,133.667 583.5,135C 579.393,138.529 577.56,137.695 578,132.5C 575.912,133.308 573.912,134.308 572,135.5C 571.667,135.167 571.333,134.833 571,134.5C 570.798,136.256 570.298,137.922 569.5,139.5C 568.833,138.5 568.167,137.5 567.5,136.5C 565.043,136.551 562.543,136.884 560,137.5C 558.268,135.793 556.435,135.127 554.5,135.5C 552.864,138.493 550.531,139.493 547.5,138.5C 546.719,139.729 546.219,141.062 546,142.5C 545.308,141.975 544.808,141.308 544.5,140.5C 545.744,138.867 545.244,137.867 543,137.5C 541.85,138.424 540.85,138.424 540,137.5C 538.258,139.973 536.425,139.973 534.5,137.5C 529.973,140.11 525.473,140.11 521,137.5C 519.278,137.611 519.112,138.111 520.5,139C 516.722,140.344 513.055,141.844 509.5,143.5C 508.522,143.023 507.689,142.357 507,141.5C 505.004,143.05 502.838,144.384 500.5,145.5C 498.057,143.945 495.39,143.278 492.5,143.5C 492.853,145.635 492.02,146.968 490,147.5C 488.324,144.84 486.657,144.84 485,147.5C 482.385,144.93 479.718,144.93 477,147.5C 476.667,146.833 476.333,146.167 476,145.5C 474.488,147.957 473.154,147.957 472,145.5C 470.488,147.957 469.154,147.957 468,145.5C 467.311,146.357 466.478,147.023 465.5,147.5C 463.415,146.353 461.915,147.02 461,149.5C 456.425,146.49 452.425,147.156 449,151.5C 448.751,150.376 448.251,149.376 447.5,148.5C 443.889,149.262 440.222,149.762 436.5,150C 435.23,150.9 434.23,152.066 433.5,153.5C 432.672,152.585 431.672,151.919 430.5,151.5C 427.658,152.911 424.825,154.244 422,155.5C 421.055,155.095 420.388,154.428 420,153.5C 411.243,153.915 402.243,155.248 393,157.5C 392.326,156.422 391.326,155.755 390,155.5C 387.752,156.229 385.585,157.229 383.5,158.5C 381.866,158.032 380.7,157.032 380,155.5C 378.745,156.211 377.579,157.044 376.5,158C 377.34,159.666 376.84,159.833 375,158.5C 373.513,159.253 373.346,160.086 374.5,161C 373.258,161.311 372.258,160.811 371.5,159.5C 370.167,163.5 368.833,163.5 367.5,159.5C 366.167,163.5 364.833,163.5 363.5,159.5C 362.167,163.5 360.833,163.5 359.5,159.5C 358.184,162.028 357.017,162.028 356,159.5C 353.132,161.183 349.966,162.183 346.5,162.5C 344.302,159.757 342.302,159.923 340.5,163C 317.836,163.5 295.169,163.667 272.5,163.5C 278.319,162.672 284.319,162.172 290.5,162C 290.957,161.586 291.291,161.086 291.5,160.5C 299.807,159.502 308.14,159.169 316.5,159.5C 316.596,154.89 317.596,154.556 319.5,158.5C 322.504,156.387 325.837,155.053 329.5,154.5C 335.012,156.137 340.345,155.804 345.5,153.5C 346.167,154.167 346.833,154.833 347.5,155.5C 349.048,153.078 350.714,153.078 352.5,155.5C 355.003,154.241 357.503,152.908 360,151.5C 361.285,151.95 362.452,152.617 363.5,153.5C 364.906,152.049 366.406,150.716 368,149.5C 368.308,150.308 368.808,150.975 369.5,151.5C 370.167,150.167 370.833,148.833 371.5,147.5C 372.48,148.981 373.647,150.315 375,151.5C 375.249,150.376 375.749,149.376 376.5,148.5C 378.5,147.833 380.5,147.167 382.5,146.5C 383.506,146.938 383.506,147.604 382.5,148.5C 384.006,149.747 385.506,149.747 387,148.5C 387.923,149.759 388.757,151.092 389.5,152.5C 390.386,151.675 390.719,150.675 390.5,149.5C 392.492,149.672 394.158,149.005 395.5,147.5C 396.192,148.025 396.692,148.692 397,149.5C 398.567,147.832 400.234,147.498 402,148.5C 405.423,148.184 408.59,147.184 411.5,145.5C 412.167,146.167 412.833,146.833 413.5,147.5C 414.816,144.972 415.983,144.972 417,147.5C 418.378,145.787 420.045,144.453 422,143.5C 423.729,146.079 425.562,146.079 427.5,143.5C 428.192,144.025 428.692,144.692 429,145.5C 429.689,144.643 430.522,143.977 431.5,143.5C 436.224,144.313 441.224,144.147 446.5,143C 446.167,142.667 445.833,142.333 445.5,142C 450.167,141.667 454.833,141.333 459.5,141C 460.308,140.692 460.975,140.192 461.5,139.5C 459.196,136.849 456.863,136.849 454.5,139.5C 452.734,138.909 451.067,138.076 449.5,137C 450.167,136.667 450.833,136.333 451.5,136C 450.809,134.933 450.309,133.766 450,132.5C 448.053,131.89 446.219,131.057 444.5,130C 448.064,129.273 448.398,127.773 445.5,125.5C 447.461,118.913 448.128,111.913 447.5,104.5C 447.333,93.8281 447.5,83.1615 448,72.5C 448.374,71.5838 448.874,70.7504 449.5,70C 453.821,69.501 458.154,69.3343 462.5,69.5 Z"/></g>
<g><path style="opacity:1" fill="#db2c3d" d="M 490.5,73.5 C 491.662,91.3286 491.829,109.329 491,127.5C 486.587,128.632 482.087,128.799 477.5,128C 476.177,127.184 475.511,126.017 475.5,124.5C 479.928,126.749 484.595,127.083 489.5,125.5C 490.5,108.179 490.833,90.8461 490.5,73.5 Z"/></g>
<g><path style="opacity:1" fill="#fefffe" d="M 468.5,82.5 C 470.043,87.3717 472.043,92.0384 474.5,96.5C 475.122,97.6266 475.955,98.6266 477,99.5C 477.194,90.4227 477.694,81.4227 478.5,72.5C 482.718,70.933 486.718,71.2663 490.5,73.5C 490.833,90.8461 490.5,108.179 489.5,125.5C 484.595,127.083 479.928,126.749 475.5,124.5C 473.335,118.025 470.335,112.025 466.5,106.5C 465.872,103.91 464.705,101.577 463,99.5C 462.5,108.16 462.334,116.827 462.5,125.5C 458.6,126.43 454.6,126.763 450.5,126.5C 450.333,108.497 450.5,90.4969 451,72.5C 454.409,71.3781 457.909,71.2114 461.5,72C 463.75,75.6424 466.083,79.1424 468.5,82.5 Z"/></g>
<g><path style="opacity:1" fill="#d0323e" d="M 466.5,106.5 C 465.5,106.5 464.5,106.5 463.5,106.5C 463.823,113.022 463.49,119.355 462.5,125.5C 462.334,116.827 462.5,108.16 463,99.5C 464.705,101.577 465.872,103.91 466.5,106.5 Z"/></g>
<g><path style="opacity:1" fill="#ef5d6c" d="M 478.5,72.5 C 477.694,81.4227 477.194,90.4227 477,99.5C 475.955,98.6266 475.122,97.6266 474.5,96.5C 475.833,88.5 477.167,80.5 478.5,72.5 Z"/></g>
<g><path style="opacity:1" fill="#d00a23" d="M 636.5,67.5 C 639.464,72.381 641.464,77.7143 642.5,83.5C 642.985,96.3485 642.319,109.015 640.5,121.5C 634.379,140.62 622.045,153.953 603.5,161.5C 599.658,161.83 595.991,162.663 592.5,164C 529.501,164.5 466.501,164.667 403.5,164.5C 417.994,163.669 432.661,163.169 447.5,163C 449.5,162.667 451.5,162.333 453.5,162C 447.804,161.83 442.138,161.33 436.5,160.5C 446.588,160.21 456.254,160.21 465.5,160.5C 467.915,155.395 471.415,154.395 476,157.5C 477.908,156.546 479.908,155.879 482,155.5C 486.595,158.132 491.095,158.132 495.5,155.5C 498.563,157.084 501.229,156.418 503.5,153.5C 506.868,156.376 509.868,156.043 512.5,152.5C 519.134,151.503 525.8,151.17 532.5,151.5C 532.33,150.178 532.663,149.011 533.5,148C 538.731,147.018 543.731,147.518 548.5,149.5C 556.742,146.637 565.242,144.637 574,143.5C 575.326,143.755 576.326,144.422 577,145.5C 580.987,144.994 584.987,143.994 589,142.5C 589.805,144.901 590.638,144.734 591.5,142C 595.033,141.694 598.367,140.861 601.5,139.5C 603.246,139.971 604.913,140.638 606.5,141.5C 608.136,140.696 609.636,139.696 611,138.5C 612.585,139.376 613.585,140.709 614,142.5C 616.293,140.628 618.793,139.128 621.5,138C 624.603,138.817 627.603,138.317 630.5,136.5C 631.747,134.994 631.747,133.494 630.5,132C 631.715,129.904 632.549,130.071 633,132.5C 634.527,129.446 636.027,126.446 637.5,123.5C 641.529,110.823 642.529,97.8232 640.5,84.5C 639.3,78.7633 637.966,73.0966 636.5,67.5 Z"/></g>
<g><path style="opacity:1" fill="#be0b1f" d="M 603.5,161.5 C 599.37,164.204 594.703,165.538 589.5,165.5C 499.167,165.5 408.833,165.5 318.5,165.5C 346.662,164.502 374.995,164.169 403.5,164.5C 466.501,164.667 529.501,164.5 592.5,164C 595.991,162.663 599.658,161.83 603.5,161.5 Z"/></g>
<g><path style="opacity:1" fill="#d94958" d="M 318.5,165.5 C 408.833,165.5 499.167,165.5 589.5,165.5C 587.031,166.317 584.365,166.817 581.5,167C 435.5,167.333 289.5,167.667 143.5,168C 142.255,168.791 140.922,169.291 139.5,169.5C 140.116,167.583 141.45,166.416 143.5,166C 201.832,165.5 260.166,165.333 318.5,165.5 Z"/></g>
<g><path style="opacity:1" fill="#f40925" d="M 78.5,162.5 C 79.5,162.5 80.5,162.5 81.5,162.5C 91.3481,163.712 101.348,163.712 111.5,162.5C 115.665,161.565 119.665,160.399 123.5,159C 122.252,160.959 120.585,162.459 118.5,163.5C 118.919,164.672 119.585,165.672 120.5,166.5C 121.425,165.359 122.259,165.359 123,166.5C 123.667,165.833 124.333,165.167 125,164.5C 126.033,167.217 125.2,169.051 122.5,170C 125.028,170.669 125.028,171.502 122.5,172.5C 120.484,171.294 118.484,171.294 116.5,172.5C 116.833,173.5 117.5,174.167 118.5,174.5C 120.62,173.128 121.62,173.795 121.5,176.5C 113.98,177.79 106.647,179.623 99.5,182C 89.0799,182.779 78.7465,182.113 68.5,180C 63.2397,177.114 57.573,175.281 51.5,174.5C 49.6833,172.988 48.6833,170.988 48.5,168.5C 42.9999,169.169 40.8333,166.835 42,161.5C 43.0177,162.706 43.5177,162.373 43.5,160.5C 39.5622,157.427 39.5622,154.26 43.5,151C 42.8333,150.667 42.1667,150.333 41.5,150C 45.275,150.212 48.9417,151.046 52.5,152.5C 52.3433,153.873 52.51,155.207 53,156.5C 61.1298,159.835 69.6298,161.835 78.5,162.5 Z"/></g>
<g><path style="opacity:1" fill="#d62f3a" d="M 111.5,160.5 C 111.5,161.167 111.5,161.833 111.5,162.5C 101.348,163.712 91.3481,163.712 81.5,162.5C 91.5989,162.92 101.599,162.254 111.5,160.5 Z"/></g>
<g><path style="opacity:1" fill="#dd2a36" d="M 51.5,174.5 C 57.573,175.281 63.2397,177.114 68.5,180C 78.7465,182.113 89.0799,182.779 99.5,182C 106.647,179.623 113.98,177.79 121.5,176.5C 124.145,174.758 127.145,174.091 130.5,174.5C 127.823,176.46 124.823,177.96 121.5,179C 115.724,180.581 110.058,182.081 104.5,183.5C 95.5,183.5 86.5,183.5 77.5,183.5C 68.4373,181.701 59.7706,178.701 51.5,174.5 Z"/></g>
</svg>
